<?xml version="1.0" standalone="no"?>
<!DOCTYPE svg PUBLIC "-//W3C//DTD SVG 1.1//EN" "http://www.w3.org/Graphics/SVG/1.1/DTD/svg11.dtd" >
<svg xmlns="http://www.w3.org/2000/svg" xmlns:xlink="http://www.w3.org/1999/xlink" version="1.1">
<metadata>
Created by FontForge 20170731 at Wed Dec 21 01:31:44 2016
 By Aleksey,,,
Copyright (c) 2016 by Pedro Alexandre Vilas Boas Teixeira. All rights reserved.
</metadata>
<defs>
<font id="ForeverBrushScript" horiz-adv-x="950" >
  <font-face 
    font-family="Forever Brush Script"
    font-weight="400"
    font-stretch="normal"
    units-per-em="1000"
    panose-1="2 0 5 6 0 0 0 2 0 4"
    ascent="730"
    descent="-270"
    x-height="484"
    cap-height="728"
    bbox="-143 -306 906 845"
    underline-thickness="50"
    underline-position="-300"
    unicode-range="U+0020-FB06"
  />
<missing-glyph horiz-adv-x="350" 
 />
    <glyph glyph-name=".notdef" horiz-adv-x="350" 
 />
    <glyph glyph-name=".null" horiz-adv-x="0" 
 />
    <glyph glyph-name="nonmarkingreturn" horiz-adv-x="333" 
 />
    <glyph glyph-name="space" unicode=" " horiz-adv-x="350" 
 />
    <glyph glyph-name="exclam" unicode="!" 
d="M818 191q22 0 43 19.5t31 39.5l10 19q-1 -4 -4 -11.5t-13 -26.5t-22 -34t-33 -28.5t-44 -16.5q-118 -116 -284 -116q-168 0 -286.5 118.5t-118.5 285.5q0 34 7 76q-31 -22 -62 -53q9 16 23 37.5t49.5 64t74.5 74.5t97 57.5t117 25.5q55 0 55 -32q0 -22 -25 -61.5t-60 -86
t-70.5 -95.5t-60.5 -101t-25 -92q0 -29 17.5 -48t44.5 -19q24 0 43.5 18t19.5 39q0 5 -5 5q-3 -1 -11 -1q-29 0 -29 36q0 44 51 126.5t102 161.5t51 114q0 27 -20.5 46.5t-59.5 19.5q-159 0 -289 -146q49 108 148.5 173.5t221.5 65.5q167 0 285.5 -118.5t118.5 -286.5
q0 -107 -54 -202q-13 -5 -21 -5q-54 0 -76 76q62 68 105 144q3 6 3 9t-2 3q-4 0 -8 -8q-39 -72 -103 -130q-3 13 -9 41t-9.5 42.5t-11 32.5t-19 26t-26.5 8q-42 0 -61 -51q0 -4 3 -4q45 0 68 -29.5t42 -84.5q-89 -69 -164 -69q-66 0 -66 97q0 79 42 196q31 2 156 15t169 13
q11 0 11 5q0 4 -10 4q-49 0 -139.5 0.5t-171.5 0.5q44 107 66 107q7 0 7 -19q0 -6 6 -6q13 0 13 13q0 9 -8 16t-22 7q-18 0 -45 -33t-55 -85h-32q-20 0 -20 -11q0 -8 8.5 -15.5t24.5 -10.5q-60 -129 -60 -225q0 -122 108 -122q88 0 189 101q10 -31 18.5 -48.5t25.5 -32.5
t40 -15z" />
    <glyph glyph-name="quotedbl" unicode="&#x22;" 
d="M818 191q22 0 43 19.5t31 39.5l10 19q-1 -4 -4 -11.5t-13 -26.5t-22 -34t-33 -28.5t-44 -16.5q-118 -116 -284 -116q-168 0 -286.5 118.5t-118.5 285.5q0 34 7 76q-31 -22 -62 -53q9 16 23 37.5t49.5 64t74.5 74.5t97 57.5t117 25.5q55 0 55 -32q0 -22 -25 -61.5t-60 -86
t-70.5 -95.5t-60.5 -101t-25 -92q0 -29 17.5 -48t44.5 -19q24 0 43.5 18t19.5 39q0 5 -5 5q-3 -1 -11 -1q-29 0 -29 36q0 44 51 126.5t102 161.5t51 114q0 27 -20.5 46.5t-59.5 19.5q-159 0 -289 -146q49 108 148.5 173.5t221.5 65.5q167 0 285.5 -118.5t118.5 -286.5
q0 -107 -54 -202q-13 -5 -21 -5q-54 0 -76 76q62 68 105 144q3 6 3 9t-2 3q-4 0 -8 -8q-39 -72 -103 -130q-3 13 -9 41t-9.5 42.5t-11 32.5t-19 26t-26.5 8q-42 0 -61 -51q0 -4 3 -4q45 0 68 -29.5t42 -84.5q-89 -69 -164 -69q-66 0 -66 97q0 79 42 196q31 2 156 15t169 13
q11 0 11 5q0 4 -10 4q-49 0 -139.5 0.5t-171.5 0.5q44 107 66 107q7 0 7 -19q0 -6 6 -6q13 0 13 13q0 9 -8 16t-22 7q-18 0 -45 -33t-55 -85h-32q-20 0 -20 -11q0 -8 8.5 -15.5t24.5 -10.5q-60 -129 -60 -225q0 -122 108 -122q88 0 189 101q10 -31 18.5 -48.5t25.5 -32.5
t40 -15z" />
    <glyph glyph-name="numbersign" unicode="#" 
d="M818 191q22 0 43 19.5t31 39.5l10 19q-1 -4 -4 -11.5t-13 -26.5t-22 -34t-33 -28.5t-44 -16.5q-118 -116 -284 -116q-168 0 -286.5 118.5t-118.5 285.5q0 34 7 76q-31 -22 -62 -53q9 16 23 37.5t49.5 64t74.5 74.5t97 57.5t117 25.5q55 0 55 -32q0 -22 -25 -61.5t-60 -86
t-70.5 -95.5t-60.5 -101t-25 -92q0 -29 17.5 -48t44.5 -19q24 0 43.5 18t19.5 39q0 5 -5 5q-3 -1 -11 -1q-29 0 -29 36q0 44 51 126.5t102 161.5t51 114q0 27 -20.5 46.5t-59.5 19.5q-159 0 -289 -146q49 108 148.5 173.5t221.5 65.5q167 0 285.5 -118.5t118.5 -286.5
q0 -107 -54 -202q-13 -5 -21 -5q-54 0 -76 76q62 68 105 144q3 6 3 9t-2 3q-4 0 -8 -8q-39 -72 -103 -130q-3 13 -9 41t-9.5 42.5t-11 32.5t-19 26t-26.5 8q-42 0 -61 -51q0 -4 3 -4q45 0 68 -29.5t42 -84.5q-89 -69 -164 -69q-66 0 -66 97q0 79 42 196q31 2 156 15t169 13
q11 0 11 5q0 4 -10 4q-49 0 -139.5 0.5t-171.5 0.5q44 107 66 107q7 0 7 -19q0 -6 6 -6q13 0 13 13q0 9 -8 16t-22 7q-18 0 -45 -33t-55 -85h-32q-20 0 -20 -11q0 -8 8.5 -15.5t24.5 -10.5q-60 -129 -60 -225q0 -122 108 -122q88 0 189 101q10 -31 18.5 -48.5t25.5 -32.5
t40 -15z" />
    <glyph glyph-name="dollar" unicode="$" 
d="M818 191q22 0 43 19.5t31 39.5l10 19q-1 -4 -4 -11.5t-13 -26.5t-22 -34t-33 -28.5t-44 -16.5q-118 -116 -284 -116q-168 0 -286.5 118.5t-118.5 285.5q0 34 7 76q-31 -22 -62 -53q9 16 23 37.5t49.5 64t74.5 74.5t97 57.5t117 25.5q55 0 55 -32q0 -22 -25 -61.5t-60 -86
t-70.5 -95.5t-60.5 -101t-25 -92q0 -29 17.5 -48t44.5 -19q24 0 43.5 18t19.5 39q0 5 -5 5q-3 -1 -11 -1q-29 0 -29 36q0 44 51 126.5t102 161.5t51 114q0 27 -20.5 46.5t-59.5 19.5q-159 0 -289 -146q49 108 148.5 173.5t221.5 65.5q167 0 285.5 -118.5t118.5 -286.5
q0 -107 -54 -202q-13 -5 -21 -5q-54 0 -76 76q62 68 105 144q3 6 3 9t-2 3q-4 0 -8 -8q-39 -72 -103 -130q-3 13 -9 41t-9.5 42.5t-11 32.5t-19 26t-26.5 8q-42 0 -61 -51q0 -4 3 -4q45 0 68 -29.5t42 -84.5q-89 -69 -164 -69q-66 0 -66 97q0 79 42 196q31 2 156 15t169 13
q11 0 11 5q0 4 -10 4q-49 0 -139.5 0.5t-171.5 0.5q44 107 66 107q7 0 7 -19q0 -6 6 -6q13 0 13 13q0 9 -8 16t-22 7q-18 0 -45 -33t-55 -85h-32q-20 0 -20 -11q0 -8 8.5 -15.5t24.5 -10.5q-60 -129 -60 -225q0 -122 108 -122q88 0 189 101q10 -31 18.5 -48.5t25.5 -32.5
t40 -15z" />
    <glyph glyph-name="percent" unicode="%" 
d="M818 191q22 0 43 19.5t31 39.5l10 19q-1 -4 -4 -11.5t-13 -26.5t-22 -34t-33 -28.5t-44 -16.5q-118 -116 -284 -116q-168 0 -286.5 118.5t-118.5 285.5q0 34 7 76q-31 -22 -62 -53q9 16 23 37.5t49.5 64t74.5 74.5t97 57.5t117 25.5q55 0 55 -32q0 -22 -25 -61.5t-60 -86
t-70.5 -95.5t-60.5 -101t-25 -92q0 -29 17.5 -48t44.5 -19q24 0 43.5 18t19.5 39q0 5 -5 5q-3 -1 -11 -1q-29 0 -29 36q0 44 51 126.5t102 161.5t51 114q0 27 -20.5 46.5t-59.5 19.5q-159 0 -289 -146q49 108 148.5 173.5t221.5 65.5q167 0 285.5 -118.5t118.5 -286.5
q0 -107 -54 -202q-13 -5 -21 -5q-54 0 -76 76q62 68 105 144q3 6 3 9t-2 3q-4 0 -8 -8q-39 -72 -103 -130q-3 13 -9 41t-9.5 42.5t-11 32.5t-19 26t-26.5 8q-42 0 -61 -51q0 -4 3 -4q45 0 68 -29.5t42 -84.5q-89 -69 -164 -69q-66 0 -66 97q0 79 42 196q31 2 156 15t169 13
q11 0 11 5q0 4 -10 4q-49 0 -139.5 0.5t-171.5 0.5q44 107 66 107q7 0 7 -19q0 -6 6 -6q13 0 13 13q0 9 -8 16t-22 7q-18 0 -45 -33t-55 -85h-32q-20 0 -20 -11q0 -8 8.5 -15.5t24.5 -10.5q-60 -129 -60 -225q0 -122 108 -122q88 0 189 101q10 -31 18.5 -48.5t25.5 -32.5
t40 -15z" />
    <glyph glyph-name="ampersand" unicode="&#x26;" 
d="M818 191q22 0 43 19.5t31 39.5l10 19q-1 -4 -4 -11.5t-13 -26.5t-22 -34t-33 -28.5t-44 -16.5q-118 -116 -284 -116q-168 0 -286.5 118.5t-118.5 285.5q0 34 7 76q-31 -22 -62 -53q9 16 23 37.5t49.5 64t74.5 74.5t97 57.5t117 25.5q55 0 55 -32q0 -22 -25 -61.5t-60 -86
t-70.5 -95.5t-60.5 -101t-25 -92q0 -29 17.5 -48t44.5 -19q24 0 43.5 18t19.5 39q0 5 -5 5q-3 -1 -11 -1q-29 0 -29 36q0 44 51 126.5t102 161.5t51 114q0 27 -20.5 46.5t-59.5 19.5q-159 0 -289 -146q49 108 148.5 173.5t221.5 65.5q167 0 285.5 -118.5t118.5 -286.5
q0 -107 -54 -202q-13 -5 -21 -5q-54 0 -76 76q62 68 105 144q3 6 3 9t-2 3q-4 0 -8 -8q-39 -72 -103 -130q-3 13 -9 41t-9.5 42.5t-11 32.5t-19 26t-26.5 8q-42 0 -61 -51q0 -4 3 -4q45 0 68 -29.5t42 -84.5q-89 -69 -164 -69q-66 0 -66 97q0 79 42 196q31 2 156 15t169 13
q11 0 11 5q0 4 -10 4q-49 0 -139.5 0.5t-171.5 0.5q44 107 66 107q7 0 7 -19q0 -6 6 -6q13 0 13 13q0 9 -8 16t-22 7q-18 0 -45 -33t-55 -85h-32q-20 0 -20 -11q0 -8 8.5 -15.5t24.5 -10.5q-60 -129 -60 -225q0 -122 108 -122q88 0 189 101q10 -31 18.5 -48.5t25.5 -32.5
t40 -15z" />
    <glyph glyph-name="quotesingle" unicode="'" 
d="M818 191q22 0 43 19.5t31 39.5l10 19q-1 -4 -4 -11.5t-13 -26.5t-22 -34t-33 -28.5t-44 -16.5q-118 -116 -284 -116q-168 0 -286.5 118.5t-118.5 285.5q0 34 7 76q-31 -22 -62 -53q9 16 23 37.5t49.5 64t74.5 74.5t97 57.5t117 25.5q55 0 55 -32q0 -22 -25 -61.5t-60 -86
t-70.5 -95.5t-60.5 -101t-25 -92q0 -29 17.5 -48t44.5 -19q24 0 43.5 18t19.5 39q0 5 -5 5q-3 -1 -11 -1q-29 0 -29 36q0 44 51 126.5t102 161.5t51 114q0 27 -20.5 46.5t-59.5 19.5q-159 0 -289 -146q49 108 148.5 173.5t221.5 65.5q167 0 285.5 -118.5t118.5 -286.5
q0 -107 -54 -202q-13 -5 -21 -5q-54 0 -76 76q62 68 105 144q3 6 3 9t-2 3q-4 0 -8 -8q-39 -72 -103 -130q-3 13 -9 41t-9.5 42.5t-11 32.5t-19 26t-26.5 8q-42 0 -61 -51q0 -4 3 -4q45 0 68 -29.5t42 -84.5q-89 -69 -164 -69q-66 0 -66 97q0 79 42 196q31 2 156 15t169 13
q11 0 11 5q0 4 -10 4q-49 0 -139.5 0.5t-171.5 0.5q44 107 66 107q7 0 7 -19q0 -6 6 -6q13 0 13 13q0 9 -8 16t-22 7q-18 0 -45 -33t-55 -85h-32q-20 0 -20 -11q0 -8 8.5 -15.5t24.5 -10.5q-60 -129 -60 -225q0 -122 108 -122q88 0 189 101q10 -31 18.5 -48.5t25.5 -32.5
t40 -15z" />
    <glyph glyph-name="parenleft" unicode="(" 
d="M818 191q22 0 43 19.5t31 39.5l10 19q-1 -4 -4 -11.5t-13 -26.5t-22 -34t-33 -28.5t-44 -16.5q-118 -116 -284 -116q-168 0 -286.5 118.5t-118.5 285.5q0 34 7 76q-31 -22 -62 -53q9 16 23 37.5t49.5 64t74.5 74.5t97 57.5t117 25.5q55 0 55 -32q0 -22 -25 -61.5t-60 -86
t-70.5 -95.5t-60.5 -101t-25 -92q0 -29 17.5 -48t44.5 -19q24 0 43.5 18t19.5 39q0 5 -5 5q-3 -1 -11 -1q-29 0 -29 36q0 44 51 126.5t102 161.5t51 114q0 27 -20.5 46.5t-59.5 19.5q-159 0 -289 -146q49 108 148.5 173.5t221.5 65.5q167 0 285.5 -118.5t118.5 -286.5
q0 -107 -54 -202q-13 -5 -21 -5q-54 0 -76 76q62 68 105 144q3 6 3 9t-2 3q-4 0 -8 -8q-39 -72 -103 -130q-3 13 -9 41t-9.5 42.5t-11 32.5t-19 26t-26.5 8q-42 0 -61 -51q0 -4 3 -4q45 0 68 -29.5t42 -84.5q-89 -69 -164 -69q-66 0 -66 97q0 79 42 196q31 2 156 15t169 13
q11 0 11 5q0 4 -10 4q-49 0 -139.5 0.5t-171.5 0.5q44 107 66 107q7 0 7 -19q0 -6 6 -6q13 0 13 13q0 9 -8 16t-22 7q-18 0 -45 -33t-55 -85h-32q-20 0 -20 -11q0 -8 8.5 -15.5t24.5 -10.5q-60 -129 -60 -225q0 -122 108 -122q88 0 189 101q10 -31 18.5 -48.5t25.5 -32.5
t40 -15z" />
    <glyph glyph-name="parenright" unicode=")" 
d="M818 191q22 0 43 19.5t31 39.5l10 19q-1 -4 -4 -11.5t-13 -26.5t-22 -34t-33 -28.5t-44 -16.5q-118 -116 -284 -116q-168 0 -286.5 118.5t-118.5 285.5q0 34 7 76q-31 -22 -62 -53q9 16 23 37.5t49.5 64t74.5 74.5t97 57.5t117 25.5q55 0 55 -32q0 -22 -25 -61.5t-60 -86
t-70.5 -95.5t-60.5 -101t-25 -92q0 -29 17.5 -48t44.5 -19q24 0 43.5 18t19.5 39q0 5 -5 5q-3 -1 -11 -1q-29 0 -29 36q0 44 51 126.5t102 161.5t51 114q0 27 -20.5 46.5t-59.5 19.5q-159 0 -289 -146q49 108 148.5 173.5t221.5 65.5q167 0 285.5 -118.5t118.5 -286.5
q0 -107 -54 -202q-13 -5 -21 -5q-54 0 -76 76q62 68 105 144q3 6 3 9t-2 3q-4 0 -8 -8q-39 -72 -103 -130q-3 13 -9 41t-9.5 42.5t-11 32.5t-19 26t-26.5 8q-42 0 -61 -51q0 -4 3 -4q45 0 68 -29.5t42 -84.5q-89 -69 -164 -69q-66 0 -66 97q0 79 42 196q31 2 156 15t169 13
q11 0 11 5q0 4 -10 4q-49 0 -139.5 0.5t-171.5 0.5q44 107 66 107q7 0 7 -19q0 -6 6 -6q13 0 13 13q0 9 -8 16t-22 7q-18 0 -45 -33t-55 -85h-32q-20 0 -20 -11q0 -8 8.5 -15.5t24.5 -10.5q-60 -129 -60 -225q0 -122 108 -122q88 0 189 101q10 -31 18.5 -48.5t25.5 -32.5
t40 -15z" />
    <glyph glyph-name="asterisk" unicode="*" 
d="M818 191q22 0 43 19.5t31 39.5l10 19q-1 -4 -4 -11.5t-13 -26.5t-22 -34t-33 -28.5t-44 -16.5q-118 -116 -284 -116q-168 0 -286.5 118.5t-118.5 285.5q0 34 7 76q-31 -22 -62 -53q9 16 23 37.5t49.5 64t74.5 74.5t97 57.5t117 25.5q55 0 55 -32q0 -22 -25 -61.5t-60 -86
t-70.5 -95.5t-60.5 -101t-25 -92q0 -29 17.5 -48t44.5 -19q24 0 43.5 18t19.5 39q0 5 -5 5q-3 -1 -11 -1q-29 0 -29 36q0 44 51 126.5t102 161.5t51 114q0 27 -20.5 46.5t-59.5 19.5q-159 0 -289 -146q49 108 148.5 173.5t221.5 65.5q167 0 285.5 -118.5t118.5 -286.5
q0 -107 -54 -202q-13 -5 -21 -5q-54 0 -76 76q62 68 105 144q3 6 3 9t-2 3q-4 0 -8 -8q-39 -72 -103 -130q-3 13 -9 41t-9.5 42.5t-11 32.5t-19 26t-26.5 8q-42 0 -61 -51q0 -4 3 -4q45 0 68 -29.5t42 -84.5q-89 -69 -164 -69q-66 0 -66 97q0 79 42 196q31 2 156 15t169 13
q11 0 11 5q0 4 -10 4q-49 0 -139.5 0.5t-171.5 0.5q44 107 66 107q7 0 7 -19q0 -6 6 -6q13 0 13 13q0 9 -8 16t-22 7q-18 0 -45 -33t-55 -85h-32q-20 0 -20 -11q0 -8 8.5 -15.5t24.5 -10.5q-60 -129 -60 -225q0 -122 108 -122q88 0 189 101q10 -31 18.5 -48.5t25.5 -32.5
t40 -15z" />
    <glyph glyph-name="plus" unicode="+" 
d="M818 191q22 0 43 19.5t31 39.5l10 19q-1 -4 -4 -11.5t-13 -26.5t-22 -34t-33 -28.5t-44 -16.5q-118 -116 -284 -116q-168 0 -286.5 118.5t-118.5 285.5q0 34 7 76q-31 -22 -62 -53q9 16 23 37.5t49.5 64t74.5 74.5t97 57.5t117 25.5q55 0 55 -32q0 -22 -25 -61.5t-60 -86
t-70.5 -95.5t-60.5 -101t-25 -92q0 -29 17.5 -48t44.5 -19q24 0 43.5 18t19.5 39q0 5 -5 5q-3 -1 -11 -1q-29 0 -29 36q0 44 51 126.5t102 161.5t51 114q0 27 -20.5 46.5t-59.5 19.5q-159 0 -289 -146q49 108 148.5 173.5t221.5 65.5q167 0 285.5 -118.5t118.5 -286.5
q0 -107 -54 -202q-13 -5 -21 -5q-54 0 -76 76q62 68 105 144q3 6 3 9t-2 3q-4 0 -8 -8q-39 -72 -103 -130q-3 13 -9 41t-9.5 42.5t-11 32.5t-19 26t-26.5 8q-42 0 -61 -51q0 -4 3 -4q45 0 68 -29.5t42 -84.5q-89 -69 -164 -69q-66 0 -66 97q0 79 42 196q31 2 156 15t169 13
q11 0 11 5q0 4 -10 4q-49 0 -139.5 0.5t-171.5 0.5q44 107 66 107q7 0 7 -19q0 -6 6 -6q13 0 13 13q0 9 -8 16t-22 7q-18 0 -45 -33t-55 -85h-32q-20 0 -20 -11q0 -8 8.5 -15.5t24.5 -10.5q-60 -129 -60 -225q0 -122 108 -122q88 0 189 101q10 -31 18.5 -48.5t25.5 -32.5
t40 -15z" />
    <glyph glyph-name="comma" unicode="," 
d="M818 191q22 0 43 19.5t31 39.5l10 19q-1 -4 -4 -11.5t-13 -26.5t-22 -34t-33 -28.5t-44 -16.5q-118 -116 -284 -116q-168 0 -286.5 118.5t-118.5 285.5q0 34 7 76q-31 -22 -62 -53q9 16 23 37.5t49.5 64t74.5 74.5t97 57.5t117 25.5q55 0 55 -32q0 -22 -25 -61.5t-60 -86
t-70.5 -95.5t-60.5 -101t-25 -92q0 -29 17.5 -48t44.5 -19q24 0 43.5 18t19.5 39q0 5 -5 5q-3 -1 -11 -1q-29 0 -29 36q0 44 51 126.5t102 161.5t51 114q0 27 -20.5 46.5t-59.5 19.5q-159 0 -289 -146q49 108 148.5 173.5t221.5 65.5q167 0 285.5 -118.5t118.5 -286.5
q0 -107 -54 -202q-13 -5 -21 -5q-54 0 -76 76q62 68 105 144q3 6 3 9t-2 3q-4 0 -8 -8q-39 -72 -103 -130q-3 13 -9 41t-9.5 42.5t-11 32.5t-19 26t-26.5 8q-42 0 -61 -51q0 -4 3 -4q45 0 68 -29.5t42 -84.5q-89 -69 -164 -69q-66 0 -66 97q0 79 42 196q31 2 156 15t169 13
q11 0 11 5q0 4 -10 4q-49 0 -139.5 0.5t-171.5 0.5q44 107 66 107q7 0 7 -19q0 -6 6 -6q13 0 13 13q0 9 -8 16t-22 7q-18 0 -45 -33t-55 -85h-32q-20 0 -20 -11q0 -8 8.5 -15.5t24.5 -10.5q-60 -129 -60 -225q0 -122 108 -122q88 0 189 101q10 -31 18.5 -48.5t25.5 -32.5
t40 -15z" />
    <glyph glyph-name="hyphen" unicode="-" 
d="M818 191q22 0 43 19.5t31 39.5l10 19q-1 -4 -4 -11.5t-13 -26.5t-22 -34t-33 -28.5t-44 -16.5q-118 -116 -284 -116q-168 0 -286.5 118.5t-118.5 285.5q0 34 7 76q-31 -22 -62 -53q9 16 23 37.5t49.5 64t74.5 74.5t97 57.5t117 25.5q55 0 55 -32q0 -22 -25 -61.5t-60 -86
t-70.5 -95.5t-60.5 -101t-25 -92q0 -29 17.5 -48t44.5 -19q24 0 43.5 18t19.5 39q0 5 -5 5q-3 -1 -11 -1q-29 0 -29 36q0 44 51 126.5t102 161.5t51 114q0 27 -20.5 46.5t-59.5 19.5q-159 0 -289 -146q49 108 148.5 173.5t221.5 65.5q167 0 285.5 -118.5t118.5 -286.5
q0 -107 -54 -202q-13 -5 -21 -5q-54 0 -76 76q62 68 105 144q3 6 3 9t-2 3q-4 0 -8 -8q-39 -72 -103 -130q-3 13 -9 41t-9.5 42.5t-11 32.5t-19 26t-26.5 8q-42 0 -61 -51q0 -4 3 -4q45 0 68 -29.5t42 -84.5q-89 -69 -164 -69q-66 0 -66 97q0 79 42 196q31 2 156 15t169 13
q11 0 11 5q0 4 -10 4q-49 0 -139.5 0.5t-171.5 0.5q44 107 66 107q7 0 7 -19q0 -6 6 -6q13 0 13 13q0 9 -8 16t-22 7q-18 0 -45 -33t-55 -85h-32q-20 0 -20 -11q0 -8 8.5 -15.5t24.5 -10.5q-60 -129 -60 -225q0 -122 108 -122q88 0 189 101q10 -31 18.5 -48.5t25.5 -32.5
t40 -15z" />
    <glyph glyph-name="period" unicode="." 
d="M818 191q22 0 43 19.5t31 39.5l10 19q-1 -4 -4 -11.5t-13 -26.5t-22 -34t-33 -28.5t-44 -16.5q-118 -116 -284 -116q-168 0 -286.5 118.5t-118.5 285.5q0 34 7 76q-31 -22 -62 -53q9 16 23 37.5t49.5 64t74.5 74.5t97 57.5t117 25.5q55 0 55 -32q0 -22 -25 -61.5t-60 -86
t-70.5 -95.5t-60.5 -101t-25 -92q0 -29 17.5 -48t44.5 -19q24 0 43.5 18t19.5 39q0 5 -5 5q-3 -1 -11 -1q-29 0 -29 36q0 44 51 126.5t102 161.5t51 114q0 27 -20.5 46.5t-59.5 19.5q-159 0 -289 -146q49 108 148.5 173.5t221.5 65.5q167 0 285.5 -118.5t118.5 -286.5
q0 -107 -54 -202q-13 -5 -21 -5q-54 0 -76 76q62 68 105 144q3 6 3 9t-2 3q-4 0 -8 -8q-39 -72 -103 -130q-3 13 -9 41t-9.5 42.5t-11 32.5t-19 26t-26.5 8q-42 0 -61 -51q0 -4 3 -4q45 0 68 -29.5t42 -84.5q-89 -69 -164 -69q-66 0 -66 97q0 79 42 196q31 2 156 15t169 13
q11 0 11 5q0 4 -10 4q-49 0 -139.5 0.5t-171.5 0.5q44 107 66 107q7 0 7 -19q0 -6 6 -6q13 0 13 13q0 9 -8 16t-22 7q-18 0 -45 -33t-55 -85h-32q-20 0 -20 -11q0 -8 8.5 -15.5t24.5 -10.5q-60 -129 -60 -225q0 -122 108 -122q88 0 189 101q10 -31 18.5 -48.5t25.5 -32.5
t40 -15z" />
    <glyph glyph-name="slash" unicode="/" 
d="M818 191q22 0 43 19.5t31 39.5l10 19q-1 -4 -4 -11.5t-13 -26.5t-22 -34t-33 -28.5t-44 -16.5q-118 -116 -284 -116q-168 0 -286.5 118.5t-118.5 285.5q0 34 7 76q-31 -22 -62 -53q9 16 23 37.5t49.5 64t74.5 74.5t97 57.5t117 25.5q55 0 55 -32q0 -22 -25 -61.5t-60 -86
t-70.5 -95.5t-60.5 -101t-25 -92q0 -29 17.5 -48t44.5 -19q24 0 43.5 18t19.5 39q0 5 -5 5q-3 -1 -11 -1q-29 0 -29 36q0 44 51 126.5t102 161.5t51 114q0 27 -20.5 46.5t-59.5 19.5q-159 0 -289 -146q49 108 148.5 173.5t221.5 65.5q167 0 285.5 -118.5t118.5 -286.5
q0 -107 -54 -202q-13 -5 -21 -5q-54 0 -76 76q62 68 105 144q3 6 3 9t-2 3q-4 0 -8 -8q-39 -72 -103 -130q-3 13 -9 41t-9.5 42.5t-11 32.5t-19 26t-26.5 8q-42 0 -61 -51q0 -4 3 -4q45 0 68 -29.5t42 -84.5q-89 -69 -164 -69q-66 0 -66 97q0 79 42 196q31 2 156 15t169 13
q11 0 11 5q0 4 -10 4q-49 0 -139.5 0.5t-171.5 0.5q44 107 66 107q7 0 7 -19q0 -6 6 -6q13 0 13 13q0 9 -8 16t-22 7q-18 0 -45 -33t-55 -85h-32q-20 0 -20 -11q0 -8 8.5 -15.5t24.5 -10.5q-60 -129 -60 -225q0 -122 108 -122q88 0 189 101q10 -31 18.5 -48.5t25.5 -32.5
t40 -15z" />
    <glyph glyph-name="zero" unicode="0" horiz-adv-x="500" 
d="M322 717q64 0 122 -66.5t58 -176.5q0 -99 -30.5 -191t-77.5 -154t-102.5 -99t-107.5 -37q-61 0 -96.5 70t-35.5 160q0 103 25.5 197.5t65.5 158t87.5 101t91.5 37.5zM149 44q68 0 134.5 67t109 178t42.5 230q0 67 -13.5 96t-49.5 29q-56 0 -116.5 -68.5t-102 -178.5
t-41.5 -218q0 -135 37 -135z" />
    <glyph glyph-name="one" unicode="1" horiz-adv-x="500" 
d="M356 728q20 0 42 -23.5t22 -41.5q0 -20 -116.5 -346.5t-130.5 -326.5q-12 0 -20.5 16.5t-8.5 40.5q0 41 53 219t107 333q-110 -51 -122 -51t-12 6q0 8 85.5 91t100.5 83z" />
    <glyph glyph-name="two" unicode="2" horiz-adv-x="500" 
d="M293 268q-52 -40 -120.5 -107t-97.5 -106q129 18 241 18q19 0 42.5 -25.5t23.5 -35.5q0 -17 -139 -17q-34 0 -82 1t-81.5 2.5t-34.5 1.5q-10 0 -21.5 23.5t-11.5 46.5q0 32 57 101t158 152q120 99 167 159.5t47 112.5q0 67 -68 67q-39 0 -71.5 -13t-52.5 -25.5t-28 -12.5
q-18 0 -34 11t-16 23q0 25 47.5 54t108.5 29q77 0 125.5 -58.5t48.5 -132.5q0 -36 -14.5 -70t-46.5 -69t-63 -62t-84 -68z" />
    <glyph glyph-name="three" unicode="3" horiz-adv-x="500" 
d="M493 566q0 -78 -47.5 -134t-99.5 -65q82 -77 82 -179q0 -78 -50.5 -135.5t-131.5 -57.5q-84 0 -156.5 69t-72.5 122q0 11 6 11t20 -21t31.5 -45.5t50.5 -45.5t71 -21q156 0 156 175q0 82 -51 112q-21 -6 -27 -6q-13 0 -31 19t-18 37q0 5 8.5 9.5t18.5 4.5q24 0 56 -19
q52 22 89.5 83.5t37.5 139.5q0 17 -19 32.5t-48 15.5q-31 0 -68.5 -21.5t-65.5 -43t-35 -21.5t-17 9.5t-10 17.5q0 28 52 69t105 41q57 0 110.5 -50.5t53.5 -101.5z" />
    <glyph glyph-name="four" unicode="4" horiz-adv-x="500" 
d="M496 251q0 -10 -139 -10q-74 -242 -86 -242q-16 0 -30.5 24.5t-14.5 44.5q0 13 44 175h-195q-31 0 -49 22.5t-18 44.5t193.5 214.5t212.5 192.5q13 0 34 -22t21 -44q0 -30 -92 -343h50q18 0 43.5 -21.5t25.5 -35.5zM103 310q97 -1 186 -1l80 286z" />
    <glyph glyph-name="five" unicode="5" horiz-adv-x="500" 
d="M507 668q0 -32 -220 -32l-63 -154q54 0 105.5 -25.5t87.5 -78t36 -120.5q0 -110 -58.5 -187.5t-152.5 -77.5q-37 0 -72 11.5t-60 28.5t-44.5 35.5t-29 32t-9.5 18.5q0 13 8 13q15 0 39.5 -18t57 -36t68.5 -18q88 0 144 63.5t56 164.5q0 44 -18.5 71.5t-48 38.5
t-59.5 16.5t-59.5 13t-42.5 20.5q-12 13 -12 32q0 28 29 114.5t39 96.5t80 10h36q53 0 90.5 -4.5t55 -12t17.5 -16.5z" />
    <glyph glyph-name="six" unicode="6" horiz-adv-x="500" 
d="M391 715q32 0 63.5 -15t48 -31t16.5 -24q0 -7 -11 -7q-1 0 -27 20t-46 20q-43 0 -106.5 -54.5t-123.5 -146t-87 -186.5q37 77 98.5 127.5t108.5 50.5q41 0 87.5 -44t46.5 -120q0 -57 -31 -129.5t-85 -126.5t-108 -54q-86 0 -138 65t-52 157q0 83 49.5 199.5t132.5 207.5
t164 91zM371 401q-88 0 -178 -86.5t-93 -176.5q3 -29 11 -47.5t20 -25.5t21 -9t23 -2q78 0 148 102t70 196q0 49 -22 49z" />
    <glyph glyph-name="seven" unicode="7" horiz-adv-x="500" 
d="M455 715q15 -2 36 -21t21 -34q0 -4 -26 -42t-77.5 -116.5t-97.5 -154.5q-59 -99 -105.5 -189t-63.5 -127t-19 -37q-19 0 -19 26q0 102 96 289t196 333q-90 7 -177.5 19t-87.5 26q0 8 81 15t162 10z" />
    <glyph glyph-name="eight" unicode="8" horiz-adv-x="500" 
d="M478 579q0 -30 -24.5 -63t-51.5 -55.5t-78 -60.5q27 -40 43 -68t30 -70.5t14 -83.5q0 -83 -53 -138.5t-132 -55.5q-77 0 -134 64.5t-57 142.5q0 58 54.5 118.5t151.5 135.5q-47 78 -47 146q0 54 47.5 87.5t110.5 33.5q44 0 85 -44t41 -89zM360 218q0 26 -11.5 55.5
t-23.5 49t-36 52.5q-43 -32 -71 -55t-58 -55.5t-45 -66.5t-15 -71t24 -59t65 -22q44 0 78.5 17.5t54 45t29 55.5t9.5 54zM277 472q38 30 55.5 44t42 36t34 37t9.5 28q0 25 -20 42.5t-55 17.5q-39 0 -71 -29.5t-32 -71.5q0 -43 37 -104z" />
    <glyph glyph-name="nine" unicode="9" horiz-adv-x="500" 
d="M154 -5q-32 0 -63.5 15t-48 31t-16.5 24q0 7 11 7q1 0 26.5 -20t45.5 -20q68 0 172.5 122t145.5 265q-37 -77 -98.5 -127.5t-108.5 -50.5q-42 0 -88 44t-46 119q0 57 31 129.5t85 127t108 54.5q86 0 138 -65t52 -158q0 -83 -49.5 -199t-132.5 -207t-164 -91zM174 309
q87 0 177.5 86.5t93.5 176.5q-3 29 -11 47t-20 25t-21 9t-23 2q-78 0 -148 -101.5t-70 -195.5q0 -49 22 -49z" />
    <glyph glyph-name="colon" unicode=":" 
d="M818 191q22 0 43 19.5t31 39.5l10 19q-1 -4 -4 -11.5t-13 -26.5t-22 -34t-33 -28.5t-44 -16.5q-118 -116 -284 -116q-168 0 -286.5 118.5t-118.5 285.5q0 34 7 76q-31 -22 -62 -53q9 16 23 37.5t49.5 64t74.5 74.5t97 57.5t117 25.5q55 0 55 -32q0 -22 -25 -61.5t-60 -86
t-70.5 -95.5t-60.5 -101t-25 -92q0 -29 17.5 -48t44.5 -19q24 0 43.5 18t19.5 39q0 5 -5 5q-3 -1 -11 -1q-29 0 -29 36q0 44 51 126.5t102 161.5t51 114q0 27 -20.5 46.5t-59.5 19.5q-159 0 -289 -146q49 108 148.5 173.5t221.5 65.5q167 0 285.5 -118.5t118.5 -286.5
q0 -107 -54 -202q-13 -5 -21 -5q-54 0 -76 76q62 68 105 144q3 6 3 9t-2 3q-4 0 -8 -8q-39 -72 -103 -130q-3 13 -9 41t-9.5 42.5t-11 32.5t-19 26t-26.5 8q-42 0 -61 -51q0 -4 3 -4q45 0 68 -29.5t42 -84.5q-89 -69 -164 -69q-66 0 -66 97q0 79 42 196q31 2 156 15t169 13
q11 0 11 5q0 4 -10 4q-49 0 -139.5 0.5t-171.5 0.5q44 107 66 107q7 0 7 -19q0 -6 6 -6q13 0 13 13q0 9 -8 16t-22 7q-18 0 -45 -33t-55 -85h-32q-20 0 -20 -11q0 -8 8.5 -15.5t24.5 -10.5q-60 -129 -60 -225q0 -122 108 -122q88 0 189 101q10 -31 18.5 -48.5t25.5 -32.5
t40 -15z" />
    <glyph glyph-name="semicolon" unicode=";" 
d="M818 191q22 0 43 19.5t31 39.5l10 19q-1 -4 -4 -11.5t-13 -26.5t-22 -34t-33 -28.5t-44 -16.5q-118 -116 -284 -116q-168 0 -286.5 118.5t-118.5 285.5q0 34 7 76q-31 -22 -62 -53q9 16 23 37.5t49.5 64t74.5 74.5t97 57.5t117 25.5q55 0 55 -32q0 -22 -25 -61.5t-60 -86
t-70.5 -95.5t-60.5 -101t-25 -92q0 -29 17.5 -48t44.5 -19q24 0 43.5 18t19.5 39q0 5 -5 5q-3 -1 -11 -1q-29 0 -29 36q0 44 51 126.5t102 161.5t51 114q0 27 -20.5 46.5t-59.5 19.5q-159 0 -289 -146q49 108 148.5 173.5t221.5 65.5q167 0 285.5 -118.5t118.5 -286.5
q0 -107 -54 -202q-13 -5 -21 -5q-54 0 -76 76q62 68 105 144q3 6 3 9t-2 3q-4 0 -8 -8q-39 -72 -103 -130q-3 13 -9 41t-9.5 42.5t-11 32.5t-19 26t-26.5 8q-42 0 -61 -51q0 -4 3 -4q45 0 68 -29.5t42 -84.5q-89 -69 -164 -69q-66 0 -66 97q0 79 42 196q31 2 156 15t169 13
q11 0 11 5q0 4 -10 4q-49 0 -139.5 0.5t-171.5 0.5q44 107 66 107q7 0 7 -19q0 -6 6 -6q13 0 13 13q0 9 -8 16t-22 7q-18 0 -45 -33t-55 -85h-32q-20 0 -20 -11q0 -8 8.5 -15.5t24.5 -10.5q-60 -129 -60 -225q0 -122 108 -122q88 0 189 101q10 -31 18.5 -48.5t25.5 -32.5
t40 -15z" />
    <glyph glyph-name="less" unicode="&#x3c;" 
d="M818 191q22 0 43 19.5t31 39.5l10 19q-1 -4 -4 -11.5t-13 -26.5t-22 -34t-33 -28.5t-44 -16.5q-118 -116 -284 -116q-168 0 -286.5 118.5t-118.5 285.5q0 34 7 76q-31 -22 -62 -53q9 16 23 37.5t49.5 64t74.5 74.5t97 57.5t117 25.5q55 0 55 -32q0 -22 -25 -61.5t-60 -86
t-70.5 -95.5t-60.5 -101t-25 -92q0 -29 17.5 -48t44.5 -19q24 0 43.5 18t19.5 39q0 5 -5 5q-3 -1 -11 -1q-29 0 -29 36q0 44 51 126.5t102 161.5t51 114q0 27 -20.5 46.5t-59.5 19.5q-159 0 -289 -146q49 108 148.5 173.5t221.5 65.5q167 0 285.5 -118.5t118.5 -286.5
q0 -107 -54 -202q-13 -5 -21 -5q-54 0 -76 76q62 68 105 144q3 6 3 9t-2 3q-4 0 -8 -8q-39 -72 -103 -130q-3 13 -9 41t-9.5 42.5t-11 32.5t-19 26t-26.5 8q-42 0 -61 -51q0 -4 3 -4q45 0 68 -29.5t42 -84.5q-89 -69 -164 -69q-66 0 -66 97q0 79 42 196q31 2 156 15t169 13
q11 0 11 5q0 4 -10 4q-49 0 -139.5 0.5t-171.5 0.5q44 107 66 107q7 0 7 -19q0 -6 6 -6q13 0 13 13q0 9 -8 16t-22 7q-18 0 -45 -33t-55 -85h-32q-20 0 -20 -11q0 -8 8.5 -15.5t24.5 -10.5q-60 -129 -60 -225q0 -122 108 -122q88 0 189 101q10 -31 18.5 -48.5t25.5 -32.5
t40 -15z" />
    <glyph glyph-name="equal" unicode="=" 
d="M818 191q22 0 43 19.5t31 39.5l10 19q-1 -4 -4 -11.5t-13 -26.5t-22 -34t-33 -28.5t-44 -16.5q-118 -116 -284 -116q-168 0 -286.5 118.5t-118.5 285.5q0 34 7 76q-31 -22 -62 -53q9 16 23 37.5t49.5 64t74.5 74.5t97 57.5t117 25.5q55 0 55 -32q0 -22 -25 -61.5t-60 -86
t-70.5 -95.5t-60.5 -101t-25 -92q0 -29 17.5 -48t44.5 -19q24 0 43.5 18t19.5 39q0 5 -5 5q-3 -1 -11 -1q-29 0 -29 36q0 44 51 126.5t102 161.5t51 114q0 27 -20.5 46.5t-59.5 19.5q-159 0 -289 -146q49 108 148.5 173.5t221.5 65.5q167 0 285.5 -118.5t118.5 -286.5
q0 -107 -54 -202q-13 -5 -21 -5q-54 0 -76 76q62 68 105 144q3 6 3 9t-2 3q-4 0 -8 -8q-39 -72 -103 -130q-3 13 -9 41t-9.5 42.5t-11 32.5t-19 26t-26.5 8q-42 0 -61 -51q0 -4 3 -4q45 0 68 -29.5t42 -84.5q-89 -69 -164 -69q-66 0 -66 97q0 79 42 196q31 2 156 15t169 13
q11 0 11 5q0 4 -10 4q-49 0 -139.5 0.5t-171.5 0.5q44 107 66 107q7 0 7 -19q0 -6 6 -6q13 0 13 13q0 9 -8 16t-22 7q-18 0 -45 -33t-55 -85h-32q-20 0 -20 -11q0 -8 8.5 -15.5t24.5 -10.5q-60 -129 -60 -225q0 -122 108 -122q88 0 189 101q10 -31 18.5 -48.5t25.5 -32.5
t40 -15z" />
    <glyph glyph-name="greater" unicode="&#x3e;" 
d="M818 191q22 0 43 19.5t31 39.5l10 19q-1 -4 -4 -11.5t-13 -26.5t-22 -34t-33 -28.5t-44 -16.5q-118 -116 -284 -116q-168 0 -286.5 118.5t-118.5 285.5q0 34 7 76q-31 -22 -62 -53q9 16 23 37.5t49.5 64t74.5 74.5t97 57.5t117 25.5q55 0 55 -32q0 -22 -25 -61.5t-60 -86
t-70.5 -95.5t-60.5 -101t-25 -92q0 -29 17.5 -48t44.5 -19q24 0 43.5 18t19.5 39q0 5 -5 5q-3 -1 -11 -1q-29 0 -29 36q0 44 51 126.5t102 161.5t51 114q0 27 -20.5 46.5t-59.5 19.5q-159 0 -289 -146q49 108 148.5 173.5t221.5 65.5q167 0 285.5 -118.5t118.5 -286.5
q0 -107 -54 -202q-13 -5 -21 -5q-54 0 -76 76q62 68 105 144q3 6 3 9t-2 3q-4 0 -8 -8q-39 -72 -103 -130q-3 13 -9 41t-9.5 42.5t-11 32.5t-19 26t-26.5 8q-42 0 -61 -51q0 -4 3 -4q45 0 68 -29.5t42 -84.5q-89 -69 -164 -69q-66 0 -66 97q0 79 42 196q31 2 156 15t169 13
q11 0 11 5q0 4 -10 4q-49 0 -139.5 0.5t-171.5 0.5q44 107 66 107q7 0 7 -19q0 -6 6 -6q13 0 13 13q0 9 -8 16t-22 7q-18 0 -45 -33t-55 -85h-32q-20 0 -20 -11q0 -8 8.5 -15.5t24.5 -10.5q-60 -129 -60 -225q0 -122 108 -122q88 0 189 101q10 -31 18.5 -48.5t25.5 -32.5
t40 -15z" />
    <glyph glyph-name="question" unicode="?" 
d="M818 191q22 0 43 19.5t31 39.5l10 19q-1 -4 -4 -11.5t-13 -26.5t-22 -34t-33 -28.5t-44 -16.5q-118 -116 -284 -116q-168 0 -286.5 118.5t-118.5 285.5q0 34 7 76q-31 -22 -62 -53q9 16 23 37.5t49.5 64t74.5 74.5t97 57.5t117 25.5q55 0 55 -32q0 -22 -25 -61.5t-60 -86
t-70.5 -95.5t-60.5 -101t-25 -92q0 -29 17.5 -48t44.5 -19q24 0 43.5 18t19.5 39q0 5 -5 5q-3 -1 -11 -1q-29 0 -29 36q0 44 51 126.5t102 161.5t51 114q0 27 -20.5 46.5t-59.5 19.5q-159 0 -289 -146q49 108 148.5 173.5t221.5 65.5q167 0 285.5 -118.5t118.5 -286.5
q0 -107 -54 -202q-13 -5 -21 -5q-54 0 -76 76q62 68 105 144q3 6 3 9t-2 3q-4 0 -8 -8q-39 -72 -103 -130q-3 13 -9 41t-9.5 42.5t-11 32.5t-19 26t-26.5 8q-42 0 -61 -51q0 -4 3 -4q45 0 68 -29.5t42 -84.5q-89 -69 -164 -69q-66 0 -66 97q0 79 42 196q31 2 156 15t169 13
q11 0 11 5q0 4 -10 4q-49 0 -139.5 0.5t-171.5 0.5q44 107 66 107q7 0 7 -19q0 -6 6 -6q13 0 13 13q0 9 -8 16t-22 7q-18 0 -45 -33t-55 -85h-32q-20 0 -20 -11q0 -8 8.5 -15.5t24.5 -10.5q-60 -129 -60 -225q0 -122 108 -122q88 0 189 101q10 -31 18.5 -48.5t25.5 -32.5
t40 -15z" />
    <glyph glyph-name="at" unicode="@" 
d="M818 191q22 0 43 19.5t31 39.5l10 19q-1 -4 -4 -11.5t-13 -26.5t-22 -34t-33 -28.5t-44 -16.5q-118 -116 -284 -116q-168 0 -286.5 118.5t-118.5 285.5q0 34 7 76q-31 -22 -62 -53q9 16 23 37.5t49.5 64t74.5 74.5t97 57.5t117 25.5q55 0 55 -32q0 -22 -25 -61.5t-60 -86
t-70.5 -95.5t-60.5 -101t-25 -92q0 -29 17.5 -48t44.5 -19q24 0 43.5 18t19.5 39q0 5 -5 5q-3 -1 -11 -1q-29 0 -29 36q0 44 51 126.5t102 161.5t51 114q0 27 -20.5 46.5t-59.5 19.5q-159 0 -289 -146q49 108 148.5 173.5t221.5 65.5q167 0 285.5 -118.5t118.5 -286.5
q0 -107 -54 -202q-13 -5 -21 -5q-54 0 -76 76q62 68 105 144q3 6 3 9t-2 3q-4 0 -8 -8q-39 -72 -103 -130q-3 13 -9 41t-9.5 42.5t-11 32.5t-19 26t-26.5 8q-42 0 -61 -51q0 -4 3 -4q45 0 68 -29.5t42 -84.5q-89 -69 -164 -69q-66 0 -66 97q0 79 42 196q31 2 156 15t169 13
q11 0 11 5q0 4 -10 4q-49 0 -139.5 0.5t-171.5 0.5q44 107 66 107q7 0 7 -19q0 -6 6 -6q13 0 13 13q0 9 -8 16t-22 7q-18 0 -45 -33t-55 -85h-32q-20 0 -20 -11q0 -8 8.5 -15.5t24.5 -10.5q-60 -129 -60 -225q0 -122 108 -122q88 0 189 101q10 -31 18.5 -48.5t25.5 -32.5
t40 -15z" />
    <glyph glyph-name="A" unicode="A" horiz-adv-x="541" 
d="M501 313q0 -16 -25.5 -34t-57.5 -26q-1 -29 -1 -59q0 -57 -9 -125.5t-24 -68.5q-20 0 -34 245q-88 -7 -145 -9q-130 -246 -143 -246q-12 0 -20.5 16.5t-8.5 40.5q0 37 154.5 359t167.5 322q16 0 34.5 -17t26.5 -36q10 -23 10 -143q0 -46 -5 -208q40 4 58 4q22 0 22 -15z
M239 301q46 8 108 15q-4 96 -6 184q-57 -114 -102 -199z" />
    <glyph glyph-name="B" unicode="B" horiz-adv-x="563" 
d="M432 350q79 -64 79 -155q0 -108 -73.5 -171t-208.5 -63q-35 0 -70 8.5t-64 32t-29 57.5q0 40 70 268q-25 31 -25 60q0 23 54 34q32 98 47 141q-22 -8 -45 -16.5t-34.5 -13t-12.5 -4.5q-7 0 -21 12.5t-14 26.5q0 4 19.5 18.5t58.5 35.5t82 35q28 72 32 72q16 0 34 -16.5
t26 -34.5q28 2 43 2q51 0 91.5 -41.5t40.5 -89.5q0 -113 -80 -198zM439 611q-49 0 -119 -17q-5 -14 -54 -158l-4 -12q48 -6 97 -28q85 90 85 209q0 6 -5 6zM227 325q47 4 91 36q-37 14 -72 18q-12 -36 -19 -54zM150 372q-11 -6 -11 -10q0 -2 5 -9q4 12 6 19zM173 33
q262 0 262 223q0 25 -41 60q-66 -51 -133 -54h-8q-31 0 -45 9l-4 -11q-66 -177 -83 -216q25 -11 52 -11z" />
    <glyph glyph-name="C" unicode="C" horiz-adv-x="458" 
d="M460 600q0 -3 -2.5 -6t-4.5 -3q-1 0 -32.5 18.5t-54.5 18.5q-78 0 -134 -69.5t-82 -174.5t-26 -230q0 -33 4.5 -55t9.5 -28.5t9 -6.5q39 0 101 36.5t109.5 73t51.5 36.5q7 0 12.5 -6t5.5 -14q0 -9 -22.5 -40.5t-55.5 -66.5t-77 -62.5t-79 -27.5q-76 0 -116.5 65
t-40.5 176q0 123 37 234.5t99.5 179t132.5 67.5q57 0 106 -46t49 -69z" />
    <glyph glyph-name="D" unicode="D" horiz-adv-x="562" 
d="M346 682q97 0 154.5 -86t57.5 -200q0 -67 -23.5 -139.5t-62.5 -132t-95.5 -98.5t-116.5 -39q-83 0 -133.5 18t-50.5 52q0 13 59.5 218.5t95.5 309.5q-6 -3 -18.5 -9t-18.5 -8.5t-16 -6t-19 -5t-19 -1.5t-31.5 17t-21.5 28q0 12 56 35.5t120 37.5q21 55 25 55q14 0 31 -14
t27 -32zM199 37q114 0 203 125t89 300q0 94 -26.5 123t-86.5 29q-28 0 -41 -1q-34 -106 -98 -287t-102 -273q32 -16 62 -16z" />
    <glyph glyph-name="E" unicode="E" horiz-adv-x="485" 
d="M532 696q19 -2 19 -17q-2 -18 -34 -35t-64 -18q-27 -1 -150 -1q-30 -93 -86 -245q81 10 179 10h17q16 -2 16 -17q-2 -19 -30 -36t-56 -19q-44 -2 -121 -2h-29q-62 -171 -100 -256q76 15 217 15q35 0 40 -1q19 -2 19 -17q-2 -19 -34 -36t-64 -18h-22q-29 0 -93 1t-73 1
q-18 0 -31 12t-13 30q0 44 59.5 241t112.5 347q-21 11 -21 24q2 12 38 20q19 49 22 49q28 0 54 -38q87 7 182 7q41 0 46 -1z" />
    <glyph glyph-name="F" unicode="F" horiz-adv-x="520" 
d="M529 696q19 -2 19 -17q-2 -18 -34 -35t-64 -18q-27 -1 -149 -1q-23 -72 -83 -245q80 10 176 10h16q16 -2 16 -17q-2 -19 -30 -36t-56 -19q-42 -2 -117 -2h-28q-117 -326 -131 -326q-11 0 -19.5 16.5t-8.5 40.5q0 44 59.5 241t112.5 347q-21 11 -21 24q2 12 38 20
q19 49 22 49q28 0 54 -38q87 7 182 7q41 0 46 -1z" />
    <glyph glyph-name="G" unicode="G" horiz-adv-x="500" 
d="M486 354q0 -24 -21 -92.5t-34 -88.5q-31 -53 -100.5 -116.5t-127.5 -63.5q-76 0 -116.5 65t-40.5 176q0 123 37 234.5t99.5 179t132.5 67.5q57 0 106 -46t49 -69q0 -9 -7 -9q-1 0 -32.5 18.5t-54.5 18.5q-78 0 -134 -69.5t-82 -174.5t-26 -230q0 -33 4.5 -55t9.5 -28.5
t9 -6.5q30 0 77 24t73.5 43t71.5 52q5 4 13 10q8 10 14 38t8 47t2 25t-10 6q-4 0 -42.5 -4t-46.5 -4q-16 0 -42.5 21t-26.5 46q0 7 82 25t97 18q17 0 38 -22t21 -35z" />
    <glyph glyph-name="H" unicode="H" horiz-adv-x="520" 
d="M497 728q20 0 42 -23.5t22 -41.5q0 -21 -116 -347t-131 -326q-11 0 -20 16.5t-9 40.5q0 46 71 277q-15 -5 -28 -6q-42 -2 -117 -2h-28q-117 -326 -131 -326q-11 0 -19.5 16.5t-8.5 40.5q0 40 49.5 209t102 320.5t59.5 151.5q20 0 42 -23.5t22 -41.5q0 -15 -93 -283
q76 10 170 10q107 338 121 338z" />
    <glyph glyph-name="I" unicode="I" horiz-adv-x="354" 
d="M90 -10q-12 0 -20.5 16.5t-8.5 40.5q0 40 50 209t102.5 320.5t59.5 151.5q20 0 42 -23.5t22 -41.5q0 -20 -116.5 -346.5t-130.5 -326.5z" />
    <glyph glyph-name="J" unicode="J" horiz-adv-x="447" 
d="M419 663q0 -8 -102 -304q-22 -62 -34.5 -96.5t-33 -85t-36.5 -78.5t-36 -57t-40.5 -41.5t-42.5 -12.5q-36 0 -62 25.5t-37.5 61.5t-16.5 63t-5 42q0 6 5 6q6 0 13.5 -8t7.5 -16q0 -40 20 -81.5t35 -41.5q69 0 192 388q96 301 109 301q20 0 42 -23.5t22 -41.5z" />
    <glyph glyph-name="K" unicode="K" horiz-adv-x="562" 
d="M510 698q20 0 43 -21.5t23 -43.5q0 -10 -199 -192q-76 -69 -130 -109q40 -81 81.5 -178.5t41.5 -116.5q0 -39 -13 -39q-20 0 -77 89t-110 187q-101 -284 -115 -284q-12 0 -20.5 16.5t-8.5 40.5q0 40 50 209t102.5 320.5t59.5 151.5q20 0 42 -23.5t22 -41.5
q0 -12 -87 -264q12 13 120 121q34 34 79 81.5t69 72t27 24.5z" />
    <glyph glyph-name="L" unicode="L" horiz-adv-x="438" 
d="M337 74q19 -2 19 -17q-2 -19 -34 -36t-64 -18h-22q-29 0 -93 1t-73 1q-18 0 -31 12t-13 30q0 40 49.5 209t102 320.5t59.5 151.5q20 0 42 -23.5t22 -41.5q0 -15 -88 -258.5t-133 -344.5q76 15 217 15q35 0 40 -1z" />
    <glyph glyph-name="M" unicode="M" horiz-adv-x="604" 
d="M578 728q21 0 42.5 -23.5t21.5 -41.5q0 -21 -116.5 -347t-131.5 -326q-11 0 -19.5 16.5t-8.5 40.5q0 65 117 426q-35 -48 -75.5 -97.5t-65 -77.5t-26.5 -28q-21 0 -43 22.5t-22 38.5q0 21 -5 143q-61 -179 -118.5 -331.5t-67.5 -152.5q-11 0 -19.5 16.5t-8.5 40.5
q0 40 49.5 209t102 320.5t59.5 151.5q49 0 63 -57q15 -63 15 -244q244 301 257 301z" />
    <glyph glyph-name="N" unicode="N" horiz-adv-x="542" 
d="M503 728q20 0 42 -23.5t22 -41.5q0 -21 -116 -347t-131 -326q-13 0 -32 37.5t-19 72.5q0 37 -22 382q-61 -179 -120 -335.5t-69 -156.5q-11 0 -19.5 16.5t-8.5 40.5q0 40 49.5 209t102 320.5t59.5 151.5q21 0 42.5 -22t21.5 -43q0 -6 4 -78t10.5 -183.5t10.5 -183.5
q43 152 104 331t69 179z" />
    <glyph glyph-name="O" unicode="O" horiz-adv-x="522" 
d="M239 719q13 0 24 -18t11 -33q0 -8 -24 -60.5t-53 -118t-53 -156.5t-24 -167q0 -42 12 -73.5t24 -31.5q62 0 135 83.5t124.5 214.5t51.5 252q0 45 -9 45q-32 0 -63 -14.5t-53 -35t-39 -40.5t-26 -34.5t-10 -14.5q-9 0 -9 6q0 12 26 57.5t67 89.5t71 44q38 0 72.5 -37
t34.5 -123q0 -94 -32.5 -197.5t-79.5 -181.5t-100.5 -129.5t-93.5 -51.5q-12 0 -29 4.5t-42 19.5t-45.5 38.5t-35 67t-14.5 98.5q0 91 36 212t79.5 203t66.5 82z" />
    <glyph glyph-name="P" unicode="P" horiz-adv-x="500" 
d="M362 679q51 0 91.5 -41.5t40.5 -89.5q0 -63 -28.5 -125.5t-70 -106t-87.5 -70.5t-82 -27q-28 0 -51 10q-88 -239 -100 -239q-11 0 -19.5 16.5t-8.5 40.5q0 21 61.5 234t85.5 281q-22 -8 -45 -16.5t-34.5 -13t-12.5 -4.5q-7 0 -21 12.5t-14 26.5q0 4 19.5 18.5t58.5 35.5
t82 35q26 72 31 72q16 0 34.5 -16.5t26.5 -34.5q28 2 43 2zM195 286q88 21 159.5 120.5t71.5 198.5q0 6 -5 6q-49 0 -119 -17q-40 -122 -107 -308z" />
    <glyph glyph-name="Q" unicode="Q" horiz-adv-x="547" 
d="M364 -64q8 0 8 -6q0 -2 -5 -5t-13 -5.5t-16 -2.5q-26 0 -70 33t-85 33q-16 0 -41.5 19t-28.5 40q-64 60 -64 180q0 91 36 212t79.5 203t66.5 82q13 0 24 -18t11 -33q0 -8 -24 -60.5t-53 -118t-53 -156.5t-24 -167q0 -42 12 -73.5t24 -31.5q62 0 135 83.5t124.5 214.5
t51.5 252q0 45 -9 45q-32 0 -63 -14.5t-53 -35t-39 -40.5t-26 -34.5t-10 -14.5q-9 0 -9 6q0 12 26 57.5t67 89.5t71 44q38 0 72.5 -37t34.5 -123q0 -162 -86 -329t-175 -217q18 -12 43 -32t39 -30t22 -10z" />
    <glyph glyph-name="R" unicode="R" horiz-adv-x="494" 
d="M485 548q0 -99 -62.5 -186.5t-140.5 -125.5q80 -176 80 -204q0 -39 -13 -39q-32 0 -161 229q-6 1 -23 7q-86 -239 -99 -239q-11 0 -20 16.5t-9 40.5q0 21 62 233.5t86 281.5l-93 -34q-7 0 -20.5 12.5t-13.5 26.5q0 4 19.5 18.5t58.5 35.5t82 35q26 72 31 72
q16 0 34.5 -16.5t26.5 -34.5q28 2 43 2q51 0 91.5 -41.5t40.5 -89.5zM247 312q70 43 120 128t50 165q0 6 -5 6q-49 0 -119 -17q-33 -102 -77 -223q9 -15 31 -59z" />
    <glyph glyph-name="S" unicode="S" horiz-adv-x="437" 
d="M469 610q0 -9 -7 -9q-20 0 -41 27.5t-33 27.5q-9 0 -33.5 -9t-57 -26.5t-56 -53t-23.5 -80.5q0 -13 24 -39t52 -54.5t52 -78.5t24 -106q0 -67 -63.5 -142.5t-127.5 -75.5q-60 0 -110 60.5t-50 92.5q0 9 6 22.5t11 13.5t20.5 -29t35.5 -58.5t37 -29.5q44 0 106 66.5
t62 132.5q0 39 -16 73t-38.5 58t-45 46t-38.5 48.5t-16 54.5q0 71 69.5 122.5t131.5 51.5q47 0 86 -43.5t39 -62.5z" />
    <glyph glyph-name="T" unicode="T" horiz-adv-x="500" 
d="M584 642q0 -12 -222 -24q-48 -150 -134.5 -389t-99.5 -239q-11 0 -20 16.5t-9 40.5q0 27 41 169.5t82 270.5l40 128q-67 0 -119 7t-72.5 14.5t-20.5 11.5q0 7 226 35t242 28t41 -22t25 -47z" />
    <glyph glyph-name="U" unicode="U" horiz-adv-x="506" 
d="M442 665v9q0 15 6 15q14 0 34.5 -30.5t20.5 -51.5q0 -102 -32.5 -215t-79 -199t-99.5 -142.5t-93 -56.5q-12 0 -28.5 4.5t-39.5 19.5t-42 38.5t-32.5 67t-13.5 98.5q0 106 30.5 221.5t68 185.5t61.5 70q13 0 20 -23t7 -41q0 -7 -19.5 -45.5t-42.5 -89t-42.5 -142
t-19.5 -192.5q0 -47 14.5 -84t36.5 -37q53 0 121 101t116 249t48 270z" />
    <glyph glyph-name="V" unicode="V" horiz-adv-x="563" 
d="M502 713q19 0 35 -23t16 -42t-160 -338.5t-175 -319.5q-4 0 -16 16.5t-23.5 44t-11.5 49.5q0 39 -18 315t-18 277q0 4 4.5 10t9.5 6q22 0 47.5 -18.5t25.5 -41.5q0 -11 4 -85t11 -191.5t10 -180.5q66 148 158.5 335t100.5 187z" />
    <glyph glyph-name="W" unicode="W" horiz-adv-x="750" 
d="M744 713q19 0 34.5 -23t15.5 -42t-160 -338.5t-175 -319.5q-3 0 -15 16.5t-24 44t-12 49.5q0 136 -3 303q-58 -157 -114 -285t-68 -128q-4 0 -16 16.5t-24 44t-12 49.5q0 39 -17.5 315t-17.5 277q0 4 4.5 10t9.5 6q21 0 47 -18.5t26 -41.5q0 -11 4 -85t11 -191.5
t10 -180.5q18 45 45 115.5t43 112.5t34.5 87t30 66t16.5 21q18 0 40 -27t22 -47q0 -1 -0.5 -30t-0.5 -56q0 -127 6 -242q15 30 61.5 127.5t70.5 147t57.5 117.5t50.5 99t20 31z" />
    <glyph glyph-name="X" unicode="X" horiz-adv-x="542" 
d="M594 666q0 -12 -225 -302q13 -47 39 -140t36.5 -134t10.5 -50q0 -38 -13 -38q-47 0 -128 291q-98 -125 -176.5 -211.5t-99.5 -86.5q-6 0 -6 7q0 46 256 383q-16 60 -40 143.5t-34 120.5t-10 49q0 14 16 14q22 0 39 -15t31.5 -51.5t23 -66.5t23.5 -91l7 -29q23 31 57 76.5
t54 72t41 54.5t32 40.5t13 12.5q13 0 33 -17.5t20 -31.5z" />
    <glyph glyph-name="Y" unicode="Y" horiz-adv-x="437" 
d="M521 666q0 -7 -227 -299q-50 -140 -95.5 -258.5t-50.5 -118.5q-12 0 -20.5 16.5t-8.5 40.5q0 12 12.5 57.5t40 139t42.5 145.5q-12 43 -26 93t-23 81.5t-17.5 62t-12.5 48t-4 24.5q0 14 16 14q22 0 39 -15t31.5 -51.5t23 -66.5t23.5 -91l7 -29q23 31 57 76.5t54 72
t41 54.5t32 40.5t13 12.5q13 0 33 -17.5t20 -31.5z" />
    <glyph glyph-name="Z" unicode="Z" horiz-adv-x="562" 
d="M363 73q19 0 42.5 -25.5t23.5 -35.5q0 -17 -132 -17h-255q-6 0 -6 7q0 52 273 406q37 49 94.5 126t76.5 102q-80 -6 -135 -6q-44 0 -88 7.5t-44 21.5q0 21 113.5 33.5t208.5 12.5q12 0 33.5 -18t21.5 -31q0 -22 -250 -335q-182 -228 -216 -266q118 18 239 18z" />
    <glyph glyph-name="bracketleft" unicode="[" 
d="M818 191q22 0 43 19.5t31 39.5l10 19q-1 -4 -4 -11.5t-13 -26.5t-22 -34t-33 -28.5t-44 -16.5q-118 -116 -284 -116q-168 0 -286.5 118.5t-118.5 285.5q0 34 7 76q-31 -22 -62 -53q9 16 23 37.5t49.5 64t74.5 74.5t97 57.5t117 25.5q55 0 55 -32q0 -22 -25 -61.5t-60 -86
t-70.5 -95.5t-60.5 -101t-25 -92q0 -29 17.5 -48t44.5 -19q24 0 43.5 18t19.5 39q0 5 -5 5q-3 -1 -11 -1q-29 0 -29 36q0 44 51 126.5t102 161.5t51 114q0 27 -20.5 46.5t-59.5 19.5q-159 0 -289 -146q49 108 148.5 173.5t221.5 65.5q167 0 285.5 -118.5t118.5 -286.5
q0 -107 -54 -202q-13 -5 -21 -5q-54 0 -76 76q62 68 105 144q3 6 3 9t-2 3q-4 0 -8 -8q-39 -72 -103 -130q-3 13 -9 41t-9.5 42.5t-11 32.5t-19 26t-26.5 8q-42 0 -61 -51q0 -4 3 -4q45 0 68 -29.5t42 -84.5q-89 -69 -164 -69q-66 0 -66 97q0 79 42 196q31 2 156 15t169 13
q11 0 11 5q0 4 -10 4q-49 0 -139.5 0.5t-171.5 0.5q44 107 66 107q7 0 7 -19q0 -6 6 -6q13 0 13 13q0 9 -8 16t-22 7q-18 0 -45 -33t-55 -85h-32q-20 0 -20 -11q0 -8 8.5 -15.5t24.5 -10.5q-60 -129 -60 -225q0 -122 108 -122q88 0 189 101q10 -31 18.5 -48.5t25.5 -32.5
t40 -15z" />
    <glyph glyph-name="backslash" unicode="\" 
d="M818 191q22 0 43 19.5t31 39.5l10 19q-1 -4 -4 -11.5t-13 -26.5t-22 -34t-33 -28.5t-44 -16.5q-118 -116 -284 -116q-168 0 -286.5 118.5t-118.5 285.5q0 34 7 76q-31 -22 -62 -53q9 16 23 37.5t49.5 64t74.5 74.5t97 57.5t117 25.5q55 0 55 -32q0 -22 -25 -61.5t-60 -86
t-70.5 -95.5t-60.5 -101t-25 -92q0 -29 17.5 -48t44.5 -19q24 0 43.5 18t19.5 39q0 5 -5 5q-3 -1 -11 -1q-29 0 -29 36q0 44 51 126.5t102 161.5t51 114q0 27 -20.5 46.5t-59.5 19.5q-159 0 -289 -146q49 108 148.5 173.5t221.5 65.5q167 0 285.5 -118.5t118.5 -286.5
q0 -107 -54 -202q-13 -5 -21 -5q-54 0 -76 76q62 68 105 144q3 6 3 9t-2 3q-4 0 -8 -8q-39 -72 -103 -130q-3 13 -9 41t-9.5 42.5t-11 32.5t-19 26t-26.5 8q-42 0 -61 -51q0 -4 3 -4q45 0 68 -29.5t42 -84.5q-89 -69 -164 -69q-66 0 -66 97q0 79 42 196q31 2 156 15t169 13
q11 0 11 5q0 4 -10 4q-49 0 -139.5 0.5t-171.5 0.5q44 107 66 107q7 0 7 -19q0 -6 6 -6q13 0 13 13q0 9 -8 16t-22 7q-18 0 -45 -33t-55 -85h-32q-20 0 -20 -11q0 -8 8.5 -15.5t24.5 -10.5q-60 -129 -60 -225q0 -122 108 -122q88 0 189 101q10 -31 18.5 -48.5t25.5 -32.5
t40 -15z" />
    <glyph glyph-name="bracketright" unicode="]" 
d="M818 191q22 0 43 19.5t31 39.5l10 19q-1 -4 -4 -11.5t-13 -26.5t-22 -34t-33 -28.5t-44 -16.5q-118 -116 -284 -116q-168 0 -286.5 118.5t-118.5 285.5q0 34 7 76q-31 -22 -62 -53q9 16 23 37.5t49.5 64t74.5 74.5t97 57.5t117 25.5q55 0 55 -32q0 -22 -25 -61.5t-60 -86
t-70.5 -95.5t-60.5 -101t-25 -92q0 -29 17.5 -48t44.5 -19q24 0 43.5 18t19.5 39q0 5 -5 5q-3 -1 -11 -1q-29 0 -29 36q0 44 51 126.5t102 161.5t51 114q0 27 -20.5 46.5t-59.5 19.5q-159 0 -289 -146q49 108 148.5 173.5t221.5 65.5q167 0 285.5 -118.5t118.5 -286.5
q0 -107 -54 -202q-13 -5 -21 -5q-54 0 -76 76q62 68 105 144q3 6 3 9t-2 3q-4 0 -8 -8q-39 -72 -103 -130q-3 13 -9 41t-9.5 42.5t-11 32.5t-19 26t-26.5 8q-42 0 -61 -51q0 -4 3 -4q45 0 68 -29.5t42 -84.5q-89 -69 -164 -69q-66 0 -66 97q0 79 42 196q31 2 156 15t169 13
q11 0 11 5q0 4 -10 4q-49 0 -139.5 0.5t-171.5 0.5q44 107 66 107q7 0 7 -19q0 -6 6 -6q13 0 13 13q0 9 -8 16t-22 7q-18 0 -45 -33t-55 -85h-32q-20 0 -20 -11q0 -8 8.5 -15.5t24.5 -10.5q-60 -129 -60 -225q0 -122 108 -122q88 0 189 101q10 -31 18.5 -48.5t25.5 -32.5
t40 -15z" />
    <glyph glyph-name="asciicircum" unicode="^" 
d="M818 191q22 0 43 19.5t31 39.5l10 19q-1 -4 -4 -11.5t-13 -26.5t-22 -34t-33 -28.5t-44 -16.5q-118 -116 -284 -116q-168 0 -286.5 118.5t-118.5 285.5q0 34 7 76q-31 -22 -62 -53q9 16 23 37.5t49.5 64t74.5 74.5t97 57.5t117 25.5q55 0 55 -32q0 -22 -25 -61.5t-60 -86
t-70.5 -95.5t-60.5 -101t-25 -92q0 -29 17.5 -48t44.5 -19q24 0 43.5 18t19.5 39q0 5 -5 5q-3 -1 -11 -1q-29 0 -29 36q0 44 51 126.5t102 161.5t51 114q0 27 -20.5 46.5t-59.5 19.5q-159 0 -289 -146q49 108 148.5 173.5t221.5 65.5q167 0 285.5 -118.5t118.5 -286.5
q0 -107 -54 -202q-13 -5 -21 -5q-54 0 -76 76q62 68 105 144q3 6 3 9t-2 3q-4 0 -8 -8q-39 -72 -103 -130q-3 13 -9 41t-9.5 42.5t-11 32.5t-19 26t-26.5 8q-42 0 -61 -51q0 -4 3 -4q45 0 68 -29.5t42 -84.5q-89 -69 -164 -69q-66 0 -66 97q0 79 42 196q31 2 156 15t169 13
q11 0 11 5q0 4 -10 4q-49 0 -139.5 0.5t-171.5 0.5q44 107 66 107q7 0 7 -19q0 -6 6 -6q13 0 13 13q0 9 -8 16t-22 7q-18 0 -45 -33t-55 -85h-32q-20 0 -20 -11q0 -8 8.5 -15.5t24.5 -10.5q-60 -129 -60 -225q0 -122 108 -122q88 0 189 101q10 -31 18.5 -48.5t25.5 -32.5
t40 -15z" />
    <glyph glyph-name="underscore" unicode="_" 
d="M818 191q22 0 43 19.5t31 39.5l10 19q-1 -4 -4 -11.5t-13 -26.5t-22 -34t-33 -28.5t-44 -16.5q-118 -116 -284 -116q-168 0 -286.5 118.5t-118.5 285.5q0 34 7 76q-31 -22 -62 -53q9 16 23 37.5t49.5 64t74.5 74.5t97 57.5t117 25.5q55 0 55 -32q0 -22 -25 -61.5t-60 -86
t-70.5 -95.5t-60.5 -101t-25 -92q0 -29 17.5 -48t44.5 -19q24 0 43.5 18t19.5 39q0 5 -5 5q-3 -1 -11 -1q-29 0 -29 36q0 44 51 126.5t102 161.5t51 114q0 27 -20.5 46.5t-59.5 19.5q-159 0 -289 -146q49 108 148.5 173.5t221.5 65.5q167 0 285.5 -118.5t118.5 -286.5
q0 -107 -54 -202q-13 -5 -21 -5q-54 0 -76 76q62 68 105 144q3 6 3 9t-2 3q-4 0 -8 -8q-39 -72 -103 -130q-3 13 -9 41t-9.5 42.5t-11 32.5t-19 26t-26.5 8q-42 0 -61 -51q0 -4 3 -4q45 0 68 -29.5t42 -84.5q-89 -69 -164 -69q-66 0 -66 97q0 79 42 196q31 2 156 15t169 13
q11 0 11 5q0 4 -10 4q-49 0 -139.5 0.5t-171.5 0.5q44 107 66 107q7 0 7 -19q0 -6 6 -6q13 0 13 13q0 9 -8 16t-22 7q-18 0 -45 -33t-55 -85h-32q-20 0 -20 -11q0 -8 8.5 -15.5t24.5 -10.5q-60 -129 -60 -225q0 -122 108 -122q88 0 189 101q10 -31 18.5 -48.5t25.5 -32.5
t40 -15z" />
    <glyph glyph-name="grave" unicode="`" 
d="M818 191q22 0 43 19.5t31 39.5l10 19q-1 -4 -4 -11.5t-13 -26.5t-22 -34t-33 -28.5t-44 -16.5q-118 -116 -284 -116q-168 0 -286.5 118.5t-118.5 285.5q0 34 7 76q-31 -22 -62 -53q9 16 23 37.5t49.5 64t74.5 74.5t97 57.5t117 25.5q55 0 55 -32q0 -22 -25 -61.5t-60 -86
t-70.5 -95.5t-60.5 -101t-25 -92q0 -29 17.5 -48t44.5 -19q24 0 43.5 18t19.5 39q0 5 -5 5q-3 -1 -11 -1q-29 0 -29 36q0 44 51 126.5t102 161.5t51 114q0 27 -20.5 46.5t-59.5 19.5q-159 0 -289 -146q49 108 148.5 173.5t221.5 65.5q167 0 285.5 -118.5t118.5 -286.5
q0 -107 -54 -202q-13 -5 -21 -5q-54 0 -76 76q62 68 105 144q3 6 3 9t-2 3q-4 0 -8 -8q-39 -72 -103 -130q-3 13 -9 41t-9.5 42.5t-11 32.5t-19 26t-26.5 8q-42 0 -61 -51q0 -4 3 -4q45 0 68 -29.5t42 -84.5q-89 -69 -164 -69q-66 0 -66 97q0 79 42 196q31 2 156 15t169 13
q11 0 11 5q0 4 -10 4q-49 0 -139.5 0.5t-171.5 0.5q44 107 66 107q7 0 7 -19q0 -6 6 -6q13 0 13 13q0 9 -8 16t-22 7q-18 0 -45 -33t-55 -85h-32q-20 0 -20 -11q0 -8 8.5 -15.5t24.5 -10.5q-60 -129 -60 -225q0 -122 108 -122q88 0 189 101q10 -31 18.5 -48.5t25.5 -32.5
t40 -15z" />
    <glyph glyph-name="a" unicode="a" horiz-adv-x="465" 
d="M479 258q1 -6 -30 -68.5t-73.5 -125t-65.5 -62.5q-6 0 -20 8.5t-31 24t-29.5 44.5t-12.5 63q0 75 67 241l-4 5q-29 38 -55 38q-61 0 -118 -91.5t-57 -194.5q0 -34 9 -62t19.5 -41t19.5 -13q19 0 38.5 13.5t32.5 27t16 13.5t3 -3q0 -10 -32.5 -43t-57.5 -33q-11 0 -30 13
t-40 36.5t-36 63t-15 84.5q0 125 63 214.5t124 89.5q39 0 74 -27.5t58 -62.5q36 88 45 88q16 0 40.5 -22t24.5 -40q0 -1 -12 -27.5t-29 -67t-33.5 -86t-28.5 -94.5t-12 -83q0 -14 3 -19t14 -5q26 0 66.5 51t71.5 102t33 51z" />
    <glyph glyph-name="b" unicode="b" horiz-adv-x="436" 
d="M453 257q0 -3 -7.5 -16.5t-23.5 -33.5t-37.5 -39.5t-54 -34t-68.5 -17.5q-44 -55 -87.5 -89t-72.5 -34q-3 0 -14 4.5t-28.5 16.5t-33 29.5t-26.5 48t-11 66.5q0 88 36.5 226t75 235t47.5 97q17 0 41 -22t24 -43q0 -2 -16.5 -41.5t-39.5 -101.5t-46 -131.5t-39.5 -145
t-16.5 -128.5q0 -38 9 -38q67 0 134 57q-93 26 -93 149q0 77 78.5 153.5t157.5 76.5q28 0 42.5 -21t14.5 -55q0 -115 -103 -265q6 -2 20 -2q28 0 53.5 15.5t40 34.5t27 34t17.5 15zM279 426q-40 0 -70.5 -34t-30.5 -80q0 -34 20 -72t53 -61q72 98 72 189q0 58 -44 58z" />
    <glyph glyph-name="c" unicode="c" horiz-adv-x="367" 
d="M385 257q0 -9 -25 -50.5t-61 -90.5t-83 -88t-84 -39q-43 0 -93.5 52t-50.5 124q0 73 34.5 155t82.5 135t86 53q39 0 80 -35t41 -56q0 -9 -10 -9q-2 0 -16.5 14t-32.5 14q-32 0 -77 -50.5t-79 -128.5t-34 -147q0 -42 11 -56.5t34 -14.5q41 0 91 34.5t86.5 75.5t66 75
t33.5 33z" />
    <glyph glyph-name="d" unicode="d" horiz-adv-x="490" 
d="M500 258q1 -7 -30 -69t-74 -124.5t-67 -62.5q-11 0 -21.5 2t-29 10t-30 30t-11.5 55q0 85 62 291q-30 36 -53 36q-61 0 -118 -91.5t-57 -194.5q0 -34 9 -62t19.5 -41t18.5 -13q20 0 39.5 13.5t32.5 27t16 13.5q2 0 2 -3q0 -10 -32.5 -43t-57.5 -33q-11 0 -29.5 13
t-39.5 36.5t-36 63t-15 84.5q0 125 63 214.5t124 89.5q35 0 68 -23t55 -55q22 70 44.5 136t38.5 104.5t19 38.5q15 0 38.5 -18t23.5 -43l-40 -116q-40 -115 -80 -253t-40 -193q0 -14 3 -19t13 -5q26 0 67 51t72 102t33 51z" />
    <glyph glyph-name="e" unicode="e" horiz-adv-x="354" 
d="M375 258q0 -9 -25 -51t-61 -91t-83 -88t-84 -39q-43 0 -93.5 52t-50.5 124q0 73 34.5 155t82.5 135t86 53q62 0 107 -40t45 -71q0 -40 -25 -72.5t-65 -52.5t-83.5 -31.5t-85.5 -14.5q-21 -63 -21 -116q0 -42 11 -56.5t34 -14.5q41 0 91 34t86 75.5t65.5 75.5t34.5 34z
M243 436q-35 0 -85 -60.5t-80 -140.5q51 4 94 20.5t74 52.5t31 86q0 15 -13 28.5t-21 13.5z" />
    <glyph glyph-name="f" unicode="f" horiz-adv-x="328" 
d="M344 257q0 -12 -34.5 -65t-77.5 -98q-8 -63 -48 -152.5t-99.5 -160.5t-109.5 -71t-50 147q0 126 60.5 335.5t125.5 361.5t83 152t39.5 -26t21.5 -41q0 -4 -29 -68.5t-70.5 -162t-82.5 -207t-70 -225.5t-29 -196q0 -25 23 -25q42 0 92 92t73 186q-33 -22 -61 -22
q-23 0 -36.5 19t-13.5 49q0 36 33 80t70 44q30 0 53 -21t26 -57q16 15 33 34.5t30 36.5t23.5 31.5t17 22.5t7.5 7zM145 76q13 0 26 6l1 12q0 22 -15 37t-33 15q-10 0 -10 -23q0 -16 7 -31.5t24 -15.5z" />
    <glyph glyph-name="g" unicode="g" horiz-adv-x="475" 
d="M489 257q0 -23 -46.5 -74.5t-118.5 -105.5q-109 -383 -131 -383q-26 0 -62 16.5t-67 52.5t-31 80q0 43 50 87.5t132 94.5q88 317 96 344q-6 2 -17 17t-26 27.5t-31 12.5q-61 0 -118 -91.5t-57 -194.5q0 -34 9 -62t19.5 -41t18.5 -13q20 0 39.5 13.5t32.5 27t16 13.5
q2 0 2 -3q0 -10 -32.5 -43t-57.5 -33q-11 0 -29.5 13t-39.5 36.5t-36 63t-15 84.5q0 125 63 214.5t124 89.5q45 0 85 -35.5t57 -72.5q33 117 42 117q23 0 41.5 -27.5t18.5 -48.5q0 -19 -89 -331q33 24 61 49.5t44.5 44t28 33.5t17 22t7.5 6zM128 -232q14 0 78 227
q-76 -53 -113 -92t-37 -77q0 -19 20.5 -38.5t51.5 -19.5z" />
    <glyph glyph-name="h" unicode="h" horiz-adv-x="447" 
d="M459 258q0 -22 -53 -90t-117.5 -128t-91.5 -60q-7 0 -12.5 7.5t-5.5 17.5q0 30 43.5 177t43.5 197q0 13 -7 23t-15 10q-13 0 -32 -14.5t-45 -44.5t-40.5 -48t-40.5 -51q-95 -264 -109 -264q-11 0 -20 16.5t-9 40.5q0 40 50 209t102.5 320.5t59.5 151.5q20 0 42 -23.5
t22 -41.5q0 -9 -38.5 -124.5t-83.5 -238.5q62 81 128.5 143.5t113.5 62.5q34 0 34 -60q0 -54 -43.5 -197t-43.5 -149q0 -8 5 -8q15 0 53.5 41.5t72.5 83t37 41.5z" />
    <glyph glyph-name="i" unicode="i" horiz-adv-x="210" 
d="M224 258q1 -7 -30 -69t-73.5 -124.5t-66.5 -62.5q-6 0 -20 8.5t-31 24t-29.5 44.5t-12.5 63q0 45 32.5 139.5t66.5 168.5t41 74q15 0 40 -22.5t25 -40.5q0 -1 -13.5 -30t-32.5 -73.5t-38 -93.5t-32.5 -100.5t-13.5 -85.5q0 -14 3 -19t13 -5q26 0 67 51t72 102t33 51z
M272 671q0 -6 -7 -11t-15 -7l-7 -2q8 -12 8 -21q0 -11 -12 -11q-29 0 -58 25.5t-29 54.5q0 14 17 21.5t34 7.5q23 0 46 -22.5t23 -34.5z" />
    <glyph glyph-name="j" unicode="j" horiz-adv-x="260" 
d="M212 728q23 0 46 -22.5t23 -34.5q0 -6 -7.5 -11t-14.5 -7l-7 -2q8 -12 8 -21q0 -11 -12 -11q-30 0 -59 25.5t-29 54.5q0 13 17.5 21t34.5 8zM272 258q0 -24 -44 -76t-110 -106q-109 -382 -131 -382q-43 0 -86.5 37.5t-43.5 101.5q0 83 150 186l83 296q-31 -37 -60 -66
t-35 -29q-2 0 -2 4q0 7 23 37.5t57 81t53 98.5q23 68 28 68q23 0 41.5 -27.5t18.5 -48.5q0 -13 -89 -333q48 38 83.5 78t49 60t14.5 20zM-78 -232q13 0 77 221q-65 -48 -92 -89t-27 -84q0 -17 12.5 -32.5t29.5 -15.5z" />
    <glyph glyph-name="k" unicode="k" horiz-adv-x="456" 
d="M468 258q0 -7 -25.5 -49.5t-62.5 -94t-87 -93t-91 -41.5q-35 0 -72 65t-66 148q-75 -203 -86 -203t-20 16.5t-9 40.5q0 40 50 209t102.5 320.5t59.5 151.5q20 0 42 -23.5t22 -41.5q0 -17 -85 -259q111 111 165 111q37 0 62 -32t25 -53q0 -67 -70.5 -125.5t-175.5 -80.5
q72 -169 112 -169q37 0 87 50.5t85.5 101.5t37.5 51zM320 457q-96 0 -205 -155q75 7 144 55.5t69 88.5q0 11 -8 11z" />
    <glyph glyph-name="l" unicode="l" horiz-adv-x="222" 
d="M-30 99q0 69 41 225t83.5 280.5t50.5 124.5q15 0 38 -18t23 -43q0 -1 -40.5 -123t-81 -267t-40.5 -200q0 -14 3 -19t14 -5t26 11.5t31 29.5t33 40.5t31.5 44t26 39.5t18.5 28.5t7 9.5q0 -7 -31.5 -68.5t-74 -124t-66.5 -62.5q-11 0 -21.5 2t-29 10t-30 30t-11.5 55z" />
    <glyph glyph-name="m" unicode="m" horiz-adv-x="604" 
d="M615 258q0 -22 -52.5 -90t-117 -128t-91.5 -60q-7 0 -13 7.5t-6 17.5q0 30 53.5 177t53.5 197q0 13 -6.5 23t-14.5 10q-28 0 -120 -150l-60 -189q-13 -42 -39 -67.5t-50 -25.5q-7 0 -13 7.5t-6 17.5q0 30 53.5 177t53.5 197q0 13 -6.5 23t-14.5 10q-27 0 -122 -153
q-9 -27 -23.5 -69.5t-24.5 -71t-15 -45.5q-13 -42 -39 -67.5t-50 -25.5q-7 0 -13 7.5t-6 17.5q0 32 57.5 192.5t57.5 200.5q0 39 38 71.5t60 32.5q20 0 20 -22q0 -3 -2 -25q-3 -22 -42 -142q123 193 204 193q15 0 24.5 -14t9.5 -34q0 -8 -1 -12q-3 -19 -21 -82l-3 -11
q0 -2 -1.5 -6t-2.5 -7l-8 -28q124 194 204 194q34 0 34 -60q0 -54 -53 -197t-53 -149q0 -8 5 -8q20 0 90.5 83t71.5 83z" />
    <glyph glyph-name="n" unicode="n" horiz-adv-x="428" 
d="M446 258q0 -22 -53 -90t-117.5 -128t-91.5 -60q-7 0 -12.5 7.5t-5.5 17.5q0 30 43.5 177t43.5 197q0 13 -7 23t-15 10q-32 0 -126 -117q-99 -315 -172 -315q-14 0 -14 23t62.5 206t62.5 207q0 15 36.5 50.5t61.5 35.5q14 0 14 -22q0 -17 -39 -145q139 171 214 171
q34 0 34 -60q0 -54 -43.5 -197t-43.5 -149q0 -8 5 -8q15 0 53.5 41.5t72.5 83t37 41.5z" />
    <glyph glyph-name="o" unicode="o" horiz-adv-x="444" 
d="M461 257q0 -3 -7.5 -16.5t-23.5 -33.5t-37.5 -39.5t-54 -34t-68.5 -17.5q-44 -55 -87.5 -89t-72.5 -34q-55 0 -90 48t-35 126q0 65 21 145t47 131.5t40 51.5q18 0 35.5 -20.5t17.5 -42.5q0 -1 -23 -47.5t-46 -124t-23 -153.5q0 -43 12.5 -57.5t37.5 -14.5q51 0 116 84
q-107 19 -107 152q0 77 78.5 153.5t157.5 76.5q28 0 42.5 -21t14.5 -55q0 -115 -103 -265q6 -2 20 -2q28 0 53.5 15.5t40 34.5t27 34t17.5 15zM186 312q0 -34 20.5 -73t53.5 -61q31 52 51 105t20 85q0 58 -44 58q-40 0 -70.5 -34t-30.5 -80z" />
    <glyph glyph-name="p" unicode="p" horiz-adv-x="393" 
d="M410 258q0 -22 -52.5 -90t-117 -128t-91.5 -60q-7 0 -13 7.5t-6 17.5q0 30 53.5 177t53.5 197q0 13 -6.5 23t-14.5 10q-27 0 -113 -138q-175 -554 -195 -554q-11 0 -19.5 16.5t-8.5 40.5q0 40 49.5 222.5t101.5 348t59 165.5q20 0 42 -23.5t22 -42.5q0 -9 -36 -124
q121 183 197 183q34 0 34 -60q0 -54 -53.5 -197t-53.5 -149q0 -8 6 -8q20 0 90.5 83t71.5 83z" />
    <glyph glyph-name="q" unicode="q" horiz-adv-x="490" 
d="M508 257q0 -15 -43 -85.5t-94 -133.5q-11 -14 -34.5 -42.5t-36 -44t-29 -37t-27.5 -38t-18 -31.5q-46 -125 -53 -125q-11 0 -20 16.5t-9 40.5q0 41 52.5 232.5t106.5 362.5q-4 3 -16 18.5t-25 25.5t-28 10q-61 0 -118 -91.5t-57 -194.5q0 -34 9 -62t19.5 -41t18.5 -13
q20 0 39.5 13.5t32.5 27t16 13.5q2 0 2 -3q0 -10 -32.5 -43t-57.5 -33q-11 0 -29.5 13t-39.5 36.5t-36 63t-15 84.5q0 125 63 214.5t124 89.5q42 0 80.5 -32.5t58.5 -69.5q37 115 43 115q20 0 42 -23.5t22 -42.5q0 -21 -129 -414q2 2 64 47q31 22 57 49t41 49t26.5 40.5
t18.5 28.5t11 10z" />
    <glyph glyph-name="r" unicode="r" horiz-adv-x="324" 
d="M342 258q0 -11 -47 -80t-104.5 -136t-80.5 -67q-25 0 -25 25q0 27 32.5 113t32.5 115q0 8 -2.5 15.5t-8 15t-10 13t-14.5 13.5l-15 12t-17.5 12.5t-16.5 11.5q-61 -101 -73 -101q-2 0 -2 4q0 3 8 16.5t25 42t28 47.5q-46 35 -46 64q0 41 49 95t73 54q22 0 22 -32
q0 -33 -41 -112q10 -6 37 -17.5t42.5 -20t29.5 -25.5t14 -39q0 -49 -33.5 -147.5t-33.5 -101.5q0 -9 6 -9q4 0 83.5 109.5t87.5 109.5zM80 438q0 -16 15 -29q19 36 19 51q0 25 -10 25q-7 0 -15.5 -16.5t-8.5 -30.5z" />
    <glyph glyph-name="s" unicode="s" horiz-adv-x="294" 
d="M310 257q0 -4 -8.5 -20t-27 -42t-38.5 -47q-12 -63 -70 -117.5t-94 -54.5q-26 0 -26 24q0 51 122 129q-1 37 -16 69.5t-42 70.5t-36 56q-65 -105 -78 -105q-1 0 -1 4t70 120q-13 31 -13 62q0 35 11 61.5t26.5 39t28 18.5t19.5 6q22 0 22 -22q0 -26 -35 -98
q4 -6 32.5 -45.5t40.5 -59t26 -57t15 -71.5q5 5 21 25t31 37t20 17zM98 471q0 -19 14 -42q15 32 15 42q0 23 -11 23q-18 0 -18 -23zM99 21q4 0 15.5 8t26.5 25t22 36l-24 -17q-49 -33 -49 -41q0 -11 9 -11z" />
    <glyph glyph-name="t" unicode="t" horiz-adv-x="228" 
d="M204 640h11q14 0 50 -32.5t36 -54.5q0 -7 -4.5 -11.5t-9.5 -4.5q-44 0 -116 2q-120 -367 -120 -461q0 -14 3 -19t14 -5t26 11.5t31 29.5t33 40.5t31.5 44t26 39.5t18.5 28.5t7 9.5q0 -7 -31.5 -68.5t-74 -124t-66.5 -62.5q-11 0 -21.5 2t-29 10t-30 30t-11.5 55
q0 119 105 443q-165 10 -165 33q0 13 192 49q37 105 43 105q15 0 38 -18t23 -43q0 -4 -9 -28z" />
    <glyph glyph-name="u" unicode="u" horiz-adv-x="454" 
d="M465 258q0 -7 -35.5 -77.5t-81.5 -140.5t-67 -70q-43 0 -67 30.5t-29 76.5q-79 -103 -132 -103q-47 0 -72.5 36t-25.5 90q0 36 10 67q106 346 114 346q20 0 42 -23.5t22 -42.5q0 -23 -112 -363q-8 -23 -8 -38q0 -13 7 -13q10 0 21 4.5t24 14t23.5 18t26 24.5t23.5 25
t24.5 26.5t21.5 23.5q101 328 108 328q20 0 42 -24t22 -42q0 -7 -91 -295l-16 -52q-7 -21 -7 -35t9 -14q30 0 78.5 55.5t86 111.5t39.5 56z" />
    <glyph glyph-name="v" unicode="v" horiz-adv-x="419" 
d="M436 266q1 -23 -47.5 -75.5t-95.5 -52.5q-45 0 -80 40q-59 -76 -112.5 -132.5t-65.5 -56.5q-14 0 -35 23.5t-21 45.5q0 28 10.5 185t10.5 231q0 10 12 10q20 0 44.5 -27.5t24.5 -39.5q0 -30 -6.5 -175.5t-13.5 -191.5q68 72 131 156q-28 49 -28 103q0 66 48 128t106 62
q50 0 50 -48q0 -57 -100 -200q30 -49 76 -49q22 0 43.5 16t34 32t14.5 16zM237 360q0 -38 13 -71q51 82 51 127v4q-2 31 -19 31q-14 0 -29.5 -26t-15.5 -65z" />
    <glyph glyph-name="w" unicode="w" horiz-adv-x="609" 
d="M630 258q1 -13 -40 -78.5t-65 -65.5q-35 0 -41 83q-108 -208 -130 -208q-20 0 -63 68.5t-69 150.5q-55 -83 -112.5 -151t-71.5 -68t-35 23.5t-21 45.5q0 28 10.5 185t10.5 231q0 10 13 10q20 0 44 -27.5t24 -39.5q0 -34 -6 -177.5t-14 -189.5q83 105 144 209
q-10 45 -10 81q0 66 32.5 103.5t60.5 37.5q19 0 29 -13t10 -32q0 -49 -64 -158q11 -74 28 -146.5t23 -72.5t107.5 211t111.5 211q13 0 36.5 -22t23.5 -35q0 -2 -20 -46l-21 -44q-46 -93 -46 -172q0 -29 5 -29q17 0 66 62.5t50 62.5zM257 372v-13q14 36 14 61q0 6 -4 6
q-10 0 -10 -54z" />
    <glyph glyph-name="x" unicode="x" horiz-adv-x="492" 
d="M516 278q1 -14 -97 -156.5t-117 -142.5q-9 0 -93 201q-200 -194 -208 -194q-12 0 -23.5 18.5t-11.5 27.5q0 4 3 4l12 -10q97 112 198 227l-65 163q-101 -176 -110 -176q-1 0 -1 4q0 11 72 140t87 129q9 0 85 -182q152 170 160 170q21 0 39 -22t18 -38q0 -12 -183 -191
l71 -174q158 202 164 202z" />
    <glyph glyph-name="y" unicode="y" horiz-adv-x="406" 
d="M425 257q0 -23 -44 -75t-111 -106q-109 -382 -130 -382q-43 0 -87 37.5t-44 101.5q0 84 151 186q3 13 8 31q-65 -76 -110 -76q-47 0 -72.5 36t-25.5 90q0 36 10 67q106 346 114 346q20 0 42 -23.5t22 -42.5q0 -23 -112 -363q-8 -23 -8 -38q0 -13 7 -13q10 0 21 4.5t25 15
t24 18.5t27 25.5t24 25t25 28t21 23.5q93 336 104 336q23 0 41.5 -27.5t18.5 -48.5q0 -20 -89 -333q30 24 56 49.5t41.5 44.5t27 34t16.5 22.5t7 6.5zM74 -232q15 0 77 221q-65 -48 -92 -89t-27 -84q0 -17 12.5 -32.5t29.5 -15.5z" />
    <glyph glyph-name="z" unicode="z" horiz-adv-x="347" 
d="M371 257q0 -6 -26.5 -48.5t-69 -100.5t-76.5 -94q-9 -11 -31 -33q2 -10 2 -30q0 -58 -22.5 -118t-51 -96t-49.5 -36q-37 0 -53 25t-16 55q0 50 118 166v35q-15 -6 -25 -6q-26 0 -45 16t-19 37q0 33 22 58t46 25q36 0 68 -55q24 30 24 64q0 39 -14.5 72.5t-42.5 74
t-37 57.5q-65 -105 -78 -105q-1 0 -1 4t70 120q-13 31 -13 62q0 35 11 61.5t26.5 39t28 18.5t19.5 6q22 0 22 -22q0 -26 -35 -98q5 -8 33 -46.5t40.5 -59.5t26.5 -58.5t14 -72.5q0 -79 -79 -150l4 -15q4 4 13.5 13t14.5 14q23 21 49 52.5t47 60t39.5 54t30 40.5t15.5 14z
M97 471q0 -19 14 -42q15 32 15 42q0 23 -11 23q-18 0 -18 -23zM50 53q0 -9 13.5 -19t28.5 -12q-8 55 -29 55q-13 0 -13 -24zM59 -228q12 0 22 40t14 94q-59 -62 -59 -85q0 -17 7 -33t16 -16z" />
    <glyph glyph-name="braceleft" unicode="{" 
d="M818 191q22 0 43 19.5t31 39.5l10 19q-1 -4 -4 -11.5t-13 -26.5t-22 -34t-33 -28.5t-44 -16.5q-118 -116 -284 -116q-168 0 -286.5 118.5t-118.5 285.5q0 34 7 76q-31 -22 -62 -53q9 16 23 37.5t49.5 64t74.5 74.5t97 57.5t117 25.5q55 0 55 -32q0 -22 -25 -61.5t-60 -86
t-70.5 -95.5t-60.5 -101t-25 -92q0 -29 17.5 -48t44.5 -19q24 0 43.5 18t19.5 39q0 5 -5 5q-3 -1 -11 -1q-29 0 -29 36q0 44 51 126.5t102 161.5t51 114q0 27 -20.5 46.5t-59.5 19.5q-159 0 -289 -146q49 108 148.5 173.5t221.5 65.5q167 0 285.5 -118.5t118.5 -286.5
q0 -107 -54 -202q-13 -5 -21 -5q-54 0 -76 76q62 68 105 144q3 6 3 9t-2 3q-4 0 -8 -8q-39 -72 -103 -130q-3 13 -9 41t-9.5 42.5t-11 32.5t-19 26t-26.5 8q-42 0 -61 -51q0 -4 3 -4q45 0 68 -29.5t42 -84.5q-89 -69 -164 -69q-66 0 -66 97q0 79 42 196q31 2 156 15t169 13
q11 0 11 5q0 4 -10 4q-49 0 -139.5 0.5t-171.5 0.5q44 107 66 107q7 0 7 -19q0 -6 6 -6q13 0 13 13q0 9 -8 16t-22 7q-18 0 -45 -33t-55 -85h-32q-20 0 -20 -11q0 -8 8.5 -15.5t24.5 -10.5q-60 -129 -60 -225q0 -122 108 -122q88 0 189 101q10 -31 18.5 -48.5t25.5 -32.5
t40 -15z" />
    <glyph glyph-name="bar" unicode="|" 
d="M818 191q22 0 43 19.5t31 39.5l10 19q-1 -4 -4 -11.5t-13 -26.5t-22 -34t-33 -28.5t-44 -16.5q-118 -116 -284 -116q-168 0 -286.5 118.5t-118.5 285.5q0 34 7 76q-31 -22 -62 -53q9 16 23 37.5t49.5 64t74.5 74.5t97 57.5t117 25.5q55 0 55 -32q0 -22 -25 -61.5t-60 -86
t-70.5 -95.5t-60.5 -101t-25 -92q0 -29 17.5 -48t44.5 -19q24 0 43.5 18t19.5 39q0 5 -5 5q-3 -1 -11 -1q-29 0 -29 36q0 44 51 126.5t102 161.5t51 114q0 27 -20.5 46.5t-59.5 19.5q-159 0 -289 -146q49 108 148.5 173.5t221.5 65.5q167 0 285.5 -118.5t118.5 -286.5
q0 -107 -54 -202q-13 -5 -21 -5q-54 0 -76 76q62 68 105 144q3 6 3 9t-2 3q-4 0 -8 -8q-39 -72 -103 -130q-3 13 -9 41t-9.5 42.5t-11 32.5t-19 26t-26.5 8q-42 0 -61 -51q0 -4 3 -4q45 0 68 -29.5t42 -84.5q-89 -69 -164 -69q-66 0 -66 97q0 79 42 196q31 2 156 15t169 13
q11 0 11 5q0 4 -10 4q-49 0 -139.5 0.5t-171.5 0.5q44 107 66 107q7 0 7 -19q0 -6 6 -6q13 0 13 13q0 9 -8 16t-22 7q-18 0 -45 -33t-55 -85h-32q-20 0 -20 -11q0 -8 8.5 -15.5t24.5 -10.5q-60 -129 -60 -225q0 -122 108 -122q88 0 189 101q10 -31 18.5 -48.5t25.5 -32.5
t40 -15z" />
    <glyph glyph-name="braceright" unicode="}" 
d="M818 191q22 0 43 19.5t31 39.5l10 19q-1 -4 -4 -11.5t-13 -26.5t-22 -34t-33 -28.5t-44 -16.5q-118 -116 -284 -116q-168 0 -286.5 118.5t-118.5 285.5q0 34 7 76q-31 -22 -62 -53q9 16 23 37.5t49.5 64t74.5 74.5t97 57.5t117 25.5q55 0 55 -32q0 -22 -25 -61.5t-60 -86
t-70.5 -95.5t-60.5 -101t-25 -92q0 -29 17.5 -48t44.5 -19q24 0 43.5 18t19.5 39q0 5 -5 5q-3 -1 -11 -1q-29 0 -29 36q0 44 51 126.5t102 161.5t51 114q0 27 -20.5 46.5t-59.5 19.5q-159 0 -289 -146q49 108 148.5 173.5t221.5 65.5q167 0 285.5 -118.5t118.5 -286.5
q0 -107 -54 -202q-13 -5 -21 -5q-54 0 -76 76q62 68 105 144q3 6 3 9t-2 3q-4 0 -8 -8q-39 -72 -103 -130q-3 13 -9 41t-9.5 42.5t-11 32.5t-19 26t-26.5 8q-42 0 -61 -51q0 -4 3 -4q45 0 68 -29.5t42 -84.5q-89 -69 -164 -69q-66 0 -66 97q0 79 42 196q31 2 156 15t169 13
q11 0 11 5q0 4 -10 4q-49 0 -139.5 0.5t-171.5 0.5q44 107 66 107q7 0 7 -19q0 -6 6 -6q13 0 13 13q0 9 -8 16t-22 7q-18 0 -45 -33t-55 -85h-32q-20 0 -20 -11q0 -8 8.5 -15.5t24.5 -10.5q-60 -129 -60 -225q0 -122 108 -122q88 0 189 101q10 -31 18.5 -48.5t25.5 -32.5
t40 -15z" />
    <glyph glyph-name="asciitilde" unicode="~" 
d="M818 191q22 0 43 19.5t31 39.5l10 19q-1 -4 -4 -11.5t-13 -26.5t-22 -34t-33 -28.5t-44 -16.5q-118 -116 -284 -116q-168 0 -286.5 118.5t-118.5 285.5q0 34 7 76q-31 -22 -62 -53q9 16 23 37.5t49.5 64t74.5 74.5t97 57.5t117 25.5q55 0 55 -32q0 -22 -25 -61.5t-60 -86
t-70.5 -95.5t-60.5 -101t-25 -92q0 -29 17.5 -48t44.5 -19q24 0 43.5 18t19.5 39q0 5 -5 5q-3 -1 -11 -1q-29 0 -29 36q0 44 51 126.5t102 161.5t51 114q0 27 -20.5 46.5t-59.5 19.5q-159 0 -289 -146q49 108 148.5 173.5t221.5 65.5q167 0 285.5 -118.5t118.5 -286.5
q0 -107 -54 -202q-13 -5 -21 -5q-54 0 -76 76q62 68 105 144q3 6 3 9t-2 3q-4 0 -8 -8q-39 -72 -103 -130q-3 13 -9 41t-9.5 42.5t-11 32.5t-19 26t-26.5 8q-42 0 -61 -51q0 -4 3 -4q45 0 68 -29.5t42 -84.5q-89 -69 -164 -69q-66 0 -66 97q0 79 42 196q31 2 156 15t169 13
q11 0 11 5q0 4 -10 4q-49 0 -139.5 0.5t-171.5 0.5q44 107 66 107q7 0 7 -19q0 -6 6 -6q13 0 13 13q0 9 -8 16t-22 7q-18 0 -45 -33t-55 -85h-32q-20 0 -20 -11q0 -8 8.5 -15.5t24.5 -10.5q-60 -129 -60 -225q0 -122 108 -122q88 0 189 101q10 -31 18.5 -48.5t25.5 -32.5
t40 -15z" />
    <glyph glyph-name="uni00A0" unicode="&#xa0;" horiz-adv-x="0" 
 />
    <glyph glyph-name="exclamdown" unicode="&#xa1;" 
d="M818 191q22 0 43 19.5t31 39.5l10 19q-1 -4 -4 -11.5t-13 -26.5t-22 -34t-33 -28.5t-44 -16.5q-118 -116 -284 -116q-168 0 -286.5 118.5t-118.5 285.5q0 34 7 76q-31 -22 -62 -53q9 16 23 37.5t49.5 64t74.5 74.5t97 57.5t117 25.5q55 0 55 -32q0 -22 -25 -61.5t-60 -86
t-70.5 -95.5t-60.5 -101t-25 -92q0 -29 17.5 -48t44.5 -19q24 0 43.5 18t19.5 39q0 5 -5 5q-3 -1 -11 -1q-29 0 -29 36q0 44 51 126.5t102 161.5t51 114q0 27 -20.5 46.5t-59.5 19.5q-159 0 -289 -146q49 108 148.5 173.5t221.5 65.5q167 0 285.5 -118.5t118.5 -286.5
q0 -107 -54 -202q-13 -5 -21 -5q-54 0 -76 76q62 68 105 144q3 6 3 9t-2 3q-4 0 -8 -8q-39 -72 -103 -130q-3 13 -9 41t-9.5 42.5t-11 32.5t-19 26t-26.5 8q-42 0 -61 -51q0 -4 3 -4q45 0 68 -29.5t42 -84.5q-89 -69 -164 -69q-66 0 -66 97q0 79 42 196q31 2 156 15t169 13
q11 0 11 5q0 4 -10 4q-49 0 -139.5 0.5t-171.5 0.5q44 107 66 107q7 0 7 -19q0 -6 6 -6q13 0 13 13q0 9 -8 16t-22 7q-18 0 -45 -33t-55 -85h-32q-20 0 -20 -11q0 -8 8.5 -15.5t24.5 -10.5q-60 -129 -60 -225q0 -122 108 -122q88 0 189 101q10 -31 18.5 -48.5t25.5 -32.5
t40 -15z" />
    <glyph glyph-name="cent" unicode="&#xa2;" 
d="M675 257q0 -9 -25 -50.5t-61 -90.5t-83 -88t-84 -39q-43 0 -93.5 52t-50.5 124q0 73 34.5 155t82.5 135t86 53q39 0 80 -35t41 -56q0 -9 -10 -9q-2 0 -16.5 14t-32.5 14q-32 0 -77 -50.5t-79 -128.5t-34 -147q0 -42 11 -56.5t34 -14.5q41 0 91 34.5t86.5 75.5t66 75
t33.5 33zM818 191q22 0 43 19.5t31 39.5l10 19q-1 -4 -4 -11.5t-13 -26.5t-22 -34t-33 -28.5t-44 -16.5q-118 -116 -284 -116q-168 0 -286.5 118.5t-118.5 285.5q0 34 7 76q-31 -22 -62 -53q9 16 23 37.5t49.5 64t74.5 74.5t97 57.5t117 25.5q55 0 55 -32q0 -22 -25 -61.5
t-60 -86t-70.5 -95.5t-60.5 -101t-25 -92q0 -29 17.5 -48t44.5 -19q24 0 43.5 18t19.5 39q0 5 -5 5q-3 -1 -11 -1q-29 0 -29 36q0 44 51 126.5t102 161.5t51 114q0 27 -20.5 46.5t-59.5 19.5q-159 0 -289 -146q49 108 148.5 173.5t221.5 65.5q167 0 285.5 -118.5
t118.5 -286.5q0 -107 -54 -202q-13 -5 -21 -5q-54 0 -76 76q62 68 105 144q3 6 3 9t-2 3q-4 0 -8 -8q-39 -72 -103 -130q-3 13 -9 41t-9.5 42.5t-11 32.5t-19 26t-26.5 8q-42 0 -61 -51q0 -4 3 -4q45 0 68 -29.5t42 -84.5q-89 -69 -164 -69q-66 0 -66 97q0 79 42 196
q31 2 156 15t169 13q11 0 11 5q0 4 -10 4q-49 0 -139.5 0.5t-171.5 0.5q44 107 66 107q7 0 7 -19q0 -6 6 -6q13 0 13 13q0 9 -8 16t-22 7q-18 0 -45 -33t-55 -85h-32q-20 0 -20 -11q0 -8 8.5 -15.5t24.5 -10.5q-60 -129 -60 -225q0 -122 108 -122q88 0 189 101
q10 -31 18.5 -48.5t25.5 -32.5t40 -15z" />
    <glyph glyph-name="sterling" unicode="&#xa3;" 
d="M818 191q22 0 43 19.5t31 39.5l10 19q-1 -4 -4 -11.5t-13 -26.5t-22 -34t-33 -28.5t-44 -16.5q-118 -116 -284 -116q-168 0 -286.5 118.5t-118.5 285.5q0 34 7 76q-31 -22 -62 -53q9 16 23 37.5t49.5 64t74.5 74.5t97 57.5t117 25.5q55 0 55 -32q0 -22 -25 -61.5t-60 -86
t-70.5 -95.5t-60.5 -101t-25 -92q0 -29 17.5 -48t44.5 -19q24 0 43.5 18t19.5 39q0 5 -5 5q-3 -1 -11 -1q-29 0 -29 36q0 44 51 126.5t102 161.5t51 114q0 27 -20.5 46.5t-59.5 19.5q-159 0 -289 -146q49 108 148.5 173.5t221.5 65.5q167 0 285.5 -118.5t118.5 -286.5
q0 -107 -54 -202q-13 -5 -21 -5q-54 0 -76 76q62 68 105 144q3 6 3 9t-2 3q-4 0 -8 -8q-39 -72 -103 -130q-3 13 -9 41t-9.5 42.5t-11 32.5t-19 26t-26.5 8q-42 0 -61 -51q0 -4 3 -4q45 0 68 -29.5t42 -84.5q-89 -69 -164 -69q-66 0 -66 97q0 79 42 196q31 2 156 15t169 13
q11 0 11 5q0 4 -10 4q-49 0 -139.5 0.5t-171.5 0.5q44 107 66 107q7 0 7 -19q0 -6 6 -6q13 0 13 13q0 9 -8 16t-22 7q-18 0 -45 -33t-55 -85h-32q-20 0 -20 -11q0 -8 8.5 -15.5t24.5 -10.5q-60 -129 -60 -225q0 -122 108 -122q88 0 189 101q10 -31 18.5 -48.5t25.5 -32.5
t40 -15z" />
    <glyph glyph-name="currency" unicode="&#xa4;" 
d="M818 191q22 0 43 19.5t31 39.5l10 19q-1 -4 -4 -11.5t-13 -26.5t-22 -34t-33 -28.5t-44 -16.5q-118 -116 -284 -116q-168 0 -286.5 118.5t-118.5 285.5q0 34 7 76q-31 -22 -62 -53q9 16 23 37.5t49.5 64t74.5 74.5t97 57.5t117 25.5q55 0 55 -32q0 -22 -25 -61.5t-60 -86
t-70.5 -95.5t-60.5 -101t-25 -92q0 -29 17.5 -48t44.5 -19q24 0 43.5 18t19.5 39q0 5 -5 5q-3 -1 -11 -1q-29 0 -29 36q0 44 51 126.5t102 161.5t51 114q0 27 -20.5 46.5t-59.5 19.5q-159 0 -289 -146q49 108 148.5 173.5t221.5 65.5q167 0 285.5 -118.5t118.5 -286.5
q0 -107 -54 -202q-13 -5 -21 -5q-54 0 -76 76q62 68 105 144q3 6 3 9t-2 3q-4 0 -8 -8q-39 -72 -103 -130q-3 13 -9 41t-9.5 42.5t-11 32.5t-19 26t-26.5 8q-42 0 -61 -51q0 -4 3 -4q45 0 68 -29.5t42 -84.5q-89 -69 -164 -69q-66 0 -66 97q0 79 42 196q31 2 156 15t169 13
q11 0 11 5q0 4 -10 4q-49 0 -139.5 0.5t-171.5 0.5q44 107 66 107q7 0 7 -19q0 -6 6 -6q13 0 13 13q0 9 -8 16t-22 7q-18 0 -45 -33t-55 -85h-32q-20 0 -20 -11q0 -8 8.5 -15.5t24.5 -10.5q-60 -129 -60 -225q0 -122 108 -122q88 0 189 101q10 -31 18.5 -48.5t25.5 -32.5
t40 -15z" />
    <glyph glyph-name="yen" unicode="&#xa5;" 
d="M818 191q22 0 43 19.5t31 39.5l10 19q-1 -4 -4 -11.5t-13 -26.5t-22 -34t-33 -28.5t-44 -16.5q-118 -116 -284 -116q-168 0 -286.5 118.5t-118.5 285.5q0 34 7 76q-31 -22 -62 -53q9 16 23 37.5t49.5 64t74.5 74.5t97 57.5t117 25.5q55 0 55 -32q0 -22 -25 -61.5t-60 -86
t-70.5 -95.5t-60.5 -101t-25 -92q0 -29 17.5 -48t44.5 -19q24 0 43.5 18t19.5 39q0 5 -5 5q-3 -1 -11 -1q-29 0 -29 36q0 44 51 126.5t102 161.5t51 114q0 27 -20.5 46.5t-59.5 19.5q-159 0 -289 -146q49 108 148.5 173.5t221.5 65.5q167 0 285.5 -118.5t118.5 -286.5
q0 -107 -54 -202q-13 -5 -21 -5q-54 0 -76 76q62 68 105 144q3 6 3 9t-2 3q-4 0 -8 -8q-39 -72 -103 -130q-3 13 -9 41t-9.5 42.5t-11 32.5t-19 26t-26.5 8q-42 0 -61 -51q0 -4 3 -4q45 0 68 -29.5t42 -84.5q-89 -69 -164 -69q-66 0 -66 97q0 79 42 196q31 2 156 15t169 13
q11 0 11 5q0 4 -10 4q-49 0 -139.5 0.5t-171.5 0.5q44 107 66 107q7 0 7 -19q0 -6 6 -6q13 0 13 13q0 9 -8 16t-22 7q-18 0 -45 -33t-55 -85h-32q-20 0 -20 -11q0 -8 8.5 -15.5t24.5 -10.5q-60 -129 -60 -225q0 -122 108 -122q88 0 189 101q10 -31 18.5 -48.5t25.5 -32.5
t40 -15z" />
    <glyph glyph-name="brokenbar" unicode="&#xa6;" 
d="M818 191q22 0 43 19.5t31 39.5l10 19q-1 -4 -4 -11.5t-13 -26.5t-22 -34t-33 -28.5t-44 -16.5q-118 -116 -284 -116q-168 0 -286.5 118.5t-118.5 285.5q0 34 7 76q-31 -22 -62 -53q9 16 23 37.5t49.5 64t74.5 74.5t97 57.5t117 25.5q55 0 55 -32q0 -22 -25 -61.5t-60 -86
t-70.5 -95.5t-60.5 -101t-25 -92q0 -29 17.5 -48t44.5 -19q24 0 43.5 18t19.5 39q0 5 -5 5q-3 -1 -11 -1q-29 0 -29 36q0 44 51 126.5t102 161.5t51 114q0 27 -20.5 46.5t-59.5 19.5q-159 0 -289 -146q49 108 148.5 173.5t221.5 65.5q167 0 285.5 -118.5t118.5 -286.5
q0 -107 -54 -202q-13 -5 -21 -5q-54 0 -76 76q62 68 105 144q3 6 3 9t-2 3q-4 0 -8 -8q-39 -72 -103 -130q-3 13 -9 41t-9.5 42.5t-11 32.5t-19 26t-26.5 8q-42 0 -61 -51q0 -4 3 -4q45 0 68 -29.5t42 -84.5q-89 -69 -164 -69q-66 0 -66 97q0 79 42 196q31 2 156 15t169 13
q11 0 11 5q0 4 -10 4q-49 0 -139.5 0.5t-171.5 0.5q44 107 66 107q7 0 7 -19q0 -6 6 -6q13 0 13 13q0 9 -8 16t-22 7q-18 0 -45 -33t-55 -85h-32q-20 0 -20 -11q0 -8 8.5 -15.5t24.5 -10.5q-60 -129 -60 -225q0 -122 108 -122q88 0 189 101q10 -31 18.5 -48.5t25.5 -32.5
t40 -15z" />
    <glyph glyph-name="section" unicode="&#xa7;" 
d="M818 191q22 0 43 19.5t31 39.5l10 19q-1 -4 -4 -11.5t-13 -26.5t-22 -34t-33 -28.5t-44 -16.5q-118 -116 -284 -116q-168 0 -286.5 118.5t-118.5 285.5q0 34 7 76q-31 -22 -62 -53q9 16 23 37.5t49.5 64t74.5 74.5t97 57.5t117 25.5q55 0 55 -32q0 -22 -25 -61.5t-60 -86
t-70.5 -95.5t-60.5 -101t-25 -92q0 -29 17.5 -48t44.5 -19q24 0 43.5 18t19.5 39q0 5 -5 5q-3 -1 -11 -1q-29 0 -29 36q0 44 51 126.5t102 161.5t51 114q0 27 -20.5 46.5t-59.5 19.5q-159 0 -289 -146q49 108 148.5 173.5t221.5 65.5q167 0 285.5 -118.5t118.5 -286.5
q0 -107 -54 -202q-13 -5 -21 -5q-54 0 -76 76q62 68 105 144q3 6 3 9t-2 3q-4 0 -8 -8q-39 -72 -103 -130q-3 13 -9 41t-9.5 42.5t-11 32.5t-19 26t-26.5 8q-42 0 -61 -51q0 -4 3 -4q45 0 68 -29.5t42 -84.5q-89 -69 -164 -69q-66 0 -66 97q0 79 42 196q31 2 156 15t169 13
q11 0 11 5q0 4 -10 4q-49 0 -139.5 0.5t-171.5 0.5q44 107 66 107q7 0 7 -19q0 -6 6 -6q13 0 13 13q0 9 -8 16t-22 7q-18 0 -45 -33t-55 -85h-32q-20 0 -20 -11q0 -8 8.5 -15.5t24.5 -10.5q-60 -129 -60 -225q0 -122 108 -122q88 0 189 101q10 -31 18.5 -48.5t25.5 -32.5
t40 -15z" />
    <glyph glyph-name="dieresis" unicode="&#xa8;" 
d="M818 191q22 0 43 19.5t31 39.5l10 19q-1 -4 -4 -11.5t-13 -26.5t-22 -34t-33 -28.5t-44 -16.5q-118 -116 -284 -116q-168 0 -286.5 118.5t-118.5 285.5q0 34 7 76q-31 -22 -62 -53q9 16 23 37.5t49.5 64t74.5 74.5t97 57.5t117 25.5q55 0 55 -32q0 -22 -25 -61.5t-60 -86
t-70.5 -95.5t-60.5 -101t-25 -92q0 -29 17.5 -48t44.5 -19q24 0 43.5 18t19.5 39q0 5 -5 5q-3 -1 -11 -1q-29 0 -29 36q0 44 51 126.5t102 161.5t51 114q0 27 -20.5 46.5t-59.5 19.5q-159 0 -289 -146q49 108 148.5 173.5t221.5 65.5q167 0 285.5 -118.5t118.5 -286.5
q0 -107 -54 -202q-13 -5 -21 -5q-54 0 -76 76q62 68 105 144q3 6 3 9t-2 3q-4 0 -8 -8q-39 -72 -103 -130q-3 13 -9 41t-9.5 42.5t-11 32.5t-19 26t-26.5 8q-42 0 -61 -51q0 -4 3 -4q45 0 68 -29.5t42 -84.5q-89 -69 -164 -69q-66 0 -66 97q0 79 42 196q31 2 156 15t169 13
q11 0 11 5q0 4 -10 4q-49 0 -139.5 0.5t-171.5 0.5q44 107 66 107q7 0 7 -19q0 -6 6 -6q13 0 13 13q0 9 -8 16t-22 7q-18 0 -45 -33t-55 -85h-32q-20 0 -20 -11q0 -8 8.5 -15.5t24.5 -10.5q-60 -129 -60 -225q0 -122 108 -122q88 0 189 101q10 -31 18.5 -48.5t25.5 -32.5
t40 -15z" />
    <glyph glyph-name="copyright" unicode="&#xa9;" 
d="M818 191q22 0 43 19.5t31 39.5l10 19q-1 -4 -4 -11.5t-13 -26.5t-22 -34t-33 -28.5t-44 -16.5q-118 -116 -284 -116q-168 0 -286.5 118.5t-118.5 285.5q0 34 7 76q-31 -22 -62 -53q9 16 23 37.5t49.5 64t74.5 74.5t97 57.5t117 25.5q55 0 55 -32q0 -22 -25 -61.5t-60 -86
t-70.5 -95.5t-60.5 -101t-25 -92q0 -29 17.5 -48t44.5 -19q24 0 43.5 18t19.5 39q0 5 -5 5q-3 -1 -11 -1q-29 0 -29 36q0 44 51 126.5t102 161.5t51 114q0 27 -20.5 46.5t-59.5 19.5q-159 0 -289 -146q49 108 148.5 173.5t221.5 65.5q167 0 285.5 -118.5t118.5 -286.5
q0 -107 -54 -202q-13 -5 -21 -5q-54 0 -76 76q62 68 105 144q3 6 3 9t-2 3q-4 0 -8 -8q-39 -72 -103 -130q-3 13 -9 41t-9.5 42.5t-11 32.5t-19 26t-26.5 8q-42 0 -61 -51q0 -4 3 -4q45 0 68 -29.5t42 -84.5q-89 -69 -164 -69q-66 0 -66 97q0 79 42 196q31 2 156 15t169 13
q11 0 11 5q0 4 -10 4q-49 0 -139.5 0.5t-171.5 0.5q44 107 66 107q7 0 7 -19q0 -6 6 -6q13 0 13 13q0 9 -8 16t-22 7q-18 0 -45 -33t-55 -85h-32q-20 0 -20 -11q0 -8 8.5 -15.5t24.5 -10.5q-60 -129 -60 -225q0 -122 108 -122q88 0 189 101q10 -31 18.5 -48.5t25.5 -32.5
t40 -15z" />
    <glyph glyph-name="ordfeminine" unicode="&#xaa;" 
d="M818 191q22 0 43 19.5t31 39.5l10 19q-1 -4 -4 -11.5t-13 -26.5t-22 -34t-33 -28.5t-44 -16.5q-118 -116 -284 -116q-168 0 -286.5 118.5t-118.5 285.5q0 34 7 76q-31 -22 -62 -53q9 16 23 37.5t49.5 64t74.5 74.5t97 57.5t117 25.5q55 0 55 -32q0 -22 -25 -61.5t-60 -86
t-70.5 -95.5t-60.5 -101t-25 -92q0 -29 17.5 -48t44.5 -19q24 0 43.5 18t19.5 39q0 5 -5 5q-3 -1 -11 -1q-29 0 -29 36q0 44 51 126.5t102 161.5t51 114q0 27 -20.5 46.5t-59.5 19.5q-159 0 -289 -146q49 108 148.5 173.5t221.5 65.5q167 0 285.5 -118.5t118.5 -286.5
q0 -107 -54 -202q-13 -5 -21 -5q-54 0 -76 76q62 68 105 144q3 6 3 9t-2 3q-4 0 -8 -8q-39 -72 -103 -130q-3 13 -9 41t-9.5 42.5t-11 32.5t-19 26t-26.5 8q-42 0 -61 -51q0 -4 3 -4q45 0 68 -29.5t42 -84.5q-89 -69 -164 -69q-66 0 -66 97q0 79 42 196q31 2 156 15t169 13
q11 0 11 5q0 4 -10 4q-49 0 -139.5 0.5t-171.5 0.5q44 107 66 107q7 0 7 -19q0 -6 6 -6q13 0 13 13q0 9 -8 16t-22 7q-18 0 -45 -33t-55 -85h-32q-20 0 -20 -11q0 -8 8.5 -15.5t24.5 -10.5q-60 -129 -60 -225q0 -122 108 -122q88 0 189 101q10 -31 18.5 -48.5t25.5 -32.5
t40 -15z" />
    <glyph glyph-name="guillemotleft" unicode="&#xab;" 
d="M818 191q22 0 43 19.5t31 39.5l10 19q-1 -4 -4 -11.5t-13 -26.5t-22 -34t-33 -28.5t-44 -16.5q-118 -116 -284 -116q-168 0 -286.5 118.5t-118.5 285.5q0 34 7 76q-31 -22 -62 -53q9 16 23 37.5t49.5 64t74.5 74.5t97 57.5t117 25.5q55 0 55 -32q0 -22 -25 -61.5t-60 -86
t-70.5 -95.5t-60.5 -101t-25 -92q0 -29 17.5 -48t44.5 -19q24 0 43.5 18t19.5 39q0 5 -5 5q-3 -1 -11 -1q-29 0 -29 36q0 44 51 126.5t102 161.5t51 114q0 27 -20.5 46.5t-59.5 19.5q-159 0 -289 -146q49 108 148.5 173.5t221.5 65.5q167 0 285.5 -118.5t118.5 -286.5
q0 -107 -54 -202q-13 -5 -21 -5q-54 0 -76 76q62 68 105 144q3 6 3 9t-2 3q-4 0 -8 -8q-39 -72 -103 -130q-3 13 -9 41t-9.5 42.5t-11 32.5t-19 26t-26.5 8q-42 0 -61 -51q0 -4 3 -4q45 0 68 -29.5t42 -84.5q-89 -69 -164 -69q-66 0 -66 97q0 79 42 196q31 2 156 15t169 13
q11 0 11 5q0 4 -10 4q-49 0 -139.5 0.5t-171.5 0.5q44 107 66 107q7 0 7 -19q0 -6 6 -6q13 0 13 13q0 9 -8 16t-22 7q-18 0 -45 -33t-55 -85h-32q-20 0 -20 -11q0 -8 8.5 -15.5t24.5 -10.5q-60 -129 -60 -225q0 -122 108 -122q88 0 189 101q10 -31 18.5 -48.5t25.5 -32.5
t40 -15z" />
    <glyph glyph-name="registered" unicode="&#xae;" 
d="M818 191q22 0 43 19.5t31 39.5l10 19q-1 -4 -4 -11.5t-13 -26.5t-22 -34t-33 -28.5t-44 -16.5q-118 -116 -284 -116q-168 0 -286.5 118.5t-118.5 285.5q0 34 7 76q-31 -22 -62 -53q9 16 23 37.5t49.5 64t74.5 74.5t97 57.5t117 25.5q55 0 55 -32q0 -22 -25 -61.5t-60 -86
t-70.5 -95.5t-60.5 -101t-25 -92q0 -29 17.5 -48t44.5 -19q24 0 43.5 18t19.5 39q0 5 -5 5q-3 -1 -11 -1q-29 0 -29 36q0 44 51 126.5t102 161.5t51 114q0 27 -20.5 46.5t-59.5 19.5q-159 0 -289 -146q49 108 148.5 173.5t221.5 65.5q167 0 285.5 -118.5t118.5 -286.5
q0 -107 -54 -202q-13 -5 -21 -5q-54 0 -76 76q62 68 105 144q3 6 3 9t-2 3q-4 0 -8 -8q-39 -72 -103 -130q-3 13 -9 41t-9.5 42.5t-11 32.5t-19 26t-26.5 8q-42 0 -61 -51q0 -4 3 -4q45 0 68 -29.5t42 -84.5q-89 -69 -164 -69q-66 0 -66 97q0 79 42 196q31 2 156 15t169 13
q11 0 11 5q0 4 -10 4q-49 0 -139.5 0.5t-171.5 0.5q44 107 66 107q7 0 7 -19q0 -6 6 -6q13 0 13 13q0 9 -8 16t-22 7q-18 0 -45 -33t-55 -85h-32q-20 0 -20 -11q0 -8 8.5 -15.5t24.5 -10.5q-60 -129 -60 -225q0 -122 108 -122q88 0 189 101q10 -31 18.5 -48.5t25.5 -32.5
t40 -15z" />
    <glyph glyph-name="degree" unicode="&#xb0;" 
d="M818 191q22 0 43 19.5t31 39.5l10 19q-1 -4 -4 -11.5t-13 -26.5t-22 -34t-33 -28.5t-44 -16.5q-118 -116 -284 -116q-168 0 -286.5 118.5t-118.5 285.5q0 34 7 76q-31 -22 -62 -53q9 16 23 37.5t49.5 64t74.5 74.5t97 57.5t117 25.5q55 0 55 -32q0 -22 -25 -61.5t-60 -86
t-70.5 -95.5t-60.5 -101t-25 -92q0 -29 17.5 -48t44.5 -19q24 0 43.5 18t19.5 39q0 5 -5 5q-3 -1 -11 -1q-29 0 -29 36q0 44 51 126.5t102 161.5t51 114q0 27 -20.5 46.5t-59.5 19.5q-159 0 -289 -146q49 108 148.5 173.5t221.5 65.5q167 0 285.5 -118.5t118.5 -286.5
q0 -107 -54 -202q-13 -5 -21 -5q-54 0 -76 76q62 68 105 144q3 6 3 9t-2 3q-4 0 -8 -8q-39 -72 -103 -130q-3 13 -9 41t-9.5 42.5t-11 32.5t-19 26t-26.5 8q-42 0 -61 -51q0 -4 3 -4q45 0 68 -29.5t42 -84.5q-89 -69 -164 -69q-66 0 -66 97q0 79 42 196q31 2 156 15t169 13
q11 0 11 5q0 4 -10 4q-49 0 -139.5 0.5t-171.5 0.5q44 107 66 107q7 0 7 -19q0 -6 6 -6q13 0 13 13q0 9 -8 16t-22 7q-18 0 -45 -33t-55 -85h-32q-20 0 -20 -11q0 -8 8.5 -15.5t24.5 -10.5q-60 -129 -60 -225q0 -122 108 -122q88 0 189 101q10 -31 18.5 -48.5t25.5 -32.5
t40 -15z" />
    <glyph glyph-name="plusminus" unicode="&#xb1;" 
d="M818 191q22 0 43 19.5t31 39.5l10 19q-1 -4 -4 -11.5t-13 -26.5t-22 -34t-33 -28.5t-44 -16.5q-118 -116 -284 -116q-168 0 -286.5 118.5t-118.5 285.5q0 34 7 76q-31 -22 -62 -53q9 16 23 37.5t49.5 64t74.5 74.5t97 57.5t117 25.5q55 0 55 -32q0 -22 -25 -61.5t-60 -86
t-70.5 -95.5t-60.5 -101t-25 -92q0 -29 17.5 -48t44.5 -19q24 0 43.5 18t19.5 39q0 5 -5 5q-3 -1 -11 -1q-29 0 -29 36q0 44 51 126.5t102 161.5t51 114q0 27 -20.5 46.5t-59.5 19.5q-159 0 -289 -146q49 108 148.5 173.5t221.5 65.5q167 0 285.5 -118.5t118.5 -286.5
q0 -107 -54 -202q-13 -5 -21 -5q-54 0 -76 76q62 68 105 144q3 6 3 9t-2 3q-4 0 -8 -8q-39 -72 -103 -130q-3 13 -9 41t-9.5 42.5t-11 32.5t-19 26t-26.5 8q-42 0 -61 -51q0 -4 3 -4q45 0 68 -29.5t42 -84.5q-89 -69 -164 -69q-66 0 -66 97q0 79 42 196q31 2 156 15t169 13
q11 0 11 5q0 4 -10 4q-49 0 -139.5 0.5t-171.5 0.5q44 107 66 107q7 0 7 -19q0 -6 6 -6q13 0 13 13q0 9 -8 16t-22 7q-18 0 -45 -33t-55 -85h-32q-20 0 -20 -11q0 -8 8.5 -15.5t24.5 -10.5q-60 -129 -60 -225q0 -122 108 -122q88 0 189 101q10 -31 18.5 -48.5t25.5 -32.5
t40 -15z" />
    <glyph glyph-name="twosuperior" unicode="&#xb2;" 
d="M818 191q22 0 43 19.5t31 39.5l10 19q-1 -4 -4 -11.5t-13 -26.5t-22 -34t-33 -28.5t-44 -16.5q-118 -116 -284 -116q-168 0 -286.5 118.5t-118.5 285.5q0 34 7 76q-31 -22 -62 -53q9 16 23 37.5t49.5 64t74.5 74.5t97 57.5t117 25.5q55 0 55 -32q0 -22 -25 -61.5t-60 -86
t-70.5 -95.5t-60.5 -101t-25 -92q0 -29 17.5 -48t44.5 -19q24 0 43.5 18t19.5 39q0 5 -5 5q-3 -1 -11 -1q-29 0 -29 36q0 44 51 126.5t102 161.5t51 114q0 27 -20.5 46.5t-59.5 19.5q-159 0 -289 -146q49 108 148.5 173.5t221.5 65.5q167 0 285.5 -118.5t118.5 -286.5
q0 -107 -54 -202q-13 -5 -21 -5q-54 0 -76 76q62 68 105 144q3 6 3 9t-2 3q-4 0 -8 -8q-39 -72 -103 -130q-3 13 -9 41t-9.5 42.5t-11 32.5t-19 26t-26.5 8q-42 0 -61 -51q0 -4 3 -4q45 0 68 -29.5t42 -84.5q-89 -69 -164 -69q-66 0 -66 97q0 79 42 196q31 2 156 15t169 13
q11 0 11 5q0 4 -10 4q-49 0 -139.5 0.5t-171.5 0.5q44 107 66 107q7 0 7 -19q0 -6 6 -6q13 0 13 13q0 9 -8 16t-22 7q-18 0 -45 -33t-55 -85h-32q-20 0 -20 -11q0 -8 8.5 -15.5t24.5 -10.5q-60 -129 -60 -225q0 -122 108 -122q88 0 189 101q10 -31 18.5 -48.5t25.5 -32.5
t40 -15z" />
    <glyph glyph-name="threesuperior" unicode="&#xb3;" 
d="M818 191q22 0 43 19.5t31 39.5l10 19q-1 -4 -4 -11.5t-13 -26.5t-22 -34t-33 -28.5t-44 -16.5q-118 -116 -284 -116q-168 0 -286.5 118.5t-118.5 285.5q0 34 7 76q-31 -22 -62 -53q9 16 23 37.5t49.5 64t74.5 74.5t97 57.5t117 25.5q55 0 55 -32q0 -22 -25 -61.5t-60 -86
t-70.5 -95.5t-60.5 -101t-25 -92q0 -29 17.5 -48t44.5 -19q24 0 43.5 18t19.5 39q0 5 -5 5q-3 -1 -11 -1q-29 0 -29 36q0 44 51 126.5t102 161.5t51 114q0 27 -20.5 46.5t-59.5 19.5q-159 0 -289 -146q49 108 148.5 173.5t221.5 65.5q167 0 285.5 -118.5t118.5 -286.5
q0 -107 -54 -202q-13 -5 -21 -5q-54 0 -76 76q62 68 105 144q3 6 3 9t-2 3q-4 0 -8 -8q-39 -72 -103 -130q-3 13 -9 41t-9.5 42.5t-11 32.5t-19 26t-26.5 8q-42 0 -61 -51q0 -4 3 -4q45 0 68 -29.5t42 -84.5q-89 -69 -164 -69q-66 0 -66 97q0 79 42 196q31 2 156 15t169 13
q11 0 11 5q0 4 -10 4q-49 0 -139.5 0.5t-171.5 0.5q44 107 66 107q7 0 7 -19q0 -6 6 -6q13 0 13 13q0 9 -8 16t-22 7q-18 0 -45 -33t-55 -85h-32q-20 0 -20 -11q0 -8 8.5 -15.5t24.5 -10.5q-60 -129 -60 -225q0 -122 108 -122q88 0 189 101q10 -31 18.5 -48.5t25.5 -32.5
t40 -15z" />
    <glyph glyph-name="acute" unicode="&#xb4;" 
d="M818 191q22 0 43 19.5t31 39.5l10 19q-1 -4 -4 -11.5t-13 -26.5t-22 -34t-33 -28.5t-44 -16.5q-118 -116 -284 -116q-168 0 -286.5 118.5t-118.5 285.5q0 34 7 76q-31 -22 -62 -53q9 16 23 37.5t49.5 64t74.5 74.5t97 57.5t117 25.5q55 0 55 -32q0 -22 -25 -61.5t-60 -86
t-70.5 -95.5t-60.5 -101t-25 -92q0 -29 17.5 -48t44.5 -19q24 0 43.5 18t19.5 39q0 5 -5 5q-3 -1 -11 -1q-29 0 -29 36q0 44 51 126.5t102 161.5t51 114q0 27 -20.5 46.5t-59.5 19.5q-159 0 -289 -146q49 108 148.5 173.5t221.5 65.5q167 0 285.5 -118.5t118.5 -286.5
q0 -107 -54 -202q-13 -5 -21 -5q-54 0 -76 76q62 68 105 144q3 6 3 9t-2 3q-4 0 -8 -8q-39 -72 -103 -130q-3 13 -9 41t-9.5 42.5t-11 32.5t-19 26t-26.5 8q-42 0 -61 -51q0 -4 3 -4q45 0 68 -29.5t42 -84.5q-89 -69 -164 -69q-66 0 -66 97q0 79 42 196q31 2 156 15t169 13
q11 0 11 5q0 4 -10 4q-49 0 -139.5 0.5t-171.5 0.5q44 107 66 107q7 0 7 -19q0 -6 6 -6q13 0 13 13q0 9 -8 16t-22 7q-18 0 -45 -33t-55 -85h-32q-20 0 -20 -11q0 -8 8.5 -15.5t24.5 -10.5q-60 -129 -60 -225q0 -122 108 -122q88 0 189 101q10 -31 18.5 -48.5t25.5 -32.5
t40 -15z" />
    <glyph glyph-name="mu" unicode="&#xb5;" 
d="M818 191q22 0 43 19.5t31 39.5l10 19q-1 -4 -4 -11.5t-13 -26.5t-22 -34t-33 -28.5t-44 -16.5q-118 -116 -284 -116q-168 0 -286.5 118.5t-118.5 285.5q0 34 7 76q-31 -22 -62 -53q9 16 23 37.5t49.5 64t74.5 74.5t97 57.5t117 25.5q55 0 55 -32q0 -22 -25 -61.5t-60 -86
t-70.5 -95.5t-60.5 -101t-25 -92q0 -29 17.5 -48t44.5 -19q24 0 43.5 18t19.5 39q0 5 -5 5q-3 -1 -11 -1q-29 0 -29 36q0 44 51 126.5t102 161.5t51 114q0 27 -20.5 46.5t-59.5 19.5q-159 0 -289 -146q49 108 148.5 173.5t221.5 65.5q167 0 285.5 -118.5t118.5 -286.5
q0 -107 -54 -202q-13 -5 -21 -5q-54 0 -76 76q62 68 105 144q3 6 3 9t-2 3q-4 0 -8 -8q-39 -72 -103 -130q-3 13 -9 41t-9.5 42.5t-11 32.5t-19 26t-26.5 8q-42 0 -61 -51q0 -4 3 -4q45 0 68 -29.5t42 -84.5q-89 -69 -164 -69q-66 0 -66 97q0 79 42 196q31 2 156 15t169 13
q11 0 11 5q0 4 -10 4q-49 0 -139.5 0.5t-171.5 0.5q44 107 66 107q7 0 7 -19q0 -6 6 -6q13 0 13 13q0 9 -8 16t-22 7q-18 0 -45 -33t-55 -85h-32q-20 0 -20 -11q0 -8 8.5 -15.5t24.5 -10.5q-60 -129 -60 -225q0 -122 108 -122q88 0 189 101q10 -31 18.5 -48.5t25.5 -32.5
t40 -15z" />
    <glyph glyph-name="paragraph" unicode="&#xb6;" 
d="M818 191q22 0 43 19.5t31 39.5l10 19q-1 -4 -4 -11.5t-13 -26.5t-22 -34t-33 -28.5t-44 -16.5q-118 -116 -284 -116q-168 0 -286.5 118.5t-118.5 285.5q0 34 7 76q-31 -22 -62 -53q9 16 23 37.5t49.5 64t74.5 74.5t97 57.5t117 25.5q55 0 55 -32q0 -22 -25 -61.5t-60 -86
t-70.5 -95.5t-60.5 -101t-25 -92q0 -29 17.5 -48t44.5 -19q24 0 43.5 18t19.5 39q0 5 -5 5q-3 -1 -11 -1q-29 0 -29 36q0 44 51 126.5t102 161.5t51 114q0 27 -20.5 46.5t-59.5 19.5q-159 0 -289 -146q49 108 148.5 173.5t221.5 65.5q167 0 285.5 -118.5t118.5 -286.5
q0 -107 -54 -202q-13 -5 -21 -5q-54 0 -76 76q62 68 105 144q3 6 3 9t-2 3q-4 0 -8 -8q-39 -72 -103 -130q-3 13 -9 41t-9.5 42.5t-11 32.5t-19 26t-26.5 8q-42 0 -61 -51q0 -4 3 -4q45 0 68 -29.5t42 -84.5q-89 -69 -164 -69q-66 0 -66 97q0 79 42 196q31 2 156 15t169 13
q11 0 11 5q0 4 -10 4q-49 0 -139.5 0.5t-171.5 0.5q44 107 66 107q7 0 7 -19q0 -6 6 -6q13 0 13 13q0 9 -8 16t-22 7q-18 0 -45 -33t-55 -85h-32q-20 0 -20 -11q0 -8 8.5 -15.5t24.5 -10.5q-60 -129 -60 -225q0 -122 108 -122q88 0 189 101q10 -31 18.5 -48.5t25.5 -32.5
t40 -15z" />
    <glyph glyph-name="periodcentered" unicode="&#xb7;" 
d="M818 191q22 0 43 19.5t31 39.5l10 19q-1 -4 -4 -11.5t-13 -26.5t-22 -34t-33 -28.5t-44 -16.5q-118 -116 -284 -116q-168 0 -286.5 118.5t-118.5 285.5q0 34 7 76q-31 -22 -62 -53q9 16 23 37.5t49.5 64t74.5 74.5t97 57.5t117 25.5q55 0 55 -32q0 -22 -25 -61.5t-60 -86
t-70.5 -95.5t-60.5 -101t-25 -92q0 -29 17.5 -48t44.5 -19q24 0 43.5 18t19.5 39q0 5 -5 5q-3 -1 -11 -1q-29 0 -29 36q0 44 51 126.5t102 161.5t51 114q0 27 -20.5 46.5t-59.5 19.5q-159 0 -289 -146q49 108 148.5 173.5t221.5 65.5q167 0 285.5 -118.5t118.5 -286.5
q0 -107 -54 -202q-13 -5 -21 -5q-54 0 -76 76q62 68 105 144q3 6 3 9t-2 3q-4 0 -8 -8q-39 -72 -103 -130q-3 13 -9 41t-9.5 42.5t-11 32.5t-19 26t-26.5 8q-42 0 -61 -51q0 -4 3 -4q45 0 68 -29.5t42 -84.5q-89 -69 -164 -69q-66 0 -66 97q0 79 42 196q31 2 156 15t169 13
q11 0 11 5q0 4 -10 4q-49 0 -139.5 0.5t-171.5 0.5q44 107 66 107q7 0 7 -19q0 -6 6 -6q13 0 13 13q0 9 -8 16t-22 7q-18 0 -45 -33t-55 -85h-32q-20 0 -20 -11q0 -8 8.5 -15.5t24.5 -10.5q-60 -129 -60 -225q0 -122 108 -122q88 0 189 101q10 -31 18.5 -48.5t25.5 -32.5
t40 -15z" />
    <glyph glyph-name="cedilla" unicode="&#xb8;" 
d="M818 191q22 0 43 19.5t31 39.5l10 19q-1 -4 -4 -11.5t-13 -26.5t-22 -34t-33 -28.5t-44 -16.5q-118 -116 -284 -116q-168 0 -286.5 118.5t-118.5 285.5q0 34 7 76q-31 -22 -62 -53q9 16 23 37.5t49.5 64t74.5 74.5t97 57.5t117 25.5q55 0 55 -32q0 -22 -25 -61.5t-60 -86
t-70.5 -95.5t-60.5 -101t-25 -92q0 -29 17.5 -48t44.5 -19q24 0 43.5 18t19.5 39q0 5 -5 5q-3 -1 -11 -1q-29 0 -29 36q0 44 51 126.5t102 161.5t51 114q0 27 -20.5 46.5t-59.5 19.5q-159 0 -289 -146q49 108 148.5 173.5t221.5 65.5q167 0 285.5 -118.5t118.5 -286.5
q0 -107 -54 -202q-13 -5 -21 -5q-54 0 -76 76q62 68 105 144q3 6 3 9t-2 3q-4 0 -8 -8q-39 -72 -103 -130q-3 13 -9 41t-9.5 42.5t-11 32.5t-19 26t-26.5 8q-42 0 -61 -51q0 -4 3 -4q45 0 68 -29.5t42 -84.5q-89 -69 -164 -69q-66 0 -66 97q0 79 42 196q31 2 156 15t169 13
q11 0 11 5q0 4 -10 4q-49 0 -139.5 0.5t-171.5 0.5q44 107 66 107q7 0 7 -19q0 -6 6 -6q13 0 13 13q0 9 -8 16t-22 7q-18 0 -45 -33t-55 -85h-32q-20 0 -20 -11q0 -8 8.5 -15.5t24.5 -10.5q-60 -129 -60 -225q0 -122 108 -122q88 0 189 101q10 -31 18.5 -48.5t25.5 -32.5
t40 -15z" />
    <glyph glyph-name="onesuperior" unicode="&#xb9;" 
d="M818 191q22 0 43 19.5t31 39.5l10 19q-1 -4 -4 -11.5t-13 -26.5t-22 -34t-33 -28.5t-44 -16.5q-118 -116 -284 -116q-168 0 -286.5 118.5t-118.5 285.5q0 34 7 76q-31 -22 -62 -53q9 16 23 37.5t49.5 64t74.5 74.5t97 57.5t117 25.5q55 0 55 -32q0 -22 -25 -61.5t-60 -86
t-70.5 -95.5t-60.5 -101t-25 -92q0 -29 17.5 -48t44.5 -19q24 0 43.5 18t19.5 39q0 5 -5 5q-3 -1 -11 -1q-29 0 -29 36q0 44 51 126.5t102 161.5t51 114q0 27 -20.5 46.5t-59.5 19.5q-159 0 -289 -146q49 108 148.5 173.5t221.5 65.5q167 0 285.5 -118.5t118.5 -286.5
q0 -107 -54 -202q-13 -5 -21 -5q-54 0 -76 76q62 68 105 144q3 6 3 9t-2 3q-4 0 -8 -8q-39 -72 -103 -130q-3 13 -9 41t-9.5 42.5t-11 32.5t-19 26t-26.5 8q-42 0 -61 -51q0 -4 3 -4q45 0 68 -29.5t42 -84.5q-89 -69 -164 -69q-66 0 -66 97q0 79 42 196q31 2 156 15t169 13
q11 0 11 5q0 4 -10 4q-49 0 -139.5 0.5t-171.5 0.5q44 107 66 107q7 0 7 -19q0 -6 6 -6q13 0 13 13q0 9 -8 16t-22 7q-18 0 -45 -33t-55 -85h-32q-20 0 -20 -11q0 -8 8.5 -15.5t24.5 -10.5q-60 -129 -60 -225q0 -122 108 -122q88 0 189 101q10 -31 18.5 -48.5t25.5 -32.5
t40 -15z" />
    <glyph glyph-name="ordmasculine" unicode="&#xba;" 
d="M818 191q22 0 43 19.5t31 39.5l10 19q-1 -4 -4 -11.5t-13 -26.5t-22 -34t-33 -28.5t-44 -16.5q-118 -116 -284 -116q-168 0 -286.5 118.5t-118.5 285.5q0 34 7 76q-31 -22 -62 -53q9 16 23 37.5t49.5 64t74.5 74.5t97 57.5t117 25.5q55 0 55 -32q0 -22 -25 -61.5t-60 -86
t-70.5 -95.5t-60.5 -101t-25 -92q0 -29 17.5 -48t44.5 -19q24 0 43.5 18t19.5 39q0 5 -5 5q-3 -1 -11 -1q-29 0 -29 36q0 44 51 126.5t102 161.5t51 114q0 27 -20.5 46.5t-59.5 19.5q-159 0 -289 -146q49 108 148.5 173.5t221.5 65.5q167 0 285.5 -118.5t118.5 -286.5
q0 -107 -54 -202q-13 -5 -21 -5q-54 0 -76 76q62 68 105 144q3 6 3 9t-2 3q-4 0 -8 -8q-39 -72 -103 -130q-3 13 -9 41t-9.5 42.5t-11 32.5t-19 26t-26.5 8q-42 0 -61 -51q0 -4 3 -4q45 0 68 -29.5t42 -84.5q-89 -69 -164 -69q-66 0 -66 97q0 79 42 196q31 2 156 15t169 13
q11 0 11 5q0 4 -10 4q-49 0 -139.5 0.5t-171.5 0.5q44 107 66 107q7 0 7 -19q0 -6 6 -6q13 0 13 13q0 9 -8 16t-22 7q-18 0 -45 -33t-55 -85h-32q-20 0 -20 -11q0 -8 8.5 -15.5t24.5 -10.5q-60 -129 -60 -225q0 -122 108 -122q88 0 189 101q10 -31 18.5 -48.5t25.5 -32.5
t40 -15z" />
    <glyph glyph-name="guillemotright" unicode="&#xbb;" 
d="M818 191q22 0 43 19.5t31 39.5l10 19q-1 -4 -4 -11.5t-13 -26.5t-22 -34t-33 -28.5t-44 -16.5q-118 -116 -284 -116q-168 0 -286.5 118.5t-118.5 285.5q0 34 7 76q-31 -22 -62 -53q9 16 23 37.5t49.5 64t74.5 74.5t97 57.5t117 25.5q55 0 55 -32q0 -22 -25 -61.5t-60 -86
t-70.5 -95.5t-60.5 -101t-25 -92q0 -29 17.5 -48t44.5 -19q24 0 43.5 18t19.5 39q0 5 -5 5q-3 -1 -11 -1q-29 0 -29 36q0 44 51 126.5t102 161.5t51 114q0 27 -20.5 46.5t-59.5 19.5q-159 0 -289 -146q49 108 148.5 173.5t221.5 65.5q167 0 285.5 -118.5t118.5 -286.5
q0 -107 -54 -202q-13 -5 -21 -5q-54 0 -76 76q62 68 105 144q3 6 3 9t-2 3q-4 0 -8 -8q-39 -72 -103 -130q-3 13 -9 41t-9.5 42.5t-11 32.5t-19 26t-26.5 8q-42 0 -61 -51q0 -4 3 -4q45 0 68 -29.5t42 -84.5q-89 -69 -164 -69q-66 0 -66 97q0 79 42 196q31 2 156 15t169 13
q11 0 11 5q0 4 -10 4q-49 0 -139.5 0.5t-171.5 0.5q44 107 66 107q7 0 7 -19q0 -6 6 -6q13 0 13 13q0 9 -8 16t-22 7q-18 0 -45 -33t-55 -85h-32q-20 0 -20 -11q0 -8 8.5 -15.5t24.5 -10.5q-60 -129 -60 -225q0 -122 108 -122q88 0 189 101q10 -31 18.5 -48.5t25.5 -32.5
t40 -15z" />
    <glyph glyph-name="onequarter" unicode="&#xbc;" 
d="M818 191q22 0 43 19.5t31 39.5l10 19q-1 -4 -4 -11.5t-13 -26.5t-22 -34t-33 -28.5t-44 -16.5q-118 -116 -284 -116q-168 0 -286.5 118.5t-118.5 285.5q0 34 7 76q-31 -22 -62 -53q9 16 23 37.5t49.5 64t74.5 74.5t97 57.5t117 25.5q55 0 55 -32q0 -22 -25 -61.5t-60 -86
t-70.5 -95.5t-60.5 -101t-25 -92q0 -29 17.5 -48t44.5 -19q24 0 43.5 18t19.5 39q0 5 -5 5q-3 -1 -11 -1q-29 0 -29 36q0 44 51 126.5t102 161.5t51 114q0 27 -20.5 46.5t-59.5 19.5q-159 0 -289 -146q49 108 148.5 173.5t221.5 65.5q167 0 285.5 -118.5t118.5 -286.5
q0 -107 -54 -202q-13 -5 -21 -5q-54 0 -76 76q62 68 105 144q3 6 3 9t-2 3q-4 0 -8 -8q-39 -72 -103 -130q-3 13 -9 41t-9.5 42.5t-11 32.5t-19 26t-26.5 8q-42 0 -61 -51q0 -4 3 -4q45 0 68 -29.5t42 -84.5q-89 -69 -164 -69q-66 0 -66 97q0 79 42 196q31 2 156 15t169 13
q11 0 11 5q0 4 -10 4q-49 0 -139.5 0.5t-171.5 0.5q44 107 66 107q7 0 7 -19q0 -6 6 -6q13 0 13 13q0 9 -8 16t-22 7q-18 0 -45 -33t-55 -85h-32q-20 0 -20 -11q0 -8 8.5 -15.5t24.5 -10.5q-60 -129 -60 -225q0 -122 108 -122q88 0 189 101q10 -31 18.5 -48.5t25.5 -32.5
t40 -15z" />
    <glyph glyph-name="onehalf" unicode="&#xbd;" 
d="M818 191q22 0 43 19.5t31 39.5l10 19q-1 -4 -4 -11.5t-13 -26.5t-22 -34t-33 -28.5t-44 -16.5q-118 -116 -284 -116q-168 0 -286.5 118.5t-118.5 285.5q0 34 7 76q-31 -22 -62 -53q9 16 23 37.5t49.5 64t74.5 74.5t97 57.5t117 25.5q55 0 55 -32q0 -22 -25 -61.5t-60 -86
t-70.5 -95.5t-60.5 -101t-25 -92q0 -29 17.5 -48t44.5 -19q24 0 43.5 18t19.5 39q0 5 -5 5q-3 -1 -11 -1q-29 0 -29 36q0 44 51 126.5t102 161.5t51 114q0 27 -20.5 46.5t-59.5 19.5q-159 0 -289 -146q49 108 148.5 173.5t221.5 65.5q167 0 285.5 -118.5t118.5 -286.5
q0 -107 -54 -202q-13 -5 -21 -5q-54 0 -76 76q62 68 105 144q3 6 3 9t-2 3q-4 0 -8 -8q-39 -72 -103 -130q-3 13 -9 41t-9.5 42.5t-11 32.5t-19 26t-26.5 8q-42 0 -61 -51q0 -4 3 -4q45 0 68 -29.5t42 -84.5q-89 -69 -164 -69q-66 0 -66 97q0 79 42 196q31 2 156 15t169 13
q11 0 11 5q0 4 -10 4q-49 0 -139.5 0.5t-171.5 0.5q44 107 66 107q7 0 7 -19q0 -6 6 -6q13 0 13 13q0 9 -8 16t-22 7q-18 0 -45 -33t-55 -85h-32q-20 0 -20 -11q0 -8 8.5 -15.5t24.5 -10.5q-60 -129 -60 -225q0 -122 108 -122q88 0 189 101q10 -31 18.5 -48.5t25.5 -32.5
t40 -15z" />
    <glyph glyph-name="threequarters" unicode="&#xbe;" 
d="M818 191q22 0 43 19.5t31 39.5l10 19q-1 -4 -4 -11.5t-13 -26.5t-22 -34t-33 -28.5t-44 -16.5q-118 -116 -284 -116q-168 0 -286.5 118.5t-118.5 285.5q0 34 7 76q-31 -22 -62 -53q9 16 23 37.5t49.5 64t74.5 74.5t97 57.5t117 25.5q55 0 55 -32q0 -22 -25 -61.5t-60 -86
t-70.5 -95.5t-60.5 -101t-25 -92q0 -29 17.5 -48t44.5 -19q24 0 43.5 18t19.5 39q0 5 -5 5q-3 -1 -11 -1q-29 0 -29 36q0 44 51 126.5t102 161.5t51 114q0 27 -20.5 46.5t-59.5 19.5q-159 0 -289 -146q49 108 148.5 173.5t221.5 65.5q167 0 285.5 -118.5t118.5 -286.5
q0 -107 -54 -202q-13 -5 -21 -5q-54 0 -76 76q62 68 105 144q3 6 3 9t-2 3q-4 0 -8 -8q-39 -72 -103 -130q-3 13 -9 41t-9.5 42.5t-11 32.5t-19 26t-26.5 8q-42 0 -61 -51q0 -4 3 -4q45 0 68 -29.5t42 -84.5q-89 -69 -164 -69q-66 0 -66 97q0 79 42 196q31 2 156 15t169 13
q11 0 11 5q0 4 -10 4q-49 0 -139.5 0.5t-171.5 0.5q44 107 66 107q7 0 7 -19q0 -6 6 -6q13 0 13 13q0 9 -8 16t-22 7q-18 0 -45 -33t-55 -85h-32q-20 0 -20 -11q0 -8 8.5 -15.5t24.5 -10.5q-60 -129 -60 -225q0 -122 108 -122q88 0 189 101q10 -31 18.5 -48.5t25.5 -32.5
t40 -15z" />
    <glyph glyph-name="questiondown" unicode="&#xbf;" 
d="M818 191q22 0 43 19.5t31 39.5l10 19q-1 -4 -4 -11.5t-13 -26.5t-22 -34t-33 -28.5t-44 -16.5q-118 -116 -284 -116q-168 0 -286.5 118.5t-118.5 285.5q0 34 7 76q-31 -22 -62 -53q9 16 23 37.5t49.5 64t74.5 74.5t97 57.5t117 25.5q55 0 55 -32q0 -22 -25 -61.5t-60 -86
t-70.5 -95.5t-60.5 -101t-25 -92q0 -29 17.5 -48t44.5 -19q24 0 43.5 18t19.5 39q0 5 -5 5q-3 -1 -11 -1q-29 0 -29 36q0 44 51 126.5t102 161.5t51 114q0 27 -20.5 46.5t-59.5 19.5q-159 0 -289 -146q49 108 148.5 173.5t221.5 65.5q167 0 285.5 -118.5t118.5 -286.5
q0 -107 -54 -202q-13 -5 -21 -5q-54 0 -76 76q62 68 105 144q3 6 3 9t-2 3q-4 0 -8 -8q-39 -72 -103 -130q-3 13 -9 41t-9.5 42.5t-11 32.5t-19 26t-26.5 8q-42 0 -61 -51q0 -4 3 -4q45 0 68 -29.5t42 -84.5q-89 -69 -164 -69q-66 0 -66 97q0 79 42 196q31 2 156 15t169 13
q11 0 11 5q0 4 -10 4q-49 0 -139.5 0.5t-171.5 0.5q44 107 66 107q7 0 7 -19q0 -6 6 -6q13 0 13 13q0 9 -8 16t-22 7q-18 0 -45 -33t-55 -85h-32q-20 0 -20 -11q0 -8 8.5 -15.5t24.5 -10.5q-60 -129 -60 -225q0 -122 108 -122q88 0 189 101q10 -31 18.5 -48.5t25.5 -32.5
t40 -15z" />
    <glyph glyph-name="Agrave" unicode="&#xc0;" 
d="M818 191q22 0 43 19.5t31 39.5l10 19q-1 -4 -4 -11.5t-13 -26.5t-22 -34t-33 -28.5t-44 -16.5q-118 -116 -284 -116q-168 0 -286.5 118.5t-118.5 285.5q0 34 7 76q-31 -22 -62 -53q9 16 23 37.5t49.5 64t74.5 74.5t97 57.5t117 25.5q55 0 55 -32q0 -22 -25 -61.5t-60 -86
t-70.5 -95.5t-60.5 -101t-25 -92q0 -29 17.5 -48t44.5 -19q24 0 43.5 18t19.5 39q0 5 -5 5q-3 -1 -11 -1q-29 0 -29 36q0 44 51 126.5t102 161.5t51 114q0 27 -20.5 46.5t-59.5 19.5q-159 0 -289 -146q49 108 148.5 173.5t221.5 65.5q167 0 285.5 -118.5t118.5 -286.5
q0 -107 -54 -202q-13 -5 -21 -5q-54 0 -76 76q62 68 105 144q3 6 3 9t-2 3q-4 0 -8 -8q-39 -72 -103 -130q-3 13 -9 41t-9.5 42.5t-11 32.5t-19 26t-26.5 8q-42 0 -61 -51q0 -4 3 -4q45 0 68 -29.5t42 -84.5q-89 -69 -164 -69q-66 0 -66 97q0 79 42 196q31 2 156 15t169 13
q11 0 11 5q0 4 -10 4q-49 0 -139.5 0.5t-171.5 0.5q44 107 66 107q7 0 7 -19q0 -6 6 -6q13 0 13 13q0 9 -8 16t-22 7q-18 0 -45 -33t-55 -85h-32q-20 0 -20 -11q0 -8 8.5 -15.5t24.5 -10.5q-60 -129 -60 -225q0 -122 108 -122q88 0 189 101q10 -31 18.5 -48.5t25.5 -32.5
t40 -15z" />
    <glyph glyph-name="Aacute" unicode="&#xc1;" 
d="M818 191q22 0 43 19.5t31 39.5l10 19q-1 -4 -4 -11.5t-13 -26.5t-22 -34t-33 -28.5t-44 -16.5q-118 -116 -284 -116q-168 0 -286.5 118.5t-118.5 285.5q0 34 7 76q-31 -22 -62 -53q9 16 23 37.5t49.5 64t74.5 74.5t97 57.5t117 25.5q55 0 55 -32q0 -22 -25 -61.5t-60 -86
t-70.5 -95.5t-60.5 -101t-25 -92q0 -29 17.5 -48t44.5 -19q24 0 43.5 18t19.5 39q0 5 -5 5q-3 -1 -11 -1q-29 0 -29 36q0 44 51 126.5t102 161.5t51 114q0 27 -20.5 46.5t-59.5 19.5q-159 0 -289 -146q49 108 148.5 173.5t221.5 65.5q167 0 285.5 -118.5t118.5 -286.5
q0 -107 -54 -202q-13 -5 -21 -5q-54 0 -76 76q62 68 105 144q3 6 3 9t-2 3q-4 0 -8 -8q-39 -72 -103 -130q-3 13 -9 41t-9.5 42.5t-11 32.5t-19 26t-26.5 8q-42 0 -61 -51q0 -4 3 -4q45 0 68 -29.5t42 -84.5q-89 -69 -164 -69q-66 0 -66 97q0 79 42 196q31 2 156 15t169 13
q11 0 11 5q0 4 -10 4q-49 0 -139.5 0.5t-171.5 0.5q44 107 66 107q7 0 7 -19q0 -6 6 -6q13 0 13 13q0 9 -8 16t-22 7q-18 0 -45 -33t-55 -85h-32q-20 0 -20 -11q0 -8 8.5 -15.5t24.5 -10.5q-60 -129 -60 -225q0 -122 108 -122q88 0 189 101q10 -31 18.5 -48.5t25.5 -32.5
t40 -15z" />
    <glyph glyph-name="Acircumflex" unicode="&#xc2;" 
d="M818 191q22 0 43 19.5t31 39.5l10 19q-1 -4 -4 -11.5t-13 -26.5t-22 -34t-33 -28.5t-44 -16.5q-118 -116 -284 -116q-168 0 -286.5 118.5t-118.5 285.5q0 34 7 76q-31 -22 -62 -53q9 16 23 37.5t49.5 64t74.5 74.5t97 57.5t117 25.5q55 0 55 -32q0 -22 -25 -61.5t-60 -86
t-70.5 -95.5t-60.5 -101t-25 -92q0 -29 17.5 -48t44.5 -19q24 0 43.5 18t19.5 39q0 5 -5 5q-3 -1 -11 -1q-29 0 -29 36q0 44 51 126.5t102 161.5t51 114q0 27 -20.5 46.5t-59.5 19.5q-159 0 -289 -146q49 108 148.5 173.5t221.5 65.5q167 0 285.5 -118.5t118.5 -286.5
q0 -107 -54 -202q-13 -5 -21 -5q-54 0 -76 76q62 68 105 144q3 6 3 9t-2 3q-4 0 -8 -8q-39 -72 -103 -130q-3 13 -9 41t-9.5 42.5t-11 32.5t-19 26t-26.5 8q-42 0 -61 -51q0 -4 3 -4q45 0 68 -29.5t42 -84.5q-89 -69 -164 -69q-66 0 -66 97q0 79 42 196q31 2 156 15t169 13
q11 0 11 5q0 4 -10 4q-49 0 -139.5 0.5t-171.5 0.5q44 107 66 107q7 0 7 -19q0 -6 6 -6q13 0 13 13q0 9 -8 16t-22 7q-18 0 -45 -33t-55 -85h-32q-20 0 -20 -11q0 -8 8.5 -15.5t24.5 -10.5q-60 -129 -60 -225q0 -122 108 -122q88 0 189 101q10 -31 18.5 -48.5t25.5 -32.5
t40 -15z" />
    <glyph glyph-name="Atilde" unicode="&#xc3;" 
d="M818 191q22 0 43 19.5t31 39.5l10 19q-1 -4 -4 -11.5t-13 -26.5t-22 -34t-33 -28.5t-44 -16.5q-118 -116 -284 -116q-168 0 -286.5 118.5t-118.5 285.5q0 34 7 76q-31 -22 -62 -53q9 16 23 37.5t49.5 64t74.5 74.5t97 57.5t117 25.5q55 0 55 -32q0 -22 -25 -61.5t-60 -86
t-70.5 -95.5t-60.5 -101t-25 -92q0 -29 17.5 -48t44.5 -19q24 0 43.5 18t19.5 39q0 5 -5 5q-3 -1 -11 -1q-29 0 -29 36q0 44 51 126.5t102 161.5t51 114q0 27 -20.5 46.5t-59.5 19.5q-159 0 -289 -146q49 108 148.5 173.5t221.5 65.5q167 0 285.5 -118.5t118.5 -286.5
q0 -107 -54 -202q-13 -5 -21 -5q-54 0 -76 76q62 68 105 144q3 6 3 9t-2 3q-4 0 -8 -8q-39 -72 -103 -130q-3 13 -9 41t-9.5 42.5t-11 32.5t-19 26t-26.5 8q-42 0 -61 -51q0 -4 3 -4q45 0 68 -29.5t42 -84.5q-89 -69 -164 -69q-66 0 -66 97q0 79 42 196q31 2 156 15t169 13
q11 0 11 5q0 4 -10 4q-49 0 -139.5 0.5t-171.5 0.5q44 107 66 107q7 0 7 -19q0 -6 6 -6q13 0 13 13q0 9 -8 16t-22 7q-18 0 -45 -33t-55 -85h-32q-20 0 -20 -11q0 -8 8.5 -15.5t24.5 -10.5q-60 -129 -60 -225q0 -122 108 -122q88 0 189 101q10 -31 18.5 -48.5t25.5 -32.5
t40 -15z" />
    <glyph glyph-name="Adieresis" unicode="&#xc4;" 
d="M818 191q22 0 43 19.5t31 39.5l10 19q-1 -4 -4 -11.5t-13 -26.5t-22 -34t-33 -28.5t-44 -16.5q-118 -116 -284 -116q-168 0 -286.5 118.5t-118.5 285.5q0 34 7 76q-31 -22 -62 -53q9 16 23 37.5t49.5 64t74.5 74.5t97 57.5t117 25.5q55 0 55 -32q0 -22 -25 -61.5t-60 -86
t-70.5 -95.5t-60.5 -101t-25 -92q0 -29 17.5 -48t44.5 -19q24 0 43.5 18t19.5 39q0 5 -5 5q-3 -1 -11 -1q-29 0 -29 36q0 44 51 126.5t102 161.5t51 114q0 27 -20.5 46.5t-59.5 19.5q-159 0 -289 -146q49 108 148.5 173.5t221.5 65.5q167 0 285.5 -118.5t118.5 -286.5
q0 -107 -54 -202q-13 -5 -21 -5q-54 0 -76 76q62 68 105 144q3 6 3 9t-2 3q-4 0 -8 -8q-39 -72 -103 -130q-3 13 -9 41t-9.5 42.5t-11 32.5t-19 26t-26.5 8q-42 0 -61 -51q0 -4 3 -4q45 0 68 -29.5t42 -84.5q-89 -69 -164 -69q-66 0 -66 97q0 79 42 196q31 2 156 15t169 13
q11 0 11 5q0 4 -10 4q-49 0 -139.5 0.5t-171.5 0.5q44 107 66 107q7 0 7 -19q0 -6 6 -6q13 0 13 13q0 9 -8 16t-22 7q-18 0 -45 -33t-55 -85h-32q-20 0 -20 -11q0 -8 8.5 -15.5t24.5 -10.5q-60 -129 -60 -225q0 -122 108 -122q88 0 189 101q10 -31 18.5 -48.5t25.5 -32.5
t40 -15z" />
    <glyph glyph-name="Aring" unicode="&#xc5;" 
d="M818 191q22 0 43 19.5t31 39.5l10 19q-1 -4 -4 -11.5t-13 -26.5t-22 -34t-33 -28.5t-44 -16.5q-118 -116 -284 -116q-168 0 -286.5 118.5t-118.5 285.5q0 34 7 76q-31 -22 -62 -53q9 16 23 37.5t49.5 64t74.5 74.5t97 57.5t117 25.5q55 0 55 -32q0 -22 -25 -61.5t-60 -86
t-70.5 -95.5t-60.5 -101t-25 -92q0 -29 17.5 -48t44.5 -19q24 0 43.5 18t19.5 39q0 5 -5 5q-3 -1 -11 -1q-29 0 -29 36q0 44 51 126.5t102 161.5t51 114q0 27 -20.5 46.5t-59.5 19.5q-159 0 -289 -146q49 108 148.5 173.5t221.5 65.5q167 0 285.5 -118.5t118.5 -286.5
q0 -107 -54 -202q-13 -5 -21 -5q-54 0 -76 76q62 68 105 144q3 6 3 9t-2 3q-4 0 -8 -8q-39 -72 -103 -130q-3 13 -9 41t-9.5 42.5t-11 32.5t-19 26t-26.5 8q-42 0 -61 -51q0 -4 3 -4q45 0 68 -29.5t42 -84.5q-89 -69 -164 -69q-66 0 -66 97q0 79 42 196q31 2 156 15t169 13
q11 0 11 5q0 4 -10 4q-49 0 -139.5 0.5t-171.5 0.5q44 107 66 107q7 0 7 -19q0 -6 6 -6q13 0 13 13q0 9 -8 16t-22 7q-18 0 -45 -33t-55 -85h-32q-20 0 -20 -11q0 -8 8.5 -15.5t24.5 -10.5q-60 -129 -60 -225q0 -122 108 -122q88 0 189 101q10 -31 18.5 -48.5t25.5 -32.5
t40 -15z" />
    <glyph glyph-name="AE" unicode="&#xc6;" 
d="M818 191q22 0 43 19.5t31 39.5l10 19q-1 -4 -4 -11.5t-13 -26.5t-22 -34t-33 -28.5t-44 -16.5q-118 -116 -284 -116q-168 0 -286.5 118.5t-118.5 285.5q0 34 7 76q-31 -22 -62 -53q9 16 23 37.5t49.5 64t74.5 74.5t97 57.5t117 25.5q55 0 55 -32q0 -22 -25 -61.5t-60 -86
t-70.5 -95.5t-60.5 -101t-25 -92q0 -29 17.5 -48t44.5 -19q24 0 43.5 18t19.5 39q0 5 -5 5q-3 -1 -11 -1q-29 0 -29 36q0 44 51 126.5t102 161.5t51 114q0 27 -20.5 46.5t-59.5 19.5q-159 0 -289 -146q49 108 148.5 173.5t221.5 65.5q167 0 285.5 -118.5t118.5 -286.5
q0 -107 -54 -202q-13 -5 -21 -5q-54 0 -76 76q62 68 105 144q3 6 3 9t-2 3q-4 0 -8 -8q-39 -72 -103 -130q-3 13 -9 41t-9.5 42.5t-11 32.5t-19 26t-26.5 8q-42 0 -61 -51q0 -4 3 -4q45 0 68 -29.5t42 -84.5q-89 -69 -164 -69q-66 0 -66 97q0 79 42 196q31 2 156 15t169 13
q11 0 11 5q0 4 -10 4q-49 0 -139.5 0.5t-171.5 0.5q44 107 66 107q7 0 7 -19q0 -6 6 -6q13 0 13 13q0 9 -8 16t-22 7q-18 0 -45 -33t-55 -85h-32q-20 0 -20 -11q0 -8 8.5 -15.5t24.5 -10.5q-60 -129 -60 -225q0 -122 108 -122q88 0 189 101q10 -31 18.5 -48.5t25.5 -32.5
t40 -15z" />
    <glyph glyph-name="Ccedilla" unicode="&#xc7;" 
d="M818 191q22 0 43 19.5t31 39.5l10 19q-1 -4 -4 -11.5t-13 -26.5t-22 -34t-33 -28.5t-44 -16.5q-118 -116 -284 -116q-168 0 -286.5 118.5t-118.5 285.5q0 34 7 76q-31 -22 -62 -53q9 16 23 37.5t49.5 64t74.5 74.5t97 57.5t117 25.5q55 0 55 -32q0 -22 -25 -61.5t-60 -86
t-70.5 -95.5t-60.5 -101t-25 -92q0 -29 17.5 -48t44.5 -19q24 0 43.5 18t19.5 39q0 5 -5 5q-3 -1 -11 -1q-29 0 -29 36q0 44 51 126.5t102 161.5t51 114q0 27 -20.5 46.5t-59.5 19.5q-159 0 -289 -146q49 108 148.5 173.5t221.5 65.5q167 0 285.5 -118.5t118.5 -286.5
q0 -107 -54 -202q-13 -5 -21 -5q-54 0 -76 76q62 68 105 144q3 6 3 9t-2 3q-4 0 -8 -8q-39 -72 -103 -130q-3 13 -9 41t-9.5 42.5t-11 32.5t-19 26t-26.5 8q-42 0 -61 -51q0 -4 3 -4q45 0 68 -29.5t42 -84.5q-89 -69 -164 -69q-66 0 -66 97q0 79 42 196q31 2 156 15t169 13
q11 0 11 5q0 4 -10 4q-49 0 -139.5 0.5t-171.5 0.5q44 107 66 107q7 0 7 -19q0 -6 6 -6q13 0 13 13q0 9 -8 16t-22 7q-18 0 -45 -33t-55 -85h-32q-20 0 -20 -11q0 -8 8.5 -15.5t24.5 -10.5q-60 -129 -60 -225q0 -122 108 -122q88 0 189 101q10 -31 18.5 -48.5t25.5 -32.5
t40 -15z" />
    <glyph glyph-name="Egrave" unicode="&#xc8;" 
d="M818 191q22 0 43 19.5t31 39.5l10 19q-1 -4 -4 -11.5t-13 -26.5t-22 -34t-33 -28.5t-44 -16.5q-118 -116 -284 -116q-168 0 -286.5 118.5t-118.5 285.5q0 34 7 76q-31 -22 -62 -53q9 16 23 37.5t49.5 64t74.5 74.5t97 57.5t117 25.5q55 0 55 -32q0 -22 -25 -61.5t-60 -86
t-70.5 -95.5t-60.5 -101t-25 -92q0 -29 17.5 -48t44.5 -19q24 0 43.5 18t19.5 39q0 5 -5 5q-3 -1 -11 -1q-29 0 -29 36q0 44 51 126.5t102 161.5t51 114q0 27 -20.5 46.5t-59.5 19.5q-159 0 -289 -146q49 108 148.5 173.5t221.5 65.5q167 0 285.5 -118.5t118.5 -286.5
q0 -107 -54 -202q-13 -5 -21 -5q-54 0 -76 76q62 68 105 144q3 6 3 9t-2 3q-4 0 -8 -8q-39 -72 -103 -130q-3 13 -9 41t-9.5 42.5t-11 32.5t-19 26t-26.5 8q-42 0 -61 -51q0 -4 3 -4q45 0 68 -29.5t42 -84.5q-89 -69 -164 -69q-66 0 -66 97q0 79 42 196q31 2 156 15t169 13
q11 0 11 5q0 4 -10 4q-49 0 -139.5 0.5t-171.5 0.5q44 107 66 107q7 0 7 -19q0 -6 6 -6q13 0 13 13q0 9 -8 16t-22 7q-18 0 -45 -33t-55 -85h-32q-20 0 -20 -11q0 -8 8.5 -15.5t24.5 -10.5q-60 -129 -60 -225q0 -122 108 -122q88 0 189 101q10 -31 18.5 -48.5t25.5 -32.5
t40 -15z" />
    <glyph glyph-name="Eacute" unicode="&#xc9;" 
d="M818 191q22 0 43 19.5t31 39.5l10 19q-1 -4 -4 -11.5t-13 -26.5t-22 -34t-33 -28.5t-44 -16.5q-118 -116 -284 -116q-168 0 -286.5 118.5t-118.5 285.5q0 34 7 76q-31 -22 -62 -53q9 16 23 37.5t49.5 64t74.5 74.5t97 57.5t117 25.5q55 0 55 -32q0 -22 -25 -61.5t-60 -86
t-70.5 -95.5t-60.5 -101t-25 -92q0 -29 17.5 -48t44.5 -19q24 0 43.5 18t19.5 39q0 5 -5 5q-3 -1 -11 -1q-29 0 -29 36q0 44 51 126.5t102 161.5t51 114q0 27 -20.5 46.5t-59.5 19.5q-159 0 -289 -146q49 108 148.5 173.5t221.5 65.5q167 0 285.5 -118.5t118.5 -286.5
q0 -107 -54 -202q-13 -5 -21 -5q-54 0 -76 76q62 68 105 144q3 6 3 9t-2 3q-4 0 -8 -8q-39 -72 -103 -130q-3 13 -9 41t-9.5 42.5t-11 32.5t-19 26t-26.5 8q-42 0 -61 -51q0 -4 3 -4q45 0 68 -29.5t42 -84.5q-89 -69 -164 -69q-66 0 -66 97q0 79 42 196q31 2 156 15t169 13
q11 0 11 5q0 4 -10 4q-49 0 -139.5 0.5t-171.5 0.5q44 107 66 107q7 0 7 -19q0 -6 6 -6q13 0 13 13q0 9 -8 16t-22 7q-18 0 -45 -33t-55 -85h-32q-20 0 -20 -11q0 -8 8.5 -15.5t24.5 -10.5q-60 -129 -60 -225q0 -122 108 -122q88 0 189 101q10 -31 18.5 -48.5t25.5 -32.5
t40 -15z" />
    <glyph glyph-name="Ecircumflex" unicode="&#xca;" 
d="M818 191q22 0 43 19.5t31 39.5l10 19q-1 -4 -4 -11.5t-13 -26.5t-22 -34t-33 -28.5t-44 -16.5q-118 -116 -284 -116q-168 0 -286.5 118.5t-118.5 285.5q0 34 7 76q-31 -22 -62 -53q9 16 23 37.5t49.5 64t74.5 74.5t97 57.5t117 25.5q55 0 55 -32q0 -22 -25 -61.5t-60 -86
t-70.5 -95.5t-60.5 -101t-25 -92q0 -29 17.5 -48t44.5 -19q24 0 43.5 18t19.5 39q0 5 -5 5q-3 -1 -11 -1q-29 0 -29 36q0 44 51 126.5t102 161.5t51 114q0 27 -20.5 46.5t-59.5 19.5q-159 0 -289 -146q49 108 148.5 173.5t221.5 65.5q167 0 285.5 -118.5t118.5 -286.5
q0 -107 -54 -202q-13 -5 -21 -5q-54 0 -76 76q62 68 105 144q3 6 3 9t-2 3q-4 0 -8 -8q-39 -72 -103 -130q-3 13 -9 41t-9.5 42.5t-11 32.5t-19 26t-26.5 8q-42 0 -61 -51q0 -4 3 -4q45 0 68 -29.5t42 -84.5q-89 -69 -164 -69q-66 0 -66 97q0 79 42 196q31 2 156 15t169 13
q11 0 11 5q0 4 -10 4q-49 0 -139.5 0.5t-171.5 0.5q44 107 66 107q7 0 7 -19q0 -6 6 -6q13 0 13 13q0 9 -8 16t-22 7q-18 0 -45 -33t-55 -85h-32q-20 0 -20 -11q0 -8 8.5 -15.5t24.5 -10.5q-60 -129 -60 -225q0 -122 108 -122q88 0 189 101q10 -31 18.5 -48.5t25.5 -32.5
t40 -15z" />
    <glyph glyph-name="Edieresis" unicode="&#xcb;" 
d="M818 191q22 0 43 19.5t31 39.5l10 19q-1 -4 -4 -11.5t-13 -26.5t-22 -34t-33 -28.5t-44 -16.5q-118 -116 -284 -116q-168 0 -286.5 118.5t-118.5 285.5q0 34 7 76q-31 -22 -62 -53q9 16 23 37.5t49.5 64t74.5 74.5t97 57.5t117 25.5q55 0 55 -32q0 -22 -25 -61.5t-60 -86
t-70.5 -95.5t-60.5 -101t-25 -92q0 -29 17.5 -48t44.5 -19q24 0 43.5 18t19.5 39q0 5 -5 5q-3 -1 -11 -1q-29 0 -29 36q0 44 51 126.5t102 161.5t51 114q0 27 -20.5 46.5t-59.5 19.5q-159 0 -289 -146q49 108 148.5 173.5t221.5 65.5q167 0 285.5 -118.5t118.5 -286.5
q0 -107 -54 -202q-13 -5 -21 -5q-54 0 -76 76q62 68 105 144q3 6 3 9t-2 3q-4 0 -8 -8q-39 -72 -103 -130q-3 13 -9 41t-9.5 42.5t-11 32.5t-19 26t-26.5 8q-42 0 -61 -51q0 -4 3 -4q45 0 68 -29.5t42 -84.5q-89 -69 -164 -69q-66 0 -66 97q0 79 42 196q31 2 156 15t169 13
q11 0 11 5q0 4 -10 4q-49 0 -139.5 0.5t-171.5 0.5q44 107 66 107q7 0 7 -19q0 -6 6 -6q13 0 13 13q0 9 -8 16t-22 7q-18 0 -45 -33t-55 -85h-32q-20 0 -20 -11q0 -8 8.5 -15.5t24.5 -10.5q-60 -129 -60 -225q0 -122 108 -122q88 0 189 101q10 -31 18.5 -48.5t25.5 -32.5
t40 -15z" />
    <glyph glyph-name="Igrave" unicode="&#xcc;" 
d="M818 191q22 0 43 19.5t31 39.5l10 19q-1 -4 -4 -11.5t-13 -26.5t-22 -34t-33 -28.5t-44 -16.5q-118 -116 -284 -116q-168 0 -286.5 118.5t-118.5 285.5q0 34 7 76q-31 -22 -62 -53q9 16 23 37.5t49.5 64t74.5 74.5t97 57.5t117 25.5q55 0 55 -32q0 -22 -25 -61.5t-60 -86
t-70.5 -95.5t-60.5 -101t-25 -92q0 -29 17.5 -48t44.5 -19q24 0 43.5 18t19.5 39q0 5 -5 5q-3 -1 -11 -1q-29 0 -29 36q0 44 51 126.5t102 161.5t51 114q0 27 -20.5 46.5t-59.5 19.5q-159 0 -289 -146q49 108 148.5 173.5t221.5 65.5q167 0 285.5 -118.5t118.5 -286.5
q0 -107 -54 -202q-13 -5 -21 -5q-54 0 -76 76q62 68 105 144q3 6 3 9t-2 3q-4 0 -8 -8q-39 -72 -103 -130q-3 13 -9 41t-9.5 42.5t-11 32.5t-19 26t-26.5 8q-42 0 -61 -51q0 -4 3 -4q45 0 68 -29.5t42 -84.5q-89 -69 -164 -69q-66 0 -66 97q0 79 42 196q31 2 156 15t169 13
q11 0 11 5q0 4 -10 4q-49 0 -139.5 0.5t-171.5 0.5q44 107 66 107q7 0 7 -19q0 -6 6 -6q13 0 13 13q0 9 -8 16t-22 7q-18 0 -45 -33t-55 -85h-32q-20 0 -20 -11q0 -8 8.5 -15.5t24.5 -10.5q-60 -129 -60 -225q0 -122 108 -122q88 0 189 101q10 -31 18.5 -48.5t25.5 -32.5
t40 -15z" />
    <glyph glyph-name="Iacute" unicode="&#xcd;" 
d="M818 191q22 0 43 19.5t31 39.5l10 19q-1 -4 -4 -11.5t-13 -26.5t-22 -34t-33 -28.5t-44 -16.5q-118 -116 -284 -116q-168 0 -286.5 118.5t-118.5 285.5q0 34 7 76q-31 -22 -62 -53q9 16 23 37.5t49.5 64t74.5 74.5t97 57.5t117 25.5q55 0 55 -32q0 -22 -25 -61.5t-60 -86
t-70.5 -95.5t-60.5 -101t-25 -92q0 -29 17.5 -48t44.5 -19q24 0 43.5 18t19.5 39q0 5 -5 5q-3 -1 -11 -1q-29 0 -29 36q0 44 51 126.5t102 161.5t51 114q0 27 -20.5 46.5t-59.5 19.5q-159 0 -289 -146q49 108 148.5 173.5t221.5 65.5q167 0 285.5 -118.5t118.5 -286.5
q0 -107 -54 -202q-13 -5 -21 -5q-54 0 -76 76q62 68 105 144q3 6 3 9t-2 3q-4 0 -8 -8q-39 -72 -103 -130q-3 13 -9 41t-9.5 42.5t-11 32.5t-19 26t-26.5 8q-42 0 -61 -51q0 -4 3 -4q45 0 68 -29.5t42 -84.5q-89 -69 -164 -69q-66 0 -66 97q0 79 42 196q31 2 156 15t169 13
q11 0 11 5q0 4 -10 4q-49 0 -139.5 0.5t-171.5 0.5q44 107 66 107q7 0 7 -19q0 -6 6 -6q13 0 13 13q0 9 -8 16t-22 7q-18 0 -45 -33t-55 -85h-32q-20 0 -20 -11q0 -8 8.5 -15.5t24.5 -10.5q-60 -129 -60 -225q0 -122 108 -122q88 0 189 101q10 -31 18.5 -48.5t25.5 -32.5
t40 -15z" />
    <glyph glyph-name="Icircumflex" unicode="&#xce;" 
d="M818 191q22 0 43 19.5t31 39.5l10 19q-1 -4 -4 -11.5t-13 -26.5t-22 -34t-33 -28.5t-44 -16.5q-118 -116 -284 -116q-168 0 -286.5 118.5t-118.5 285.5q0 34 7 76q-31 -22 -62 -53q9 16 23 37.5t49.5 64t74.5 74.5t97 57.5t117 25.5q55 0 55 -32q0 -22 -25 -61.5t-60 -86
t-70.5 -95.5t-60.5 -101t-25 -92q0 -29 17.5 -48t44.5 -19q24 0 43.5 18t19.5 39q0 5 -5 5q-3 -1 -11 -1q-29 0 -29 36q0 44 51 126.5t102 161.5t51 114q0 27 -20.5 46.5t-59.5 19.5q-159 0 -289 -146q49 108 148.5 173.5t221.5 65.5q167 0 285.5 -118.5t118.5 -286.5
q0 -107 -54 -202q-13 -5 -21 -5q-54 0 -76 76q62 68 105 144q3 6 3 9t-2 3q-4 0 -8 -8q-39 -72 -103 -130q-3 13 -9 41t-9.5 42.5t-11 32.5t-19 26t-26.5 8q-42 0 -61 -51q0 -4 3 -4q45 0 68 -29.5t42 -84.5q-89 -69 -164 -69q-66 0 -66 97q0 79 42 196q31 2 156 15t169 13
q11 0 11 5q0 4 -10 4q-49 0 -139.5 0.5t-171.5 0.5q44 107 66 107q7 0 7 -19q0 -6 6 -6q13 0 13 13q0 9 -8 16t-22 7q-18 0 -45 -33t-55 -85h-32q-20 0 -20 -11q0 -8 8.5 -15.5t24.5 -10.5q-60 -129 -60 -225q0 -122 108 -122q88 0 189 101q10 -31 18.5 -48.5t25.5 -32.5
t40 -15z" />
    <glyph glyph-name="Idieresis" unicode="&#xcf;" 
d="M818 191q22 0 43 19.5t31 39.5l10 19q-1 -4 -4 -11.5t-13 -26.5t-22 -34t-33 -28.5t-44 -16.5q-118 -116 -284 -116q-168 0 -286.5 118.5t-118.5 285.5q0 34 7 76q-31 -22 -62 -53q9 16 23 37.5t49.5 64t74.5 74.5t97 57.5t117 25.5q55 0 55 -32q0 -22 -25 -61.5t-60 -86
t-70.5 -95.5t-60.5 -101t-25 -92q0 -29 17.5 -48t44.5 -19q24 0 43.5 18t19.5 39q0 5 -5 5q-3 -1 -11 -1q-29 0 -29 36q0 44 51 126.5t102 161.5t51 114q0 27 -20.5 46.5t-59.5 19.5q-159 0 -289 -146q49 108 148.5 173.5t221.5 65.5q167 0 285.5 -118.5t118.5 -286.5
q0 -107 -54 -202q-13 -5 -21 -5q-54 0 -76 76q62 68 105 144q3 6 3 9t-2 3q-4 0 -8 -8q-39 -72 -103 -130q-3 13 -9 41t-9.5 42.5t-11 32.5t-19 26t-26.5 8q-42 0 -61 -51q0 -4 3 -4q45 0 68 -29.5t42 -84.5q-89 -69 -164 -69q-66 0 -66 97q0 79 42 196q31 2 156 15t169 13
q11 0 11 5q0 4 -10 4q-49 0 -139.5 0.5t-171.5 0.5q44 107 66 107q7 0 7 -19q0 -6 6 -6q13 0 13 13q0 9 -8 16t-22 7q-18 0 -45 -33t-55 -85h-32q-20 0 -20 -11q0 -8 8.5 -15.5t24.5 -10.5q-60 -129 -60 -225q0 -122 108 -122q88 0 189 101q10 -31 18.5 -48.5t25.5 -32.5
t40 -15z" />
    <glyph glyph-name="Eth" unicode="&#xd0;" 
d="M818 191q22 0 43 19.5t31 39.5l10 19q-1 -4 -4 -11.5t-13 -26.5t-22 -34t-33 -28.5t-44 -16.5q-118 -116 -284 -116q-168 0 -286.5 118.5t-118.5 285.5q0 34 7 76q-31 -22 -62 -53q9 16 23 37.5t49.5 64t74.5 74.5t97 57.5t117 25.5q55 0 55 -32q0 -22 -25 -61.5t-60 -86
t-70.5 -95.5t-60.5 -101t-25 -92q0 -29 17.5 -48t44.5 -19q24 0 43.5 18t19.5 39q0 5 -5 5q-3 -1 -11 -1q-29 0 -29 36q0 44 51 126.5t102 161.5t51 114q0 27 -20.5 46.5t-59.5 19.5q-159 0 -289 -146q49 108 148.5 173.5t221.5 65.5q167 0 285.5 -118.5t118.5 -286.5
q0 -107 -54 -202q-13 -5 -21 -5q-54 0 -76 76q62 68 105 144q3 6 3 9t-2 3q-4 0 -8 -8q-39 -72 -103 -130q-3 13 -9 41t-9.5 42.5t-11 32.5t-19 26t-26.5 8q-42 0 -61 -51q0 -4 3 -4q45 0 68 -29.5t42 -84.5q-89 -69 -164 -69q-66 0 -66 97q0 79 42 196q31 2 156 15t169 13
q11 0 11 5q0 4 -10 4q-49 0 -139.5 0.5t-171.5 0.5q44 107 66 107q7 0 7 -19q0 -6 6 -6q13 0 13 13q0 9 -8 16t-22 7q-18 0 -45 -33t-55 -85h-32q-20 0 -20 -11q0 -8 8.5 -15.5t24.5 -10.5q-60 -129 -60 -225q0 -122 108 -122q88 0 189 101q10 -31 18.5 -48.5t25.5 -32.5
t40 -15z" />
    <glyph glyph-name="Ntilde" unicode="&#xd1;" 
d="M818 191q22 0 43 19.5t31 39.5l10 19q-1 -4 -4 -11.5t-13 -26.5t-22 -34t-33 -28.5t-44 -16.5q-118 -116 -284 -116q-168 0 -286.5 118.5t-118.5 285.5q0 34 7 76q-31 -22 -62 -53q9 16 23 37.5t49.5 64t74.5 74.5t97 57.5t117 25.5q55 0 55 -32q0 -22 -25 -61.5t-60 -86
t-70.5 -95.5t-60.5 -101t-25 -92q0 -29 17.5 -48t44.5 -19q24 0 43.5 18t19.5 39q0 5 -5 5q-3 -1 -11 -1q-29 0 -29 36q0 44 51 126.5t102 161.5t51 114q0 27 -20.5 46.5t-59.5 19.5q-159 0 -289 -146q49 108 148.5 173.5t221.5 65.5q167 0 285.5 -118.5t118.5 -286.5
q0 -107 -54 -202q-13 -5 -21 -5q-54 0 -76 76q62 68 105 144q3 6 3 9t-2 3q-4 0 -8 -8q-39 -72 -103 -130q-3 13 -9 41t-9.5 42.5t-11 32.5t-19 26t-26.5 8q-42 0 -61 -51q0 -4 3 -4q45 0 68 -29.5t42 -84.5q-89 -69 -164 -69q-66 0 -66 97q0 79 42 196q31 2 156 15t169 13
q11 0 11 5q0 4 -10 4q-49 0 -139.5 0.5t-171.5 0.5q44 107 66 107q7 0 7 -19q0 -6 6 -6q13 0 13 13q0 9 -8 16t-22 7q-18 0 -45 -33t-55 -85h-32q-20 0 -20 -11q0 -8 8.5 -15.5t24.5 -10.5q-60 -129 -60 -225q0 -122 108 -122q88 0 189 101q10 -31 18.5 -48.5t25.5 -32.5
t40 -15z" />
    <glyph glyph-name="Ograve" unicode="&#xd2;" 
d="M818 191q22 0 43 19.5t31 39.5l10 19q-1 -4 -4 -11.5t-13 -26.5t-22 -34t-33 -28.5t-44 -16.5q-118 -116 -284 -116q-168 0 -286.5 118.5t-118.5 285.5q0 34 7 76q-31 -22 -62 -53q9 16 23 37.5t49.5 64t74.5 74.5t97 57.5t117 25.5q55 0 55 -32q0 -22 -25 -61.5t-60 -86
t-70.5 -95.5t-60.5 -101t-25 -92q0 -29 17.5 -48t44.5 -19q24 0 43.5 18t19.5 39q0 5 -5 5q-3 -1 -11 -1q-29 0 -29 36q0 44 51 126.5t102 161.5t51 114q0 27 -20.5 46.5t-59.5 19.5q-159 0 -289 -146q49 108 148.5 173.5t221.5 65.5q167 0 285.5 -118.5t118.5 -286.5
q0 -107 -54 -202q-13 -5 -21 -5q-54 0 -76 76q62 68 105 144q3 6 3 9t-2 3q-4 0 -8 -8q-39 -72 -103 -130q-3 13 -9 41t-9.5 42.5t-11 32.5t-19 26t-26.5 8q-42 0 -61 -51q0 -4 3 -4q45 0 68 -29.5t42 -84.5q-89 -69 -164 -69q-66 0 -66 97q0 79 42 196q31 2 156 15t169 13
q11 0 11 5q0 4 -10 4q-49 0 -139.5 0.5t-171.5 0.5q44 107 66 107q7 0 7 -19q0 -6 6 -6q13 0 13 13q0 9 -8 16t-22 7q-18 0 -45 -33t-55 -85h-32q-20 0 -20 -11q0 -8 8.5 -15.5t24.5 -10.5q-60 -129 -60 -225q0 -122 108 -122q88 0 189 101q10 -31 18.5 -48.5t25.5 -32.5
t40 -15z" />
    <glyph glyph-name="Oacute" unicode="&#xd3;" 
d="M818 191q22 0 43 19.5t31 39.5l10 19q-1 -4 -4 -11.5t-13 -26.5t-22 -34t-33 -28.5t-44 -16.5q-118 -116 -284 -116q-168 0 -286.5 118.5t-118.5 285.5q0 34 7 76q-31 -22 -62 -53q9 16 23 37.5t49.5 64t74.5 74.5t97 57.5t117 25.5q55 0 55 -32q0 -22 -25 -61.5t-60 -86
t-70.5 -95.5t-60.5 -101t-25 -92q0 -29 17.5 -48t44.5 -19q24 0 43.5 18t19.5 39q0 5 -5 5q-3 -1 -11 -1q-29 0 -29 36q0 44 51 126.5t102 161.5t51 114q0 27 -20.5 46.5t-59.5 19.5q-159 0 -289 -146q49 108 148.5 173.5t221.5 65.5q167 0 285.5 -118.5t118.5 -286.5
q0 -107 -54 -202q-13 -5 -21 -5q-54 0 -76 76q62 68 105 144q3 6 3 9t-2 3q-4 0 -8 -8q-39 -72 -103 -130q-3 13 -9 41t-9.5 42.5t-11 32.5t-19 26t-26.5 8q-42 0 -61 -51q0 -4 3 -4q45 0 68 -29.5t42 -84.5q-89 -69 -164 -69q-66 0 -66 97q0 79 42 196q31 2 156 15t169 13
q11 0 11 5q0 4 -10 4q-49 0 -139.5 0.5t-171.5 0.5q44 107 66 107q7 0 7 -19q0 -6 6 -6q13 0 13 13q0 9 -8 16t-22 7q-18 0 -45 -33t-55 -85h-32q-20 0 -20 -11q0 -8 8.5 -15.5t24.5 -10.5q-60 -129 -60 -225q0 -122 108 -122q88 0 189 101q10 -31 18.5 -48.5t25.5 -32.5
t40 -15z" />
    <glyph glyph-name="Ocircumflex" unicode="&#xd4;" 
d="M818 191q22 0 43 19.5t31 39.5l10 19q-1 -4 -4 -11.5t-13 -26.5t-22 -34t-33 -28.5t-44 -16.5q-118 -116 -284 -116q-168 0 -286.5 118.5t-118.5 285.5q0 34 7 76q-31 -22 -62 -53q9 16 23 37.5t49.5 64t74.5 74.5t97 57.5t117 25.5q55 0 55 -32q0 -22 -25 -61.5t-60 -86
t-70.5 -95.5t-60.5 -101t-25 -92q0 -29 17.5 -48t44.5 -19q24 0 43.5 18t19.5 39q0 5 -5 5q-3 -1 -11 -1q-29 0 -29 36q0 44 51 126.5t102 161.5t51 114q0 27 -20.5 46.5t-59.5 19.5q-159 0 -289 -146q49 108 148.5 173.5t221.5 65.5q167 0 285.5 -118.5t118.5 -286.5
q0 -107 -54 -202q-13 -5 -21 -5q-54 0 -76 76q62 68 105 144q3 6 3 9t-2 3q-4 0 -8 -8q-39 -72 -103 -130q-3 13 -9 41t-9.5 42.5t-11 32.5t-19 26t-26.5 8q-42 0 -61 -51q0 -4 3 -4q45 0 68 -29.5t42 -84.5q-89 -69 -164 -69q-66 0 -66 97q0 79 42 196q31 2 156 15t169 13
q11 0 11 5q0 4 -10 4q-49 0 -139.5 0.5t-171.5 0.5q44 107 66 107q7 0 7 -19q0 -6 6 -6q13 0 13 13q0 9 -8 16t-22 7q-18 0 -45 -33t-55 -85h-32q-20 0 -20 -11q0 -8 8.5 -15.5t24.5 -10.5q-60 -129 -60 -225q0 -122 108 -122q88 0 189 101q10 -31 18.5 -48.5t25.5 -32.5
t40 -15z" />
    <glyph glyph-name="Otilde" unicode="&#xd5;" 
d="M818 191q22 0 43 19.5t31 39.5l10 19q-1 -4 -4 -11.5t-13 -26.5t-22 -34t-33 -28.5t-44 -16.5q-118 -116 -284 -116q-168 0 -286.5 118.5t-118.5 285.5q0 34 7 76q-31 -22 -62 -53q9 16 23 37.5t49.5 64t74.5 74.5t97 57.5t117 25.5q55 0 55 -32q0 -22 -25 -61.5t-60 -86
t-70.5 -95.5t-60.5 -101t-25 -92q0 -29 17.5 -48t44.5 -19q24 0 43.5 18t19.5 39q0 5 -5 5q-3 -1 -11 -1q-29 0 -29 36q0 44 51 126.5t102 161.5t51 114q0 27 -20.5 46.5t-59.5 19.5q-159 0 -289 -146q49 108 148.5 173.5t221.5 65.5q167 0 285.5 -118.5t118.5 -286.5
q0 -107 -54 -202q-13 -5 -21 -5q-54 0 -76 76q62 68 105 144q3 6 3 9t-2 3q-4 0 -8 -8q-39 -72 -103 -130q-3 13 -9 41t-9.5 42.5t-11 32.5t-19 26t-26.5 8q-42 0 -61 -51q0 -4 3 -4q45 0 68 -29.5t42 -84.5q-89 -69 -164 -69q-66 0 -66 97q0 79 42 196q31 2 156 15t169 13
q11 0 11 5q0 4 -10 4q-49 0 -139.5 0.5t-171.5 0.5q44 107 66 107q7 0 7 -19q0 -6 6 -6q13 0 13 13q0 9 -8 16t-22 7q-18 0 -45 -33t-55 -85h-32q-20 0 -20 -11q0 -8 8.5 -15.5t24.5 -10.5q-60 -129 -60 -225q0 -122 108 -122q88 0 189 101q10 -31 18.5 -48.5t25.5 -32.5
t40 -15z" />
    <glyph glyph-name="Odieresis" unicode="&#xd6;" 
d="M818 191q22 0 43 19.5t31 39.5l10 19q-1 -4 -4 -11.5t-13 -26.5t-22 -34t-33 -28.5t-44 -16.5q-118 -116 -284 -116q-168 0 -286.5 118.5t-118.5 285.5q0 34 7 76q-31 -22 -62 -53q9 16 23 37.5t49.5 64t74.5 74.5t97 57.5t117 25.5q55 0 55 -32q0 -22 -25 -61.5t-60 -86
t-70.5 -95.5t-60.5 -101t-25 -92q0 -29 17.5 -48t44.5 -19q24 0 43.5 18t19.5 39q0 5 -5 5q-3 -1 -11 -1q-29 0 -29 36q0 44 51 126.5t102 161.5t51 114q0 27 -20.5 46.5t-59.5 19.5q-159 0 -289 -146q49 108 148.5 173.5t221.5 65.5q167 0 285.5 -118.5t118.5 -286.5
q0 -107 -54 -202q-13 -5 -21 -5q-54 0 -76 76q62 68 105 144q3 6 3 9t-2 3q-4 0 -8 -8q-39 -72 -103 -130q-3 13 -9 41t-9.5 42.5t-11 32.5t-19 26t-26.5 8q-42 0 -61 -51q0 -4 3 -4q45 0 68 -29.5t42 -84.5q-89 -69 -164 -69q-66 0 -66 97q0 79 42 196q31 2 156 15t169 13
q11 0 11 5q0 4 -10 4q-49 0 -139.5 0.5t-171.5 0.5q44 107 66 107q7 0 7 -19q0 -6 6 -6q13 0 13 13q0 9 -8 16t-22 7q-18 0 -45 -33t-55 -85h-32q-20 0 -20 -11q0 -8 8.5 -15.5t24.5 -10.5q-60 -129 -60 -225q0 -122 108 -122q88 0 189 101q10 -31 18.5 -48.5t25.5 -32.5
t40 -15z" />
    <glyph glyph-name="multiply" unicode="&#xd7;" 
d="M818 191q22 0 43 19.5t31 39.5l10 19q-1 -4 -4 -11.5t-13 -26.5t-22 -34t-33 -28.5t-44 -16.5q-118 -116 -284 -116q-168 0 -286.5 118.5t-118.5 285.5q0 34 7 76q-31 -22 -62 -53q9 16 23 37.5t49.5 64t74.5 74.5t97 57.5t117 25.5q55 0 55 -32q0 -22 -25 -61.5t-60 -86
t-70.5 -95.5t-60.5 -101t-25 -92q0 -29 17.5 -48t44.5 -19q24 0 43.5 18t19.5 39q0 5 -5 5q-3 -1 -11 -1q-29 0 -29 36q0 44 51 126.5t102 161.5t51 114q0 27 -20.5 46.5t-59.5 19.5q-159 0 -289 -146q49 108 148.5 173.5t221.5 65.5q167 0 285.5 -118.5t118.5 -286.5
q0 -107 -54 -202q-13 -5 -21 -5q-54 0 -76 76q62 68 105 144q3 6 3 9t-2 3q-4 0 -8 -8q-39 -72 -103 -130q-3 13 -9 41t-9.5 42.5t-11 32.5t-19 26t-26.5 8q-42 0 -61 -51q0 -4 3 -4q45 0 68 -29.5t42 -84.5q-89 -69 -164 -69q-66 0 -66 97q0 79 42 196q31 2 156 15t169 13
q11 0 11 5q0 4 -10 4q-49 0 -139.5 0.5t-171.5 0.5q44 107 66 107q7 0 7 -19q0 -6 6 -6q13 0 13 13q0 9 -8 16t-22 7q-18 0 -45 -33t-55 -85h-32q-20 0 -20 -11q0 -8 8.5 -15.5t24.5 -10.5q-60 -129 -60 -225q0 -122 108 -122q88 0 189 101q10 -31 18.5 -48.5t25.5 -32.5
t40 -15z" />
    <glyph glyph-name="Oslash" unicode="&#xd8;" 
d="M818 191q22 0 43 19.5t31 39.5l10 19q-1 -4 -4 -11.5t-13 -26.5t-22 -34t-33 -28.5t-44 -16.5q-118 -116 -284 -116q-168 0 -286.5 118.5t-118.5 285.5q0 34 7 76q-31 -22 -62 -53q9 16 23 37.5t49.5 64t74.5 74.5t97 57.5t117 25.5q55 0 55 -32q0 -22 -25 -61.5t-60 -86
t-70.5 -95.5t-60.5 -101t-25 -92q0 -29 17.5 -48t44.5 -19q24 0 43.5 18t19.5 39q0 5 -5 5q-3 -1 -11 -1q-29 0 -29 36q0 44 51 126.5t102 161.5t51 114q0 27 -20.5 46.5t-59.5 19.5q-159 0 -289 -146q49 108 148.5 173.5t221.5 65.5q167 0 285.5 -118.5t118.5 -286.5
q0 -107 -54 -202q-13 -5 -21 -5q-54 0 -76 76q62 68 105 144q3 6 3 9t-2 3q-4 0 -8 -8q-39 -72 -103 -130q-3 13 -9 41t-9.5 42.5t-11 32.5t-19 26t-26.5 8q-42 0 -61 -51q0 -4 3 -4q45 0 68 -29.5t42 -84.5q-89 -69 -164 -69q-66 0 -66 97q0 79 42 196q31 2 156 15t169 13
q11 0 11 5q0 4 -10 4q-49 0 -139.5 0.5t-171.5 0.5q44 107 66 107q7 0 7 -19q0 -6 6 -6q13 0 13 13q0 9 -8 16t-22 7q-18 0 -45 -33t-55 -85h-32q-20 0 -20 -11q0 -8 8.5 -15.5t24.5 -10.5q-60 -129 -60 -225q0 -122 108 -122q88 0 189 101q10 -31 18.5 -48.5t25.5 -32.5
t40 -15z" />
    <glyph glyph-name="Ugrave" unicode="&#xd9;" 
d="M818 191q22 0 43 19.5t31 39.5l10 19q-1 -4 -4 -11.5t-13 -26.5t-22 -34t-33 -28.5t-44 -16.5q-118 -116 -284 -116q-168 0 -286.5 118.5t-118.5 285.5q0 34 7 76q-31 -22 -62 -53q9 16 23 37.5t49.5 64t74.5 74.5t97 57.5t117 25.5q55 0 55 -32q0 -22 -25 -61.5t-60 -86
t-70.5 -95.5t-60.5 -101t-25 -92q0 -29 17.5 -48t44.5 -19q24 0 43.5 18t19.5 39q0 5 -5 5q-3 -1 -11 -1q-29 0 -29 36q0 44 51 126.5t102 161.5t51 114q0 27 -20.5 46.5t-59.5 19.5q-159 0 -289 -146q49 108 148.5 173.5t221.5 65.5q167 0 285.5 -118.5t118.5 -286.5
q0 -107 -54 -202q-13 -5 -21 -5q-54 0 -76 76q62 68 105 144q3 6 3 9t-2 3q-4 0 -8 -8q-39 -72 -103 -130q-3 13 -9 41t-9.5 42.5t-11 32.5t-19 26t-26.5 8q-42 0 -61 -51q0 -4 3 -4q45 0 68 -29.5t42 -84.5q-89 -69 -164 -69q-66 0 -66 97q0 79 42 196q31 2 156 15t169 13
q11 0 11 5q0 4 -10 4q-49 0 -139.5 0.5t-171.5 0.5q44 107 66 107q7 0 7 -19q0 -6 6 -6q13 0 13 13q0 9 -8 16t-22 7q-18 0 -45 -33t-55 -85h-32q-20 0 -20 -11q0 -8 8.5 -15.5t24.5 -10.5q-60 -129 -60 -225q0 -122 108 -122q88 0 189 101q10 -31 18.5 -48.5t25.5 -32.5
t40 -15z" />
    <glyph glyph-name="Uacute" unicode="&#xda;" 
d="M818 191q22 0 43 19.5t31 39.5l10 19q-1 -4 -4 -11.5t-13 -26.5t-22 -34t-33 -28.5t-44 -16.5q-118 -116 -284 -116q-168 0 -286.5 118.5t-118.5 285.5q0 34 7 76q-31 -22 -62 -53q9 16 23 37.5t49.5 64t74.5 74.5t97 57.5t117 25.5q55 0 55 -32q0 -22 -25 -61.5t-60 -86
t-70.5 -95.5t-60.5 -101t-25 -92q0 -29 17.5 -48t44.5 -19q24 0 43.5 18t19.5 39q0 5 -5 5q-3 -1 -11 -1q-29 0 -29 36q0 44 51 126.5t102 161.5t51 114q0 27 -20.5 46.5t-59.5 19.5q-159 0 -289 -146q49 108 148.5 173.5t221.5 65.5q167 0 285.5 -118.5t118.5 -286.5
q0 -107 -54 -202q-13 -5 -21 -5q-54 0 -76 76q62 68 105 144q3 6 3 9t-2 3q-4 0 -8 -8q-39 -72 -103 -130q-3 13 -9 41t-9.5 42.5t-11 32.5t-19 26t-26.5 8q-42 0 -61 -51q0 -4 3 -4q45 0 68 -29.5t42 -84.5q-89 -69 -164 -69q-66 0 -66 97q0 79 42 196q31 2 156 15t169 13
q11 0 11 5q0 4 -10 4q-49 0 -139.5 0.5t-171.5 0.5q44 107 66 107q7 0 7 -19q0 -6 6 -6q13 0 13 13q0 9 -8 16t-22 7q-18 0 -45 -33t-55 -85h-32q-20 0 -20 -11q0 -8 8.5 -15.5t24.5 -10.5q-60 -129 -60 -225q0 -122 108 -122q88 0 189 101q10 -31 18.5 -48.5t25.5 -32.5
t40 -15z" />
    <glyph glyph-name="Ucircumflex" unicode="&#xdb;" 
d="M818 191q22 0 43 19.5t31 39.5l10 19q-1 -4 -4 -11.5t-13 -26.5t-22 -34t-33 -28.5t-44 -16.5q-118 -116 -284 -116q-168 0 -286.5 118.5t-118.5 285.5q0 34 7 76q-31 -22 -62 -53q9 16 23 37.5t49.5 64t74.5 74.5t97 57.5t117 25.5q55 0 55 -32q0 -22 -25 -61.5t-60 -86
t-70.5 -95.5t-60.5 -101t-25 -92q0 -29 17.5 -48t44.5 -19q24 0 43.5 18t19.5 39q0 5 -5 5q-3 -1 -11 -1q-29 0 -29 36q0 44 51 126.5t102 161.5t51 114q0 27 -20.5 46.5t-59.5 19.5q-159 0 -289 -146q49 108 148.5 173.5t221.5 65.5q167 0 285.5 -118.5t118.5 -286.5
q0 -107 -54 -202q-13 -5 -21 -5q-54 0 -76 76q62 68 105 144q3 6 3 9t-2 3q-4 0 -8 -8q-39 -72 -103 -130q-3 13 -9 41t-9.5 42.5t-11 32.5t-19 26t-26.5 8q-42 0 -61 -51q0 -4 3 -4q45 0 68 -29.5t42 -84.5q-89 -69 -164 -69q-66 0 -66 97q0 79 42 196q31 2 156 15t169 13
q11 0 11 5q0 4 -10 4q-49 0 -139.5 0.5t-171.5 0.5q44 107 66 107q7 0 7 -19q0 -6 6 -6q13 0 13 13q0 9 -8 16t-22 7q-18 0 -45 -33t-55 -85h-32q-20 0 -20 -11q0 -8 8.5 -15.5t24.5 -10.5q-60 -129 -60 -225q0 -122 108 -122q88 0 189 101q10 -31 18.5 -48.5t25.5 -32.5
t40 -15z" />
    <glyph glyph-name="Udieresis" unicode="&#xdc;" 
d="M818 191q22 0 43 19.5t31 39.5l10 19q-1 -4 -4 -11.5t-13 -26.5t-22 -34t-33 -28.5t-44 -16.5q-118 -116 -284 -116q-168 0 -286.5 118.5t-118.5 285.5q0 34 7 76q-31 -22 -62 -53q9 16 23 37.5t49.5 64t74.5 74.5t97 57.5t117 25.5q55 0 55 -32q0 -22 -25 -61.5t-60 -86
t-70.5 -95.5t-60.5 -101t-25 -92q0 -29 17.5 -48t44.5 -19q24 0 43.5 18t19.5 39q0 5 -5 5q-3 -1 -11 -1q-29 0 -29 36q0 44 51 126.5t102 161.5t51 114q0 27 -20.5 46.5t-59.5 19.5q-159 0 -289 -146q49 108 148.5 173.5t221.5 65.5q167 0 285.5 -118.5t118.5 -286.5
q0 -107 -54 -202q-13 -5 -21 -5q-54 0 -76 76q62 68 105 144q3 6 3 9t-2 3q-4 0 -8 -8q-39 -72 -103 -130q-3 13 -9 41t-9.5 42.5t-11 32.5t-19 26t-26.5 8q-42 0 -61 -51q0 -4 3 -4q45 0 68 -29.5t42 -84.5q-89 -69 -164 -69q-66 0 -66 97q0 79 42 196q31 2 156 15t169 13
q11 0 11 5q0 4 -10 4q-49 0 -139.5 0.5t-171.5 0.5q44 107 66 107q7 0 7 -19q0 -6 6 -6q13 0 13 13q0 9 -8 16t-22 7q-18 0 -45 -33t-55 -85h-32q-20 0 -20 -11q0 -8 8.5 -15.5t24.5 -10.5q-60 -129 -60 -225q0 -122 108 -122q88 0 189 101q10 -31 18.5 -48.5t25.5 -32.5
t40 -15z" />
    <glyph glyph-name="Yacute" unicode="&#xdd;" 
d="M818 191q22 0 43 19.5t31 39.5l10 19q-1 -4 -4 -11.5t-13 -26.5t-22 -34t-33 -28.5t-44 -16.5q-118 -116 -284 -116q-168 0 -286.5 118.5t-118.5 285.5q0 34 7 76q-31 -22 -62 -53q9 16 23 37.5t49.5 64t74.5 74.5t97 57.5t117 25.5q55 0 55 -32q0 -22 -25 -61.5t-60 -86
t-70.5 -95.5t-60.5 -101t-25 -92q0 -29 17.5 -48t44.5 -19q24 0 43.5 18t19.5 39q0 5 -5 5q-3 -1 -11 -1q-29 0 -29 36q0 44 51 126.5t102 161.5t51 114q0 27 -20.5 46.5t-59.5 19.5q-159 0 -289 -146q49 108 148.5 173.5t221.5 65.5q167 0 285.5 -118.5t118.5 -286.5
q0 -107 -54 -202q-13 -5 -21 -5q-54 0 -76 76q62 68 105 144q3 6 3 9t-2 3q-4 0 -8 -8q-39 -72 -103 -130q-3 13 -9 41t-9.5 42.5t-11 32.5t-19 26t-26.5 8q-42 0 -61 -51q0 -4 3 -4q45 0 68 -29.5t42 -84.5q-89 -69 -164 -69q-66 0 -66 97q0 79 42 196q31 2 156 15t169 13
q11 0 11 5q0 4 -10 4q-49 0 -139.5 0.5t-171.5 0.5q44 107 66 107q7 0 7 -19q0 -6 6 -6q13 0 13 13q0 9 -8 16t-22 7q-18 0 -45 -33t-55 -85h-32q-20 0 -20 -11q0 -8 8.5 -15.5t24.5 -10.5q-60 -129 -60 -225q0 -122 108 -122q88 0 189 101q10 -31 18.5 -48.5t25.5 -32.5
t40 -15z" />
    <glyph glyph-name="Thorn" unicode="&#xde;" 
d="M818 191q22 0 43 19.5t31 39.5l10 19q-1 -4 -4 -11.5t-13 -26.5t-22 -34t-33 -28.5t-44 -16.5q-118 -116 -284 -116q-168 0 -286.5 118.5t-118.5 285.5q0 34 7 76q-31 -22 -62 -53q9 16 23 37.5t49.5 64t74.5 74.5t97 57.5t117 25.5q55 0 55 -32q0 -22 -25 -61.5t-60 -86
t-70.5 -95.5t-60.5 -101t-25 -92q0 -29 17.5 -48t44.5 -19q24 0 43.5 18t19.5 39q0 5 -5 5q-3 -1 -11 -1q-29 0 -29 36q0 44 51 126.5t102 161.5t51 114q0 27 -20.5 46.5t-59.5 19.5q-159 0 -289 -146q49 108 148.5 173.5t221.5 65.5q167 0 285.5 -118.5t118.5 -286.5
q0 -107 -54 -202q-13 -5 -21 -5q-54 0 -76 76q62 68 105 144q3 6 3 9t-2 3q-4 0 -8 -8q-39 -72 -103 -130q-3 13 -9 41t-9.5 42.5t-11 32.5t-19 26t-26.5 8q-42 0 -61 -51q0 -4 3 -4q45 0 68 -29.5t42 -84.5q-89 -69 -164 -69q-66 0 -66 97q0 79 42 196q31 2 156 15t169 13
q11 0 11 5q0 4 -10 4q-49 0 -139.5 0.5t-171.5 0.5q44 107 66 107q7 0 7 -19q0 -6 6 -6q13 0 13 13q0 9 -8 16t-22 7q-18 0 -45 -33t-55 -85h-32q-20 0 -20 -11q0 -8 8.5 -15.5t24.5 -10.5q-60 -129 -60 -225q0 -122 108 -122q88 0 189 101q10 -31 18.5 -48.5t25.5 -32.5
t40 -15z" />
    <glyph glyph-name="germandbls" unicode="&#xdf;" 
d="M818 191q22 0 43 19.5t31 39.5l10 19q-1 -4 -4 -11.5t-13 -26.5t-22 -34t-33 -28.5t-44 -16.5q-118 -116 -284 -116q-168 0 -286.5 118.5t-118.5 285.5q0 34 7 76q-31 -22 -62 -53q9 16 23 37.5t49.5 64t74.5 74.5t97 57.5t117 25.5q55 0 55 -32q0 -22 -25 -61.5t-60 -86
t-70.5 -95.5t-60.5 -101t-25 -92q0 -29 17.5 -48t44.5 -19q24 0 43.5 18t19.5 39q0 5 -5 5q-3 -1 -11 -1q-29 0 -29 36q0 44 51 126.5t102 161.5t51 114q0 27 -20.5 46.5t-59.5 19.5q-159 0 -289 -146q49 108 148.5 173.5t221.5 65.5q167 0 285.5 -118.5t118.5 -286.5
q0 -107 -54 -202q-13 -5 -21 -5q-54 0 -76 76q62 68 105 144q3 6 3 9t-2 3q-4 0 -8 -8q-39 -72 -103 -130q-3 13 -9 41t-9.5 42.5t-11 32.5t-19 26t-26.5 8q-42 0 -61 -51q0 -4 3 -4q45 0 68 -29.5t42 -84.5q-89 -69 -164 -69q-66 0 -66 97q0 79 42 196q31 2 156 15t169 13
q11 0 11 5q0 4 -10 4q-49 0 -139.5 0.5t-171.5 0.5q44 107 66 107q7 0 7 -19q0 -6 6 -6q13 0 13 13q0 9 -8 16t-22 7q-18 0 -45 -33t-55 -85h-32q-20 0 -20 -11q0 -8 8.5 -15.5t24.5 -10.5q-60 -129 -60 -225q0 -122 108 -122q88 0 189 101q10 -31 18.5 -48.5t25.5 -32.5
t40 -15z" />
    <glyph glyph-name="agrave" unicode="&#xe0;" 
d="M818 191q22 0 43 19.5t31 39.5l10 19q-1 -4 -4 -11.5t-13 -26.5t-22 -34t-33 -28.5t-44 -16.5q-118 -116 -284 -116q-168 0 -286.5 118.5t-118.5 285.5q0 34 7 76q-31 -22 -62 -53q9 16 23 37.5t49.5 64t74.5 74.5t97 57.5t117 25.5q55 0 55 -32q0 -22 -25 -61.5t-60 -86
t-70.5 -95.5t-60.5 -101t-25 -92q0 -29 17.5 -48t44.5 -19q24 0 43.5 18t19.5 39q0 5 -5 5q-3 -1 -11 -1q-29 0 -29 36q0 44 51 126.5t102 161.5t51 114q0 27 -20.5 46.5t-59.5 19.5q-159 0 -289 -146q49 108 148.5 173.5t221.5 65.5q167 0 285.5 -118.5t118.5 -286.5
q0 -107 -54 -202q-13 -5 -21 -5q-54 0 -76 76q62 68 105 144q3 6 3 9t-2 3q-4 0 -8 -8q-39 -72 -103 -130q-3 13 -9 41t-9.5 42.5t-11 32.5t-19 26t-26.5 8q-42 0 -61 -51q0 -4 3 -4q45 0 68 -29.5t42 -84.5q-89 -69 -164 -69q-66 0 -66 97q0 79 42 196q31 2 156 15t169 13
q11 0 11 5q0 4 -10 4q-49 0 -139.5 0.5t-171.5 0.5q44 107 66 107q7 0 7 -19q0 -6 6 -6q13 0 13 13q0 9 -8 16t-22 7q-18 0 -45 -33t-55 -85h-32q-20 0 -20 -11q0 -8 8.5 -15.5t24.5 -10.5q-60 -129 -60 -225q0 -122 108 -122q88 0 189 101q10 -31 18.5 -48.5t25.5 -32.5
t40 -15z" />
    <glyph glyph-name="aacute" unicode="&#xe1;" 
d="M818 191q22 0 43 19.5t31 39.5l10 19q-1 -4 -4 -11.5t-13 -26.5t-22 -34t-33 -28.5t-44 -16.5q-118 -116 -284 -116q-168 0 -286.5 118.5t-118.5 285.5q0 34 7 76q-31 -22 -62 -53q9 16 23 37.5t49.5 64t74.5 74.5t97 57.5t117 25.5q55 0 55 -32q0 -22 -25 -61.5t-60 -86
t-70.5 -95.5t-60.5 -101t-25 -92q0 -29 17.5 -48t44.5 -19q24 0 43.5 18t19.5 39q0 5 -5 5q-3 -1 -11 -1q-29 0 -29 36q0 44 51 126.5t102 161.5t51 114q0 27 -20.5 46.5t-59.5 19.5q-159 0 -289 -146q49 108 148.5 173.5t221.5 65.5q167 0 285.5 -118.5t118.5 -286.5
q0 -107 -54 -202q-13 -5 -21 -5q-54 0 -76 76q62 68 105 144q3 6 3 9t-2 3q-4 0 -8 -8q-39 -72 -103 -130q-3 13 -9 41t-9.5 42.5t-11 32.5t-19 26t-26.5 8q-42 0 -61 -51q0 -4 3 -4q45 0 68 -29.5t42 -84.5q-89 -69 -164 -69q-66 0 -66 97q0 79 42 196q31 2 156 15t169 13
q11 0 11 5q0 4 -10 4q-49 0 -139.5 0.5t-171.5 0.5q44 107 66 107q7 0 7 -19q0 -6 6 -6q13 0 13 13q0 9 -8 16t-22 7q-18 0 -45 -33t-55 -85h-32q-20 0 -20 -11q0 -8 8.5 -15.5t24.5 -10.5q-60 -129 -60 -225q0 -122 108 -122q88 0 189 101q10 -31 18.5 -48.5t25.5 -32.5
t40 -15z" />
    <glyph glyph-name="acircumflex" unicode="&#xe2;" 
d="M818 191q22 0 43 19.5t31 39.5l10 19q-1 -4 -4 -11.5t-13 -26.5t-22 -34t-33 -28.5t-44 -16.5q-118 -116 -284 -116q-168 0 -286.5 118.5t-118.5 285.5q0 34 7 76q-31 -22 -62 -53q9 16 23 37.5t49.5 64t74.5 74.5t97 57.5t117 25.5q55 0 55 -32q0 -22 -25 -61.5t-60 -86
t-70.5 -95.5t-60.5 -101t-25 -92q0 -29 17.5 -48t44.5 -19q24 0 43.5 18t19.5 39q0 5 -5 5q-3 -1 -11 -1q-29 0 -29 36q0 44 51 126.5t102 161.5t51 114q0 27 -20.5 46.5t-59.5 19.5q-159 0 -289 -146q49 108 148.5 173.5t221.5 65.5q167 0 285.5 -118.5t118.5 -286.5
q0 -107 -54 -202q-13 -5 -21 -5q-54 0 -76 76q62 68 105 144q3 6 3 9t-2 3q-4 0 -8 -8q-39 -72 -103 -130q-3 13 -9 41t-9.5 42.5t-11 32.5t-19 26t-26.5 8q-42 0 -61 -51q0 -4 3 -4q45 0 68 -29.5t42 -84.5q-89 -69 -164 -69q-66 0 -66 97q0 79 42 196q31 2 156 15t169 13
q11 0 11 5q0 4 -10 4q-49 0 -139.5 0.5t-171.5 0.5q44 107 66 107q7 0 7 -19q0 -6 6 -6q13 0 13 13q0 9 -8 16t-22 7q-18 0 -45 -33t-55 -85h-32q-20 0 -20 -11q0 -8 8.5 -15.5t24.5 -10.5q-60 -129 -60 -225q0 -122 108 -122q88 0 189 101q10 -31 18.5 -48.5t25.5 -32.5
t40 -15z" />
    <glyph glyph-name="atilde" unicode="&#xe3;" 
d="M818 191q22 0 43 19.5t31 39.5l10 19q-1 -4 -4 -11.5t-13 -26.5t-22 -34t-33 -28.5t-44 -16.5q-118 -116 -284 -116q-168 0 -286.5 118.5t-118.5 285.5q0 34 7 76q-31 -22 -62 -53q9 16 23 37.5t49.5 64t74.5 74.5t97 57.5t117 25.5q55 0 55 -32q0 -22 -25 -61.5t-60 -86
t-70.5 -95.5t-60.5 -101t-25 -92q0 -29 17.5 -48t44.5 -19q24 0 43.5 18t19.5 39q0 5 -5 5q-3 -1 -11 -1q-29 0 -29 36q0 44 51 126.5t102 161.5t51 114q0 27 -20.5 46.5t-59.5 19.5q-159 0 -289 -146q49 108 148.5 173.5t221.5 65.5q167 0 285.5 -118.5t118.5 -286.5
q0 -107 -54 -202q-13 -5 -21 -5q-54 0 -76 76q62 68 105 144q3 6 3 9t-2 3q-4 0 -8 -8q-39 -72 -103 -130q-3 13 -9 41t-9.5 42.5t-11 32.5t-19 26t-26.5 8q-42 0 -61 -51q0 -4 3 -4q45 0 68 -29.5t42 -84.5q-89 -69 -164 -69q-66 0 -66 97q0 79 42 196q31 2 156 15t169 13
q11 0 11 5q0 4 -10 4q-49 0 -139.5 0.5t-171.5 0.5q44 107 66 107q7 0 7 -19q0 -6 6 -6q13 0 13 13q0 9 -8 16t-22 7q-18 0 -45 -33t-55 -85h-32q-20 0 -20 -11q0 -8 8.5 -15.5t24.5 -10.5q-60 -129 -60 -225q0 -122 108 -122q88 0 189 101q10 -31 18.5 -48.5t25.5 -32.5
t40 -15z" />
    <glyph glyph-name="adieresis" unicode="&#xe4;" 
d="M818 191q22 0 43 19.5t31 39.5l10 19q-1 -4 -4 -11.5t-13 -26.5t-22 -34t-33 -28.5t-44 -16.5q-118 -116 -284 -116q-168 0 -286.5 118.5t-118.5 285.5q0 34 7 76q-31 -22 -62 -53q9 16 23 37.5t49.5 64t74.5 74.5t97 57.5t117 25.5q55 0 55 -32q0 -22 -25 -61.5t-60 -86
t-70.5 -95.5t-60.5 -101t-25 -92q0 -29 17.5 -48t44.5 -19q24 0 43.5 18t19.5 39q0 5 -5 5q-3 -1 -11 -1q-29 0 -29 36q0 44 51 126.5t102 161.5t51 114q0 27 -20.5 46.5t-59.5 19.5q-159 0 -289 -146q49 108 148.5 173.5t221.5 65.5q167 0 285.5 -118.5t118.5 -286.5
q0 -107 -54 -202q-13 -5 -21 -5q-54 0 -76 76q62 68 105 144q3 6 3 9t-2 3q-4 0 -8 -8q-39 -72 -103 -130q-3 13 -9 41t-9.5 42.5t-11 32.5t-19 26t-26.5 8q-42 0 -61 -51q0 -4 3 -4q45 0 68 -29.5t42 -84.5q-89 -69 -164 -69q-66 0 -66 97q0 79 42 196q31 2 156 15t169 13
q11 0 11 5q0 4 -10 4q-49 0 -139.5 0.5t-171.5 0.5q44 107 66 107q7 0 7 -19q0 -6 6 -6q13 0 13 13q0 9 -8 16t-22 7q-18 0 -45 -33t-55 -85h-32q-20 0 -20 -11q0 -8 8.5 -15.5t24.5 -10.5q-60 -129 -60 -225q0 -122 108 -122q88 0 189 101q10 -31 18.5 -48.5t25.5 -32.5
t40 -15z" />
    <glyph glyph-name="aring" unicode="&#xe5;" 
d="M818 191q22 0 43 19.5t31 39.5l10 19q-1 -4 -4 -11.5t-13 -26.5t-22 -34t-33 -28.5t-44 -16.5q-118 -116 -284 -116q-168 0 -286.5 118.5t-118.5 285.5q0 34 7 76q-31 -22 -62 -53q9 16 23 37.5t49.5 64t74.5 74.5t97 57.5t117 25.5q55 0 55 -32q0 -22 -25 -61.5t-60 -86
t-70.5 -95.5t-60.5 -101t-25 -92q0 -29 17.5 -48t44.5 -19q24 0 43.5 18t19.5 39q0 5 -5 5q-3 -1 -11 -1q-29 0 -29 36q0 44 51 126.5t102 161.5t51 114q0 27 -20.5 46.5t-59.5 19.5q-159 0 -289 -146q49 108 148.5 173.5t221.5 65.5q167 0 285.5 -118.5t118.5 -286.5
q0 -107 -54 -202q-13 -5 -21 -5q-54 0 -76 76q62 68 105 144q3 6 3 9t-2 3q-4 0 -8 -8q-39 -72 -103 -130q-3 13 -9 41t-9.5 42.5t-11 32.5t-19 26t-26.5 8q-42 0 -61 -51q0 -4 3 -4q45 0 68 -29.5t42 -84.5q-89 -69 -164 -69q-66 0 -66 97q0 79 42 196q31 2 156 15t169 13
q11 0 11 5q0 4 -10 4q-49 0 -139.5 0.5t-171.5 0.5q44 107 66 107q7 0 7 -19q0 -6 6 -6q13 0 13 13q0 9 -8 16t-22 7q-18 0 -45 -33t-55 -85h-32q-20 0 -20 -11q0 -8 8.5 -15.5t24.5 -10.5q-60 -129 -60 -225q0 -122 108 -122q88 0 189 101q10 -31 18.5 -48.5t25.5 -32.5
t40 -15z" />
    <glyph glyph-name="ae" unicode="&#xe6;" 
d="M818 191q22 0 43 19.5t31 39.5l10 19q-1 -4 -4 -11.5t-13 -26.5t-22 -34t-33 -28.5t-44 -16.5q-118 -116 -284 -116q-168 0 -286.5 118.5t-118.5 285.5q0 34 7 76q-31 -22 -62 -53q9 16 23 37.5t49.5 64t74.5 74.5t97 57.5t117 25.5q55 0 55 -32q0 -22 -25 -61.5t-60 -86
t-70.5 -95.5t-60.5 -101t-25 -92q0 -29 17.5 -48t44.5 -19q24 0 43.5 18t19.5 39q0 5 -5 5q-3 -1 -11 -1q-29 0 -29 36q0 44 51 126.5t102 161.5t51 114q0 27 -20.5 46.5t-59.5 19.5q-159 0 -289 -146q49 108 148.5 173.5t221.5 65.5q167 0 285.5 -118.5t118.5 -286.5
q0 -107 -54 -202q-13 -5 -21 -5q-54 0 -76 76q62 68 105 144q3 6 3 9t-2 3q-4 0 -8 -8q-39 -72 -103 -130q-3 13 -9 41t-9.5 42.5t-11 32.5t-19 26t-26.5 8q-42 0 -61 -51q0 -4 3 -4q45 0 68 -29.5t42 -84.5q-89 -69 -164 -69q-66 0 -66 97q0 79 42 196q31 2 156 15t169 13
q11 0 11 5q0 4 -10 4q-49 0 -139.5 0.5t-171.5 0.5q44 107 66 107q7 0 7 -19q0 -6 6 -6q13 0 13 13q0 9 -8 16t-22 7q-18 0 -45 -33t-55 -85h-32q-20 0 -20 -11q0 -8 8.5 -15.5t24.5 -10.5q-60 -129 -60 -225q0 -122 108 -122q88 0 189 101q10 -31 18.5 -48.5t25.5 -32.5
t40 -15z" />
    <glyph glyph-name="ccedilla" unicode="&#xe7;" 
d="M818 191q22 0 43 19.5t31 39.5l10 19q-1 -4 -4 -11.5t-13 -26.5t-22 -34t-33 -28.5t-44 -16.5q-118 -116 -284 -116q-168 0 -286.5 118.5t-118.5 285.5q0 34 7 76q-31 -22 -62 -53q9 16 23 37.5t49.5 64t74.5 74.5t97 57.5t117 25.5q55 0 55 -32q0 -22 -25 -61.5t-60 -86
t-70.5 -95.5t-60.5 -101t-25 -92q0 -29 17.5 -48t44.5 -19q24 0 43.5 18t19.5 39q0 5 -5 5q-3 -1 -11 -1q-29 0 -29 36q0 44 51 126.5t102 161.5t51 114q0 27 -20.5 46.5t-59.5 19.5q-159 0 -289 -146q49 108 148.5 173.5t221.5 65.5q167 0 285.5 -118.5t118.5 -286.5
q0 -107 -54 -202q-13 -5 -21 -5q-54 0 -76 76q62 68 105 144q3 6 3 9t-2 3q-4 0 -8 -8q-39 -72 -103 -130q-3 13 -9 41t-9.5 42.5t-11 32.5t-19 26t-26.5 8q-42 0 -61 -51q0 -4 3 -4q45 0 68 -29.5t42 -84.5q-89 -69 -164 -69q-66 0 -66 97q0 79 42 196q31 2 156 15t169 13
q11 0 11 5q0 4 -10 4q-49 0 -139.5 0.5t-171.5 0.5q44 107 66 107q7 0 7 -19q0 -6 6 -6q13 0 13 13q0 9 -8 16t-22 7q-18 0 -45 -33t-55 -85h-32q-20 0 -20 -11q0 -8 8.5 -15.5t24.5 -10.5q-60 -129 -60 -225q0 -122 108 -122q88 0 189 101q10 -31 18.5 -48.5t25.5 -32.5
t40 -15z" />
    <glyph glyph-name="egrave" unicode="&#xe8;" 
d="M818 191q22 0 43 19.5t31 39.5l10 19q-1 -4 -4 -11.5t-13 -26.5t-22 -34t-33 -28.5t-44 -16.5q-118 -116 -284 -116q-168 0 -286.5 118.5t-118.5 285.5q0 34 7 76q-31 -22 -62 -53q9 16 23 37.5t49.5 64t74.5 74.5t97 57.5t117 25.5q55 0 55 -32q0 -22 -25 -61.5t-60 -86
t-70.5 -95.5t-60.5 -101t-25 -92q0 -29 17.5 -48t44.5 -19q24 0 43.5 18t19.5 39q0 5 -5 5q-3 -1 -11 -1q-29 0 -29 36q0 44 51 126.5t102 161.5t51 114q0 27 -20.5 46.5t-59.5 19.5q-159 0 -289 -146q49 108 148.5 173.5t221.5 65.5q167 0 285.5 -118.5t118.5 -286.5
q0 -107 -54 -202q-13 -5 -21 -5q-54 0 -76 76q62 68 105 144q3 6 3 9t-2 3q-4 0 -8 -8q-39 -72 -103 -130q-3 13 -9 41t-9.5 42.5t-11 32.5t-19 26t-26.5 8q-42 0 -61 -51q0 -4 3 -4q45 0 68 -29.5t42 -84.5q-89 -69 -164 -69q-66 0 -66 97q0 79 42 196q31 2 156 15t169 13
q11 0 11 5q0 4 -10 4q-49 0 -139.5 0.5t-171.5 0.5q44 107 66 107q7 0 7 -19q0 -6 6 -6q13 0 13 13q0 9 -8 16t-22 7q-18 0 -45 -33t-55 -85h-32q-20 0 -20 -11q0 -8 8.5 -15.5t24.5 -10.5q-60 -129 -60 -225q0 -122 108 -122q88 0 189 101q10 -31 18.5 -48.5t25.5 -32.5
t40 -15z" />
    <glyph glyph-name="eacute" unicode="&#xe9;" 
d="M818 191q22 0 43 19.5t31 39.5l10 19q-1 -4 -4 -11.5t-13 -26.5t-22 -34t-33 -28.5t-44 -16.5q-118 -116 -284 -116q-168 0 -286.5 118.5t-118.5 285.5q0 34 7 76q-31 -22 -62 -53q9 16 23 37.5t49.5 64t74.5 74.5t97 57.5t117 25.5q55 0 55 -32q0 -22 -25 -61.5t-60 -86
t-70.5 -95.5t-60.5 -101t-25 -92q0 -29 17.5 -48t44.5 -19q24 0 43.5 18t19.5 39q0 5 -5 5q-3 -1 -11 -1q-29 0 -29 36q0 44 51 126.5t102 161.5t51 114q0 27 -20.5 46.5t-59.5 19.5q-159 0 -289 -146q49 108 148.5 173.5t221.5 65.5q167 0 285.5 -118.5t118.5 -286.5
q0 -107 -54 -202q-13 -5 -21 -5q-54 0 -76 76q62 68 105 144q3 6 3 9t-2 3q-4 0 -8 -8q-39 -72 -103 -130q-3 13 -9 41t-9.5 42.5t-11 32.5t-19 26t-26.5 8q-42 0 -61 -51q0 -4 3 -4q45 0 68 -29.5t42 -84.5q-89 -69 -164 -69q-66 0 -66 97q0 79 42 196q31 2 156 15t169 13
q11 0 11 5q0 4 -10 4q-49 0 -139.5 0.5t-171.5 0.5q44 107 66 107q7 0 7 -19q0 -6 6 -6q13 0 13 13q0 9 -8 16t-22 7q-18 0 -45 -33t-55 -85h-32q-20 0 -20 -11q0 -8 8.5 -15.5t24.5 -10.5q-60 -129 -60 -225q0 -122 108 -122q88 0 189 101q10 -31 18.5 -48.5t25.5 -32.5
t40 -15z" />
    <glyph glyph-name="ecircumflex" unicode="&#xea;" 
d="M818 191q22 0 43 19.5t31 39.5l10 19q-1 -4 -4 -11.5t-13 -26.5t-22 -34t-33 -28.5t-44 -16.5q-118 -116 -284 -116q-168 0 -286.5 118.5t-118.5 285.5q0 34 7 76q-31 -22 -62 -53q9 16 23 37.5t49.5 64t74.5 74.5t97 57.5t117 25.5q55 0 55 -32q0 -22 -25 -61.5t-60 -86
t-70.5 -95.5t-60.5 -101t-25 -92q0 -29 17.5 -48t44.5 -19q24 0 43.5 18t19.5 39q0 5 -5 5q-3 -1 -11 -1q-29 0 -29 36q0 44 51 126.5t102 161.5t51 114q0 27 -20.5 46.5t-59.5 19.5q-159 0 -289 -146q49 108 148.5 173.5t221.5 65.5q167 0 285.5 -118.5t118.5 -286.5
q0 -107 -54 -202q-13 -5 -21 -5q-54 0 -76 76q62 68 105 144q3 6 3 9t-2 3q-4 0 -8 -8q-39 -72 -103 -130q-3 13 -9 41t-9.5 42.5t-11 32.5t-19 26t-26.5 8q-42 0 -61 -51q0 -4 3 -4q45 0 68 -29.5t42 -84.5q-89 -69 -164 -69q-66 0 -66 97q0 79 42 196q31 2 156 15t169 13
q11 0 11 5q0 4 -10 4q-49 0 -139.5 0.5t-171.5 0.5q44 107 66 107q7 0 7 -19q0 -6 6 -6q13 0 13 13q0 9 -8 16t-22 7q-18 0 -45 -33t-55 -85h-32q-20 0 -20 -11q0 -8 8.5 -15.5t24.5 -10.5q-60 -129 -60 -225q0 -122 108 -122q88 0 189 101q10 -31 18.5 -48.5t25.5 -32.5
t40 -15z" />
    <glyph glyph-name="edieresis" unicode="&#xeb;" 
d="M818 191q22 0 43 19.5t31 39.5l10 19q-1 -4 -4 -11.5t-13 -26.5t-22 -34t-33 -28.5t-44 -16.5q-118 -116 -284 -116q-168 0 -286.5 118.5t-118.5 285.5q0 34 7 76q-31 -22 -62 -53q9 16 23 37.5t49.5 64t74.5 74.5t97 57.5t117 25.5q55 0 55 -32q0 -22 -25 -61.5t-60 -86
t-70.5 -95.5t-60.5 -101t-25 -92q0 -29 17.5 -48t44.5 -19q24 0 43.5 18t19.5 39q0 5 -5 5q-3 -1 -11 -1q-29 0 -29 36q0 44 51 126.5t102 161.5t51 114q0 27 -20.5 46.5t-59.5 19.5q-159 0 -289 -146q49 108 148.5 173.5t221.5 65.5q167 0 285.5 -118.5t118.5 -286.5
q0 -107 -54 -202q-13 -5 -21 -5q-54 0 -76 76q62 68 105 144q3 6 3 9t-2 3q-4 0 -8 -8q-39 -72 -103 -130q-3 13 -9 41t-9.5 42.5t-11 32.5t-19 26t-26.5 8q-42 0 -61 -51q0 -4 3 -4q45 0 68 -29.5t42 -84.5q-89 -69 -164 -69q-66 0 -66 97q0 79 42 196q31 2 156 15t169 13
q11 0 11 5q0 4 -10 4q-49 0 -139.5 0.5t-171.5 0.5q44 107 66 107q7 0 7 -19q0 -6 6 -6q13 0 13 13q0 9 -8 16t-22 7q-18 0 -45 -33t-55 -85h-32q-20 0 -20 -11q0 -8 8.5 -15.5t24.5 -10.5q-60 -129 -60 -225q0 -122 108 -122q88 0 189 101q10 -31 18.5 -48.5t25.5 -32.5
t40 -15z" />
    <glyph glyph-name="igrave" unicode="&#xec;" 
d="M818 191q22 0 43 19.5t31 39.5l10 19q-1 -4 -4 -11.5t-13 -26.5t-22 -34t-33 -28.5t-44 -16.5q-118 -116 -284 -116q-168 0 -286.5 118.5t-118.5 285.5q0 34 7 76q-31 -22 -62 -53q9 16 23 37.5t49.5 64t74.5 74.5t97 57.5t117 25.5q55 0 55 -32q0 -22 -25 -61.5t-60 -86
t-70.5 -95.5t-60.5 -101t-25 -92q0 -29 17.5 -48t44.5 -19q24 0 43.5 18t19.5 39q0 5 -5 5q-3 -1 -11 -1q-29 0 -29 36q0 44 51 126.5t102 161.5t51 114q0 27 -20.5 46.5t-59.5 19.5q-159 0 -289 -146q49 108 148.5 173.5t221.5 65.5q167 0 285.5 -118.5t118.5 -286.5
q0 -107 -54 -202q-13 -5 -21 -5q-54 0 -76 76q62 68 105 144q3 6 3 9t-2 3q-4 0 -8 -8q-39 -72 -103 -130q-3 13 -9 41t-9.5 42.5t-11 32.5t-19 26t-26.5 8q-42 0 -61 -51q0 -4 3 -4q45 0 68 -29.5t42 -84.5q-89 -69 -164 -69q-66 0 -66 97q0 79 42 196q31 2 156 15t169 13
q11 0 11 5q0 4 -10 4q-49 0 -139.5 0.5t-171.5 0.5q44 107 66 107q7 0 7 -19q0 -6 6 -6q13 0 13 13q0 9 -8 16t-22 7q-18 0 -45 -33t-55 -85h-32q-20 0 -20 -11q0 -8 8.5 -15.5t24.5 -10.5q-60 -129 -60 -225q0 -122 108 -122q88 0 189 101q10 -31 18.5 -48.5t25.5 -32.5
t40 -15z" />
    <glyph glyph-name="iacute" unicode="&#xed;" 
d="M818 191q22 0 43 19.5t31 39.5l10 19q-1 -4 -4 -11.5t-13 -26.5t-22 -34t-33 -28.5t-44 -16.5q-118 -116 -284 -116q-168 0 -286.5 118.5t-118.5 285.5q0 34 7 76q-31 -22 -62 -53q9 16 23 37.5t49.5 64t74.5 74.5t97 57.5t117 25.5q55 0 55 -32q0 -22 -25 -61.5t-60 -86
t-70.5 -95.5t-60.5 -101t-25 -92q0 -29 17.5 -48t44.5 -19q24 0 43.5 18t19.5 39q0 5 -5 5q-3 -1 -11 -1q-29 0 -29 36q0 44 51 126.5t102 161.5t51 114q0 27 -20.5 46.5t-59.5 19.5q-159 0 -289 -146q49 108 148.5 173.5t221.5 65.5q167 0 285.5 -118.5t118.5 -286.5
q0 -107 -54 -202q-13 -5 -21 -5q-54 0 -76 76q62 68 105 144q3 6 3 9t-2 3q-4 0 -8 -8q-39 -72 -103 -130q-3 13 -9 41t-9.5 42.5t-11 32.5t-19 26t-26.5 8q-42 0 -61 -51q0 -4 3 -4q45 0 68 -29.5t42 -84.5q-89 -69 -164 -69q-66 0 -66 97q0 79 42 196q31 2 156 15t169 13
q11 0 11 5q0 4 -10 4q-49 0 -139.5 0.5t-171.5 0.5q44 107 66 107q7 0 7 -19q0 -6 6 -6q13 0 13 13q0 9 -8 16t-22 7q-18 0 -45 -33t-55 -85h-32q-20 0 -20 -11q0 -8 8.5 -15.5t24.5 -10.5q-60 -129 -60 -225q0 -122 108 -122q88 0 189 101q10 -31 18.5 -48.5t25.5 -32.5
t40 -15z" />
    <glyph glyph-name="icircumflex" unicode="&#xee;" 
d="M818 191q22 0 43 19.5t31 39.5l10 19q-1 -4 -4 -11.5t-13 -26.5t-22 -34t-33 -28.5t-44 -16.5q-118 -116 -284 -116q-168 0 -286.5 118.5t-118.5 285.5q0 34 7 76q-31 -22 -62 -53q9 16 23 37.5t49.5 64t74.5 74.5t97 57.5t117 25.5q55 0 55 -32q0 -22 -25 -61.5t-60 -86
t-70.5 -95.5t-60.5 -101t-25 -92q0 -29 17.5 -48t44.5 -19q24 0 43.5 18t19.5 39q0 5 -5 5q-3 -1 -11 -1q-29 0 -29 36q0 44 51 126.5t102 161.5t51 114q0 27 -20.5 46.5t-59.5 19.5q-159 0 -289 -146q49 108 148.5 173.5t221.5 65.5q167 0 285.5 -118.5t118.5 -286.5
q0 -107 -54 -202q-13 -5 -21 -5q-54 0 -76 76q62 68 105 144q3 6 3 9t-2 3q-4 0 -8 -8q-39 -72 -103 -130q-3 13 -9 41t-9.5 42.5t-11 32.5t-19 26t-26.5 8q-42 0 -61 -51q0 -4 3 -4q45 0 68 -29.5t42 -84.5q-89 -69 -164 -69q-66 0 -66 97q0 79 42 196q31 2 156 15t169 13
q11 0 11 5q0 4 -10 4q-49 0 -139.5 0.5t-171.5 0.5q44 107 66 107q7 0 7 -19q0 -6 6 -6q13 0 13 13q0 9 -8 16t-22 7q-18 0 -45 -33t-55 -85h-32q-20 0 -20 -11q0 -8 8.5 -15.5t24.5 -10.5q-60 -129 -60 -225q0 -122 108 -122q88 0 189 101q10 -31 18.5 -48.5t25.5 -32.5
t40 -15z" />
    <glyph glyph-name="idieresis" unicode="&#xef;" 
d="M818 191q22 0 43 19.5t31 39.5l10 19q-1 -4 -4 -11.5t-13 -26.5t-22 -34t-33 -28.5t-44 -16.5q-118 -116 -284 -116q-168 0 -286.5 118.5t-118.5 285.5q0 34 7 76q-31 -22 -62 -53q9 16 23 37.5t49.5 64t74.5 74.5t97 57.5t117 25.5q55 0 55 -32q0 -22 -25 -61.5t-60 -86
t-70.5 -95.5t-60.5 -101t-25 -92q0 -29 17.5 -48t44.5 -19q24 0 43.5 18t19.5 39q0 5 -5 5q-3 -1 -11 -1q-29 0 -29 36q0 44 51 126.5t102 161.5t51 114q0 27 -20.5 46.5t-59.5 19.5q-159 0 -289 -146q49 108 148.5 173.5t221.5 65.5q167 0 285.5 -118.5t118.5 -286.5
q0 -107 -54 -202q-13 -5 -21 -5q-54 0 -76 76q62 68 105 144q3 6 3 9t-2 3q-4 0 -8 -8q-39 -72 -103 -130q-3 13 -9 41t-9.5 42.5t-11 32.5t-19 26t-26.5 8q-42 0 -61 -51q0 -4 3 -4q45 0 68 -29.5t42 -84.5q-89 -69 -164 -69q-66 0 -66 97q0 79 42 196q31 2 156 15t169 13
q11 0 11 5q0 4 -10 4q-49 0 -139.5 0.5t-171.5 0.5q44 107 66 107q7 0 7 -19q0 -6 6 -6q13 0 13 13q0 9 -8 16t-22 7q-18 0 -45 -33t-55 -85h-32q-20 0 -20 -11q0 -8 8.5 -15.5t24.5 -10.5q-60 -129 -60 -225q0 -122 108 -122q88 0 189 101q10 -31 18.5 -48.5t25.5 -32.5
t40 -15z" />
    <glyph glyph-name="eth" unicode="&#xf0;" 
d="M818 191q22 0 43 19.5t31 39.5l10 19q-1 -4 -4 -11.5t-13 -26.5t-22 -34t-33 -28.5t-44 -16.5q-118 -116 -284 -116q-168 0 -286.5 118.5t-118.5 285.5q0 34 7 76q-31 -22 -62 -53q9 16 23 37.5t49.5 64t74.5 74.5t97 57.5t117 25.5q55 0 55 -32q0 -22 -25 -61.5t-60 -86
t-70.5 -95.5t-60.5 -101t-25 -92q0 -29 17.5 -48t44.5 -19q24 0 43.5 18t19.5 39q0 5 -5 5q-3 -1 -11 -1q-29 0 -29 36q0 44 51 126.5t102 161.5t51 114q0 27 -20.5 46.5t-59.5 19.5q-159 0 -289 -146q49 108 148.5 173.5t221.5 65.5q167 0 285.5 -118.5t118.5 -286.5
q0 -107 -54 -202q-13 -5 -21 -5q-54 0 -76 76q62 68 105 144q3 6 3 9t-2 3q-4 0 -8 -8q-39 -72 -103 -130q-3 13 -9 41t-9.5 42.5t-11 32.5t-19 26t-26.5 8q-42 0 -61 -51q0 -4 3 -4q45 0 68 -29.5t42 -84.5q-89 -69 -164 -69q-66 0 -66 97q0 79 42 196q31 2 156 15t169 13
q11 0 11 5q0 4 -10 4q-49 0 -139.5 0.5t-171.5 0.5q44 107 66 107q7 0 7 -19q0 -6 6 -6q13 0 13 13q0 9 -8 16t-22 7q-18 0 -45 -33t-55 -85h-32q-20 0 -20 -11q0 -8 8.5 -15.5t24.5 -10.5q-60 -129 -60 -225q0 -122 108 -122q88 0 189 101q10 -31 18.5 -48.5t25.5 -32.5
t40 -15z" />
    <glyph glyph-name="ntilde" unicode="&#xf1;" 
d="M818 191q22 0 43 19.5t31 39.5l10 19q-1 -4 -4 -11.5t-13 -26.5t-22 -34t-33 -28.5t-44 -16.5q-118 -116 -284 -116q-168 0 -286.5 118.5t-118.5 285.5q0 34 7 76q-31 -22 -62 -53q9 16 23 37.5t49.5 64t74.5 74.5t97 57.5t117 25.5q55 0 55 -32q0 -22 -25 -61.5t-60 -86
t-70.5 -95.5t-60.5 -101t-25 -92q0 -29 17.5 -48t44.5 -19q24 0 43.5 18t19.5 39q0 5 -5 5q-3 -1 -11 -1q-29 0 -29 36q0 44 51 126.5t102 161.5t51 114q0 27 -20.5 46.5t-59.5 19.5q-159 0 -289 -146q49 108 148.5 173.5t221.5 65.5q167 0 285.5 -118.5t118.5 -286.5
q0 -107 -54 -202q-13 -5 -21 -5q-54 0 -76 76q62 68 105 144q3 6 3 9t-2 3q-4 0 -8 -8q-39 -72 -103 -130q-3 13 -9 41t-9.5 42.5t-11 32.5t-19 26t-26.5 8q-42 0 -61 -51q0 -4 3 -4q45 0 68 -29.5t42 -84.5q-89 -69 -164 -69q-66 0 -66 97q0 79 42 196q31 2 156 15t169 13
q11 0 11 5q0 4 -10 4q-49 0 -139.5 0.5t-171.5 0.5q44 107 66 107q7 0 7 -19q0 -6 6 -6q13 0 13 13q0 9 -8 16t-22 7q-18 0 -45 -33t-55 -85h-32q-20 0 -20 -11q0 -8 8.5 -15.5t24.5 -10.5q-60 -129 -60 -225q0 -122 108 -122q88 0 189 101q10 -31 18.5 -48.5t25.5 -32.5
t40 -15z" />
    <glyph glyph-name="ograve" unicode="&#xf2;" 
d="M818 191q22 0 43 19.5t31 39.5l10 19q-1 -4 -4 -11.5t-13 -26.5t-22 -34t-33 -28.5t-44 -16.5q-118 -116 -284 -116q-168 0 -286.5 118.5t-118.5 285.5q0 34 7 76q-31 -22 -62 -53q9 16 23 37.5t49.5 64t74.5 74.5t97 57.5t117 25.5q55 0 55 -32q0 -22 -25 -61.5t-60 -86
t-70.5 -95.5t-60.5 -101t-25 -92q0 -29 17.5 -48t44.5 -19q24 0 43.5 18t19.5 39q0 5 -5 5q-3 -1 -11 -1q-29 0 -29 36q0 44 51 126.5t102 161.5t51 114q0 27 -20.5 46.5t-59.5 19.5q-159 0 -289 -146q49 108 148.5 173.5t221.5 65.5q167 0 285.5 -118.5t118.5 -286.5
q0 -107 -54 -202q-13 -5 -21 -5q-54 0 -76 76q62 68 105 144q3 6 3 9t-2 3q-4 0 -8 -8q-39 -72 -103 -130q-3 13 -9 41t-9.5 42.5t-11 32.5t-19 26t-26.5 8q-42 0 -61 -51q0 -4 3 -4q45 0 68 -29.5t42 -84.5q-89 -69 -164 -69q-66 0 -66 97q0 79 42 196q31 2 156 15t169 13
q11 0 11 5q0 4 -10 4q-49 0 -139.5 0.5t-171.5 0.5q44 107 66 107q7 0 7 -19q0 -6 6 -6q13 0 13 13q0 9 -8 16t-22 7q-18 0 -45 -33t-55 -85h-32q-20 0 -20 -11q0 -8 8.5 -15.5t24.5 -10.5q-60 -129 -60 -225q0 -122 108 -122q88 0 189 101q10 -31 18.5 -48.5t25.5 -32.5
t40 -15z" />
    <glyph glyph-name="oacute" unicode="&#xf3;" 
d="M818 191q22 0 43 19.5t31 39.5l10 19q-1 -4 -4 -11.5t-13 -26.5t-22 -34t-33 -28.5t-44 -16.5q-118 -116 -284 -116q-168 0 -286.5 118.5t-118.5 285.5q0 34 7 76q-31 -22 -62 -53q9 16 23 37.5t49.5 64t74.5 74.5t97 57.5t117 25.5q55 0 55 -32q0 -22 -25 -61.5t-60 -86
t-70.5 -95.5t-60.5 -101t-25 -92q0 -29 17.5 -48t44.5 -19q24 0 43.5 18t19.5 39q0 5 -5 5q-3 -1 -11 -1q-29 0 -29 36q0 44 51 126.5t102 161.5t51 114q0 27 -20.5 46.5t-59.5 19.5q-159 0 -289 -146q49 108 148.5 173.5t221.5 65.5q167 0 285.5 -118.5t118.5 -286.5
q0 -107 -54 -202q-13 -5 -21 -5q-54 0 -76 76q62 68 105 144q3 6 3 9t-2 3q-4 0 -8 -8q-39 -72 -103 -130q-3 13 -9 41t-9.5 42.5t-11 32.5t-19 26t-26.5 8q-42 0 -61 -51q0 -4 3 -4q45 0 68 -29.5t42 -84.5q-89 -69 -164 -69q-66 0 -66 97q0 79 42 196q31 2 156 15t169 13
q11 0 11 5q0 4 -10 4q-49 0 -139.5 0.5t-171.5 0.5q44 107 66 107q7 0 7 -19q0 -6 6 -6q13 0 13 13q0 9 -8 16t-22 7q-18 0 -45 -33t-55 -85h-32q-20 0 -20 -11q0 -8 8.5 -15.5t24.5 -10.5q-60 -129 -60 -225q0 -122 108 -122q88 0 189 101q10 -31 18.5 -48.5t25.5 -32.5
t40 -15z" />
    <glyph glyph-name="ocircumflex" unicode="&#xf4;" 
d="M818 191q22 0 43 19.5t31 39.5l10 19q-1 -4 -4 -11.5t-13 -26.5t-22 -34t-33 -28.5t-44 -16.5q-118 -116 -284 -116q-168 0 -286.5 118.5t-118.5 285.5q0 34 7 76q-31 -22 -62 -53q9 16 23 37.5t49.5 64t74.5 74.5t97 57.5t117 25.5q55 0 55 -32q0 -22 -25 -61.5t-60 -86
t-70.5 -95.5t-60.5 -101t-25 -92q0 -29 17.5 -48t44.5 -19q24 0 43.5 18t19.5 39q0 5 -5 5q-3 -1 -11 -1q-29 0 -29 36q0 44 51 126.5t102 161.5t51 114q0 27 -20.5 46.5t-59.5 19.5q-159 0 -289 -146q49 108 148.5 173.5t221.5 65.5q167 0 285.5 -118.5t118.5 -286.5
q0 -107 -54 -202q-13 -5 -21 -5q-54 0 -76 76q62 68 105 144q3 6 3 9t-2 3q-4 0 -8 -8q-39 -72 -103 -130q-3 13 -9 41t-9.5 42.5t-11 32.5t-19 26t-26.5 8q-42 0 -61 -51q0 -4 3 -4q45 0 68 -29.5t42 -84.5q-89 -69 -164 -69q-66 0 -66 97q0 79 42 196q31 2 156 15t169 13
q11 0 11 5q0 4 -10 4q-49 0 -139.5 0.5t-171.5 0.5q44 107 66 107q7 0 7 -19q0 -6 6 -6q13 0 13 13q0 9 -8 16t-22 7q-18 0 -45 -33t-55 -85h-32q-20 0 -20 -11q0 -8 8.5 -15.5t24.5 -10.5q-60 -129 -60 -225q0 -122 108 -122q88 0 189 101q10 -31 18.5 -48.5t25.5 -32.5
t40 -15z" />
    <glyph glyph-name="otilde" unicode="&#xf5;" 
d="M818 191q22 0 43 19.5t31 39.5l10 19q-1 -4 -4 -11.5t-13 -26.5t-22 -34t-33 -28.5t-44 -16.5q-118 -116 -284 -116q-168 0 -286.5 118.5t-118.5 285.5q0 34 7 76q-31 -22 -62 -53q9 16 23 37.5t49.5 64t74.5 74.5t97 57.5t117 25.5q55 0 55 -32q0 -22 -25 -61.5t-60 -86
t-70.5 -95.5t-60.5 -101t-25 -92q0 -29 17.5 -48t44.5 -19q24 0 43.5 18t19.5 39q0 5 -5 5q-3 -1 -11 -1q-29 0 -29 36q0 44 51 126.5t102 161.5t51 114q0 27 -20.5 46.5t-59.5 19.5q-159 0 -289 -146q49 108 148.5 173.5t221.5 65.5q167 0 285.5 -118.5t118.5 -286.5
q0 -107 -54 -202q-13 -5 -21 -5q-54 0 -76 76q62 68 105 144q3 6 3 9t-2 3q-4 0 -8 -8q-39 -72 -103 -130q-3 13 -9 41t-9.5 42.5t-11 32.5t-19 26t-26.5 8q-42 0 -61 -51q0 -4 3 -4q45 0 68 -29.5t42 -84.5q-89 -69 -164 -69q-66 0 -66 97q0 79 42 196q31 2 156 15t169 13
q11 0 11 5q0 4 -10 4q-49 0 -139.5 0.5t-171.5 0.5q44 107 66 107q7 0 7 -19q0 -6 6 -6q13 0 13 13q0 9 -8 16t-22 7q-18 0 -45 -33t-55 -85h-32q-20 0 -20 -11q0 -8 8.5 -15.5t24.5 -10.5q-60 -129 -60 -225q0 -122 108 -122q88 0 189 101q10 -31 18.5 -48.5t25.5 -32.5
t40 -15z" />
    <glyph glyph-name="odieresis" unicode="&#xf6;" 
d="M818 191q22 0 43 19.5t31 39.5l10 19q-1 -4 -4 -11.5t-13 -26.5t-22 -34t-33 -28.5t-44 -16.5q-118 -116 -284 -116q-168 0 -286.5 118.5t-118.5 285.5q0 34 7 76q-31 -22 -62 -53q9 16 23 37.5t49.5 64t74.5 74.5t97 57.5t117 25.5q55 0 55 -32q0 -22 -25 -61.5t-60 -86
t-70.5 -95.5t-60.5 -101t-25 -92q0 -29 17.5 -48t44.5 -19q24 0 43.5 18t19.5 39q0 5 -5 5q-3 -1 -11 -1q-29 0 -29 36q0 44 51 126.5t102 161.5t51 114q0 27 -20.5 46.5t-59.5 19.5q-159 0 -289 -146q49 108 148.5 173.5t221.5 65.5q167 0 285.5 -118.5t118.5 -286.5
q0 -107 -54 -202q-13 -5 -21 -5q-54 0 -76 76q62 68 105 144q3 6 3 9t-2 3q-4 0 -8 -8q-39 -72 -103 -130q-3 13 -9 41t-9.5 42.5t-11 32.5t-19 26t-26.5 8q-42 0 -61 -51q0 -4 3 -4q45 0 68 -29.5t42 -84.5q-89 -69 -164 -69q-66 0 -66 97q0 79 42 196q31 2 156 15t169 13
q11 0 11 5q0 4 -10 4q-49 0 -139.5 0.5t-171.5 0.5q44 107 66 107q7 0 7 -19q0 -6 6 -6q13 0 13 13q0 9 -8 16t-22 7q-18 0 -45 -33t-55 -85h-32q-20 0 -20 -11q0 -8 8.5 -15.5t24.5 -10.5q-60 -129 -60 -225q0 -122 108 -122q88 0 189 101q10 -31 18.5 -48.5t25.5 -32.5
t40 -15z" />
    <glyph glyph-name="divide" unicode="&#xf7;" 
d="M818 191q22 0 43 19.5t31 39.5l10 19q-1 -4 -4 -11.5t-13 -26.5t-22 -34t-33 -28.5t-44 -16.5q-118 -116 -284 -116q-168 0 -286.5 118.5t-118.5 285.5q0 34 7 76q-31 -22 -62 -53q9 16 23 37.5t49.5 64t74.5 74.5t97 57.5t117 25.5q55 0 55 -32q0 -22 -25 -61.5t-60 -86
t-70.5 -95.5t-60.5 -101t-25 -92q0 -29 17.5 -48t44.5 -19q24 0 43.5 18t19.5 39q0 5 -5 5q-3 -1 -11 -1q-29 0 -29 36q0 44 51 126.5t102 161.5t51 114q0 27 -20.5 46.5t-59.5 19.5q-159 0 -289 -146q49 108 148.5 173.5t221.5 65.5q167 0 285.5 -118.5t118.5 -286.5
q0 -107 -54 -202q-13 -5 -21 -5q-54 0 -76 76q62 68 105 144q3 6 3 9t-2 3q-4 0 -8 -8q-39 -72 -103 -130q-3 13 -9 41t-9.5 42.5t-11 32.5t-19 26t-26.5 8q-42 0 -61 -51q0 -4 3 -4q45 0 68 -29.5t42 -84.5q-89 -69 -164 -69q-66 0 -66 97q0 79 42 196q31 2 156 15t169 13
q11 0 11 5q0 4 -10 4q-49 0 -139.5 0.5t-171.5 0.5q44 107 66 107q7 0 7 -19q0 -6 6 -6q13 0 13 13q0 9 -8 16t-22 7q-18 0 -45 -33t-55 -85h-32q-20 0 -20 -11q0 -8 8.5 -15.5t24.5 -10.5q-60 -129 -60 -225q0 -122 108 -122q88 0 189 101q10 -31 18.5 -48.5t25.5 -32.5
t40 -15z" />
    <glyph glyph-name="oslash" unicode="&#xf8;" 
d="M818 191q22 0 43 19.5t31 39.5l10 19q-1 -4 -4 -11.5t-13 -26.5t-22 -34t-33 -28.5t-44 -16.5q-118 -116 -284 -116q-168 0 -286.5 118.5t-118.5 285.5q0 34 7 76q-31 -22 -62 -53q9 16 23 37.5t49.5 64t74.5 74.5t97 57.5t117 25.5q55 0 55 -32q0 -22 -25 -61.5t-60 -86
t-70.5 -95.5t-60.5 -101t-25 -92q0 -29 17.5 -48t44.5 -19q24 0 43.5 18t19.5 39q0 5 -5 5q-3 -1 -11 -1q-29 0 -29 36q0 44 51 126.5t102 161.5t51 114q0 27 -20.5 46.5t-59.5 19.5q-159 0 -289 -146q49 108 148.5 173.5t221.5 65.5q167 0 285.5 -118.5t118.5 -286.5
q0 -107 -54 -202q-13 -5 -21 -5q-54 0 -76 76q62 68 105 144q3 6 3 9t-2 3q-4 0 -8 -8q-39 -72 -103 -130q-3 13 -9 41t-9.5 42.5t-11 32.5t-19 26t-26.5 8q-42 0 -61 -51q0 -4 3 -4q45 0 68 -29.5t42 -84.5q-89 -69 -164 -69q-66 0 -66 97q0 79 42 196q31 2 156 15t169 13
q11 0 11 5q0 4 -10 4q-49 0 -139.5 0.5t-171.5 0.5q44 107 66 107q7 0 7 -19q0 -6 6 -6q13 0 13 13q0 9 -8 16t-22 7q-18 0 -45 -33t-55 -85h-32q-20 0 -20 -11q0 -8 8.5 -15.5t24.5 -10.5q-60 -129 -60 -225q0 -122 108 -122q88 0 189 101q10 -31 18.5 -48.5t25.5 -32.5
t40 -15z" />
    <glyph glyph-name="ugrave" unicode="&#xf9;" 
d="M818 191q22 0 43 19.5t31 39.5l10 19q-1 -4 -4 -11.5t-13 -26.5t-22 -34t-33 -28.5t-44 -16.5q-118 -116 -284 -116q-168 0 -286.5 118.5t-118.5 285.5q0 34 7 76q-31 -22 -62 -53q9 16 23 37.5t49.5 64t74.5 74.5t97 57.5t117 25.5q55 0 55 -32q0 -22 -25 -61.5t-60 -86
t-70.5 -95.5t-60.5 -101t-25 -92q0 -29 17.5 -48t44.5 -19q24 0 43.5 18t19.5 39q0 5 -5 5q-3 -1 -11 -1q-29 0 -29 36q0 44 51 126.5t102 161.5t51 114q0 27 -20.5 46.5t-59.5 19.5q-159 0 -289 -146q49 108 148.5 173.5t221.5 65.5q167 0 285.5 -118.5t118.5 -286.5
q0 -107 -54 -202q-13 -5 -21 -5q-54 0 -76 76q62 68 105 144q3 6 3 9t-2 3q-4 0 -8 -8q-39 -72 -103 -130q-3 13 -9 41t-9.5 42.5t-11 32.5t-19 26t-26.5 8q-42 0 -61 -51q0 -4 3 -4q45 0 68 -29.5t42 -84.5q-89 -69 -164 -69q-66 0 -66 97q0 79 42 196q31 2 156 15t169 13
q11 0 11 5q0 4 -10 4q-49 0 -139.5 0.5t-171.5 0.5q44 107 66 107q7 0 7 -19q0 -6 6 -6q13 0 13 13q0 9 -8 16t-22 7q-18 0 -45 -33t-55 -85h-32q-20 0 -20 -11q0 -8 8.5 -15.5t24.5 -10.5q-60 -129 -60 -225q0 -122 108 -122q88 0 189 101q10 -31 18.5 -48.5t25.5 -32.5
t40 -15z" />
    <glyph glyph-name="uacute" unicode="&#xfa;" 
d="M818 191q22 0 43 19.5t31 39.5l10 19q-1 -4 -4 -11.5t-13 -26.5t-22 -34t-33 -28.5t-44 -16.5q-118 -116 -284 -116q-168 0 -286.5 118.5t-118.5 285.5q0 34 7 76q-31 -22 -62 -53q9 16 23 37.5t49.5 64t74.5 74.5t97 57.5t117 25.5q55 0 55 -32q0 -22 -25 -61.5t-60 -86
t-70.5 -95.5t-60.5 -101t-25 -92q0 -29 17.5 -48t44.5 -19q24 0 43.5 18t19.5 39q0 5 -5 5q-3 -1 -11 -1q-29 0 -29 36q0 44 51 126.5t102 161.5t51 114q0 27 -20.5 46.5t-59.5 19.5q-159 0 -289 -146q49 108 148.5 173.5t221.5 65.5q167 0 285.5 -118.5t118.5 -286.5
q0 -107 -54 -202q-13 -5 -21 -5q-54 0 -76 76q62 68 105 144q3 6 3 9t-2 3q-4 0 -8 -8q-39 -72 -103 -130q-3 13 -9 41t-9.5 42.5t-11 32.5t-19 26t-26.5 8q-42 0 -61 -51q0 -4 3 -4q45 0 68 -29.5t42 -84.5q-89 -69 -164 -69q-66 0 -66 97q0 79 42 196q31 2 156 15t169 13
q11 0 11 5q0 4 -10 4q-49 0 -139.5 0.5t-171.5 0.5q44 107 66 107q7 0 7 -19q0 -6 6 -6q13 0 13 13q0 9 -8 16t-22 7q-18 0 -45 -33t-55 -85h-32q-20 0 -20 -11q0 -8 8.5 -15.5t24.5 -10.5q-60 -129 -60 -225q0 -122 108 -122q88 0 189 101q10 -31 18.5 -48.5t25.5 -32.5
t40 -15z" />
    <glyph glyph-name="ucircumflex" unicode="&#xfb;" 
d="M818 191q22 0 43 19.5t31 39.5l10 19q-1 -4 -4 -11.5t-13 -26.5t-22 -34t-33 -28.5t-44 -16.5q-118 -116 -284 -116q-168 0 -286.5 118.5t-118.5 285.5q0 34 7 76q-31 -22 -62 -53q9 16 23 37.5t49.5 64t74.5 74.5t97 57.5t117 25.5q55 0 55 -32q0 -22 -25 -61.5t-60 -86
t-70.5 -95.5t-60.5 -101t-25 -92q0 -29 17.5 -48t44.5 -19q24 0 43.5 18t19.5 39q0 5 -5 5q-3 -1 -11 -1q-29 0 -29 36q0 44 51 126.5t102 161.5t51 114q0 27 -20.5 46.5t-59.5 19.5q-159 0 -289 -146q49 108 148.5 173.5t221.5 65.5q167 0 285.5 -118.5t118.5 -286.5
q0 -107 -54 -202q-13 -5 -21 -5q-54 0 -76 76q62 68 105 144q3 6 3 9t-2 3q-4 0 -8 -8q-39 -72 -103 -130q-3 13 -9 41t-9.5 42.5t-11 32.5t-19 26t-26.5 8q-42 0 -61 -51q0 -4 3 -4q45 0 68 -29.5t42 -84.5q-89 -69 -164 -69q-66 0 -66 97q0 79 42 196q31 2 156 15t169 13
q11 0 11 5q0 4 -10 4q-49 0 -139.5 0.5t-171.5 0.5q44 107 66 107q7 0 7 -19q0 -6 6 -6q13 0 13 13q0 9 -8 16t-22 7q-18 0 -45 -33t-55 -85h-32q-20 0 -20 -11q0 -8 8.5 -15.5t24.5 -10.5q-60 -129 -60 -225q0 -122 108 -122q88 0 189 101q10 -31 18.5 -48.5t25.5 -32.5
t40 -15z" />
    <glyph glyph-name="udieresis" unicode="&#xfc;" 
d="M818 191q22 0 43 19.5t31 39.5l10 19q-1 -4 -4 -11.5t-13 -26.5t-22 -34t-33 -28.5t-44 -16.5q-118 -116 -284 -116q-168 0 -286.5 118.5t-118.5 285.5q0 34 7 76q-31 -22 -62 -53q9 16 23 37.5t49.5 64t74.5 74.5t97 57.5t117 25.5q55 0 55 -32q0 -22 -25 -61.5t-60 -86
t-70.5 -95.5t-60.5 -101t-25 -92q0 -29 17.5 -48t44.5 -19q24 0 43.5 18t19.5 39q0 5 -5 5q-3 -1 -11 -1q-29 0 -29 36q0 44 51 126.5t102 161.5t51 114q0 27 -20.5 46.5t-59.5 19.5q-159 0 -289 -146q49 108 148.5 173.5t221.5 65.5q167 0 285.5 -118.5t118.5 -286.5
q0 -107 -54 -202q-13 -5 -21 -5q-54 0 -76 76q62 68 105 144q3 6 3 9t-2 3q-4 0 -8 -8q-39 -72 -103 -130q-3 13 -9 41t-9.5 42.5t-11 32.5t-19 26t-26.5 8q-42 0 -61 -51q0 -4 3 -4q45 0 68 -29.5t42 -84.5q-89 -69 -164 -69q-66 0 -66 97q0 79 42 196q31 2 156 15t169 13
q11 0 11 5q0 4 -10 4q-49 0 -139.5 0.5t-171.5 0.5q44 107 66 107q7 0 7 -19q0 -6 6 -6q13 0 13 13q0 9 -8 16t-22 7q-18 0 -45 -33t-55 -85h-32q-20 0 -20 -11q0 -8 8.5 -15.5t24.5 -10.5q-60 -129 -60 -225q0 -122 108 -122q88 0 189 101q10 -31 18.5 -48.5t25.5 -32.5
t40 -15z" />
    <glyph glyph-name="yacute" unicode="&#xfd;" 
d="M818 191q22 0 43 19.5t31 39.5l10 19q-1 -4 -4 -11.5t-13 -26.5t-22 -34t-33 -28.5t-44 -16.5q-118 -116 -284 -116q-168 0 -286.5 118.5t-118.5 285.5q0 34 7 76q-31 -22 -62 -53q9 16 23 37.5t49.5 64t74.5 74.5t97 57.5t117 25.5q55 0 55 -32q0 -22 -25 -61.5t-60 -86
t-70.5 -95.5t-60.5 -101t-25 -92q0 -29 17.5 -48t44.5 -19q24 0 43.5 18t19.5 39q0 5 -5 5q-3 -1 -11 -1q-29 0 -29 36q0 44 51 126.5t102 161.5t51 114q0 27 -20.5 46.5t-59.5 19.5q-159 0 -289 -146q49 108 148.5 173.5t221.5 65.5q167 0 285.5 -118.5t118.5 -286.5
q0 -107 -54 -202q-13 -5 -21 -5q-54 0 -76 76q62 68 105 144q3 6 3 9t-2 3q-4 0 -8 -8q-39 -72 -103 -130q-3 13 -9 41t-9.5 42.5t-11 32.5t-19 26t-26.5 8q-42 0 -61 -51q0 -4 3 -4q45 0 68 -29.5t42 -84.5q-89 -69 -164 -69q-66 0 -66 97q0 79 42 196q31 2 156 15t169 13
q11 0 11 5q0 4 -10 4q-49 0 -139.5 0.5t-171.5 0.5q44 107 66 107q7 0 7 -19q0 -6 6 -6q13 0 13 13q0 9 -8 16t-22 7q-18 0 -45 -33t-55 -85h-32q-20 0 -20 -11q0 -8 8.5 -15.5t24.5 -10.5q-60 -129 -60 -225q0 -122 108 -122q88 0 189 101q10 -31 18.5 -48.5t25.5 -32.5
t40 -15z" />
    <glyph glyph-name="thorn" unicode="&#xfe;" 
d="M818 191q22 0 43 19.5t31 39.5l10 19q-1 -4 -4 -11.5t-13 -26.5t-22 -34t-33 -28.5t-44 -16.5q-118 -116 -284 -116q-168 0 -286.5 118.5t-118.5 285.5q0 34 7 76q-31 -22 -62 -53q9 16 23 37.5t49.5 64t74.5 74.5t97 57.5t117 25.5q55 0 55 -32q0 -22 -25 -61.5t-60 -86
t-70.5 -95.5t-60.5 -101t-25 -92q0 -29 17.5 -48t44.5 -19q24 0 43.5 18t19.5 39q0 5 -5 5q-3 -1 -11 -1q-29 0 -29 36q0 44 51 126.5t102 161.5t51 114q0 27 -20.5 46.5t-59.5 19.5q-159 0 -289 -146q49 108 148.5 173.5t221.5 65.5q167 0 285.5 -118.5t118.5 -286.5
q0 -107 -54 -202q-13 -5 -21 -5q-54 0 -76 76q62 68 105 144q3 6 3 9t-2 3q-4 0 -8 -8q-39 -72 -103 -130q-3 13 -9 41t-9.5 42.5t-11 32.5t-19 26t-26.5 8q-42 0 -61 -51q0 -4 3 -4q45 0 68 -29.5t42 -84.5q-89 -69 -164 -69q-66 0 -66 97q0 79 42 196q31 2 156 15t169 13
q11 0 11 5q0 4 -10 4q-49 0 -139.5 0.5t-171.5 0.5q44 107 66 107q7 0 7 -19q0 -6 6 -6q13 0 13 13q0 9 -8 16t-22 7q-18 0 -45 -33t-55 -85h-32q-20 0 -20 -11q0 -8 8.5 -15.5t24.5 -10.5q-60 -129 -60 -225q0 -122 108 -122q88 0 189 101q10 -31 18.5 -48.5t25.5 -32.5
t40 -15z" />
    <glyph glyph-name="ydieresis" unicode="&#xff;" 
d="M818 191q22 0 43 19.5t31 39.5l10 19q-1 -4 -4 -11.5t-13 -26.5t-22 -34t-33 -28.5t-44 -16.5q-118 -116 -284 -116q-168 0 -286.5 118.5t-118.5 285.5q0 34 7 76q-31 -22 -62 -53q9 16 23 37.5t49.5 64t74.5 74.5t97 57.5t117 25.5q55 0 55 -32q0 -22 -25 -61.5t-60 -86
t-70.5 -95.5t-60.5 -101t-25 -92q0 -29 17.5 -48t44.5 -19q24 0 43.5 18t19.5 39q0 5 -5 5q-3 -1 -11 -1q-29 0 -29 36q0 44 51 126.5t102 161.5t51 114q0 27 -20.5 46.5t-59.5 19.5q-159 0 -289 -146q49 108 148.5 173.5t221.5 65.5q167 0 285.5 -118.5t118.5 -286.5
q0 -107 -54 -202q-13 -5 -21 -5q-54 0 -76 76q62 68 105 144q3 6 3 9t-2 3q-4 0 -8 -8q-39 -72 -103 -130q-3 13 -9 41t-9.5 42.5t-11 32.5t-19 26t-26.5 8q-42 0 -61 -51q0 -4 3 -4q45 0 68 -29.5t42 -84.5q-89 -69 -164 -69q-66 0 -66 97q0 79 42 196q31 2 156 15t169 13
q11 0 11 5q0 4 -10 4q-49 0 -139.5 0.5t-171.5 0.5q44 107 66 107q7 0 7 -19q0 -6 6 -6q13 0 13 13q0 9 -8 16t-22 7q-18 0 -45 -33t-55 -85h-32q-20 0 -20 -11q0 -8 8.5 -15.5t24.5 -10.5q-60 -129 -60 -225q0 -122 108 -122q88 0 189 101q10 -31 18.5 -48.5t25.5 -32.5
t40 -15z" />
    <glyph glyph-name="Amacron" unicode="&#x100;" 
d="M818 191q22 0 43 19.5t31 39.5l10 19q-1 -4 -4 -11.5t-13 -26.5t-22 -34t-33 -28.5t-44 -16.5q-118 -116 -284 -116q-168 0 -286.5 118.5t-118.5 285.5q0 34 7 76q-31 -22 -62 -53q9 16 23 37.5t49.5 64t74.5 74.5t97 57.5t117 25.5q55 0 55 -32q0 -22 -25 -61.5t-60 -86
t-70.5 -95.5t-60.5 -101t-25 -92q0 -29 17.5 -48t44.5 -19q24 0 43.5 18t19.5 39q0 5 -5 5q-3 -1 -11 -1q-29 0 -29 36q0 44 51 126.5t102 161.5t51 114q0 27 -20.5 46.5t-59.5 19.5q-159 0 -289 -146q49 108 148.5 173.5t221.5 65.5q167 0 285.5 -118.5t118.5 -286.5
q0 -107 -54 -202q-13 -5 -21 -5q-54 0 -76 76q62 68 105 144q3 6 3 9t-2 3q-4 0 -8 -8q-39 -72 -103 -130q-3 13 -9 41t-9.5 42.5t-11 32.5t-19 26t-26.5 8q-42 0 -61 -51q0 -4 3 -4q45 0 68 -29.5t42 -84.5q-89 -69 -164 -69q-66 0 -66 97q0 79 42 196q31 2 156 15t169 13
q11 0 11 5q0 4 -10 4q-49 0 -139.5 0.5t-171.5 0.5q44 107 66 107q7 0 7 -19q0 -6 6 -6q13 0 13 13q0 9 -8 16t-22 7q-18 0 -45 -33t-55 -85h-32q-20 0 -20 -11q0 -8 8.5 -15.5t24.5 -10.5q-60 -129 -60 -225q0 -122 108 -122q88 0 189 101q10 -31 18.5 -48.5t25.5 -32.5
t40 -15z" />
    <glyph glyph-name="amacron" unicode="&#x101;" 
d="M818 191q22 0 43 19.5t31 39.5l10 19q-1 -4 -4 -11.5t-13 -26.5t-22 -34t-33 -28.5t-44 -16.5q-118 -116 -284 -116q-168 0 -286.5 118.5t-118.5 285.5q0 34 7 76q-31 -22 -62 -53q9 16 23 37.5t49.5 64t74.5 74.5t97 57.5t117 25.5q55 0 55 -32q0 -22 -25 -61.5t-60 -86
t-70.5 -95.5t-60.5 -101t-25 -92q0 -29 17.5 -48t44.5 -19q24 0 43.5 18t19.5 39q0 5 -5 5q-3 -1 -11 -1q-29 0 -29 36q0 44 51 126.5t102 161.5t51 114q0 27 -20.5 46.5t-59.5 19.5q-159 0 -289 -146q49 108 148.5 173.5t221.5 65.5q167 0 285.5 -118.5t118.5 -286.5
q0 -107 -54 -202q-13 -5 -21 -5q-54 0 -76 76q62 68 105 144q3 6 3 9t-2 3q-4 0 -8 -8q-39 -72 -103 -130q-3 13 -9 41t-9.5 42.5t-11 32.5t-19 26t-26.5 8q-42 0 -61 -51q0 -4 3 -4q45 0 68 -29.5t42 -84.5q-89 -69 -164 -69q-66 0 -66 97q0 79 42 196q31 2 156 15t169 13
q11 0 11 5q0 4 -10 4q-49 0 -139.5 0.5t-171.5 0.5q44 107 66 107q7 0 7 -19q0 -6 6 -6q13 0 13 13q0 9 -8 16t-22 7q-18 0 -45 -33t-55 -85h-32q-20 0 -20 -11q0 -8 8.5 -15.5t24.5 -10.5q-60 -129 -60 -225q0 -122 108 -122q88 0 189 101q10 -31 18.5 -48.5t25.5 -32.5
t40 -15z" />
    <glyph glyph-name="Abreve" unicode="&#x102;" 
d="M818 191q22 0 43 19.5t31 39.5l10 19q-1 -4 -4 -11.5t-13 -26.5t-22 -34t-33 -28.5t-44 -16.5q-118 -116 -284 -116q-168 0 -286.5 118.5t-118.5 285.5q0 34 7 76q-31 -22 -62 -53q9 16 23 37.5t49.5 64t74.5 74.5t97 57.5t117 25.5q55 0 55 -32q0 -22 -25 -61.5t-60 -86
t-70.5 -95.5t-60.5 -101t-25 -92q0 -29 17.5 -48t44.5 -19q24 0 43.5 18t19.5 39q0 5 -5 5q-3 -1 -11 -1q-29 0 -29 36q0 44 51 126.5t102 161.5t51 114q0 27 -20.5 46.5t-59.5 19.5q-159 0 -289 -146q49 108 148.5 173.5t221.5 65.5q167 0 285.5 -118.5t118.5 -286.5
q0 -107 -54 -202q-13 -5 -21 -5q-54 0 -76 76q62 68 105 144q3 6 3 9t-2 3q-4 0 -8 -8q-39 -72 -103 -130q-3 13 -9 41t-9.5 42.5t-11 32.5t-19 26t-26.5 8q-42 0 -61 -51q0 -4 3 -4q45 0 68 -29.5t42 -84.5q-89 -69 -164 -69q-66 0 -66 97q0 79 42 196q31 2 156 15t169 13
q11 0 11 5q0 4 -10 4q-49 0 -139.5 0.5t-171.5 0.5q44 107 66 107q7 0 7 -19q0 -6 6 -6q13 0 13 13q0 9 -8 16t-22 7q-18 0 -45 -33t-55 -85h-32q-20 0 -20 -11q0 -8 8.5 -15.5t24.5 -10.5q-60 -129 -60 -225q0 -122 108 -122q88 0 189 101q10 -31 18.5 -48.5t25.5 -32.5
t40 -15z" />
    <glyph glyph-name="abreve" unicode="&#x103;" 
d="M818 191q22 0 43 19.5t31 39.5l10 19q-1 -4 -4 -11.5t-13 -26.5t-22 -34t-33 -28.5t-44 -16.5q-118 -116 -284 -116q-168 0 -286.5 118.5t-118.5 285.5q0 34 7 76q-31 -22 -62 -53q9 16 23 37.5t49.5 64t74.5 74.5t97 57.5t117 25.5q55 0 55 -32q0 -22 -25 -61.5t-60 -86
t-70.5 -95.5t-60.5 -101t-25 -92q0 -29 17.5 -48t44.5 -19q24 0 43.5 18t19.5 39q0 5 -5 5q-3 -1 -11 -1q-29 0 -29 36q0 44 51 126.5t102 161.5t51 114q0 27 -20.5 46.5t-59.5 19.5q-159 0 -289 -146q49 108 148.5 173.5t221.5 65.5q167 0 285.5 -118.5t118.5 -286.5
q0 -107 -54 -202q-13 -5 -21 -5q-54 0 -76 76q62 68 105 144q3 6 3 9t-2 3q-4 0 -8 -8q-39 -72 -103 -130q-3 13 -9 41t-9.5 42.5t-11 32.5t-19 26t-26.5 8q-42 0 -61 -51q0 -4 3 -4q45 0 68 -29.5t42 -84.5q-89 -69 -164 -69q-66 0 -66 97q0 79 42 196q31 2 156 15t169 13
q11 0 11 5q0 4 -10 4q-49 0 -139.5 0.5t-171.5 0.5q44 107 66 107q7 0 7 -19q0 -6 6 -6q13 0 13 13q0 9 -8 16t-22 7q-18 0 -45 -33t-55 -85h-32q-20 0 -20 -11q0 -8 8.5 -15.5t24.5 -10.5q-60 -129 -60 -225q0 -122 108 -122q88 0 189 101q10 -31 18.5 -48.5t25.5 -32.5
t40 -15z" />
    <glyph glyph-name="Aogonek" unicode="&#x104;" 
d="M818 191q22 0 43 19.5t31 39.5l10 19q-1 -4 -4 -11.5t-13 -26.5t-22 -34t-33 -28.5t-44 -16.5q-118 -116 -284 -116q-168 0 -286.5 118.5t-118.5 285.5q0 34 7 76q-31 -22 -62 -53q9 16 23 37.5t49.5 64t74.5 74.5t97 57.5t117 25.5q55 0 55 -32q0 -22 -25 -61.5t-60 -86
t-70.5 -95.5t-60.5 -101t-25 -92q0 -29 17.5 -48t44.5 -19q24 0 43.5 18t19.5 39q0 5 -5 5q-3 -1 -11 -1q-29 0 -29 36q0 44 51 126.5t102 161.5t51 114q0 27 -20.5 46.5t-59.5 19.5q-159 0 -289 -146q49 108 148.5 173.5t221.5 65.5q167 0 285.5 -118.5t118.5 -286.5
q0 -107 -54 -202q-13 -5 -21 -5q-54 0 -76 76q62 68 105 144q3 6 3 9t-2 3q-4 0 -8 -8q-39 -72 -103 -130q-3 13 -9 41t-9.5 42.5t-11 32.5t-19 26t-26.5 8q-42 0 -61 -51q0 -4 3 -4q45 0 68 -29.5t42 -84.5q-89 -69 -164 -69q-66 0 -66 97q0 79 42 196q31 2 156 15t169 13
q11 0 11 5q0 4 -10 4q-49 0 -139.5 0.5t-171.5 0.5q44 107 66 107q7 0 7 -19q0 -6 6 -6q13 0 13 13q0 9 -8 16t-22 7q-18 0 -45 -33t-55 -85h-32q-20 0 -20 -11q0 -8 8.5 -15.5t24.5 -10.5q-60 -129 -60 -225q0 -122 108 -122q88 0 189 101q10 -31 18.5 -48.5t25.5 -32.5
t40 -15z" />
    <glyph glyph-name="aogonek" unicode="&#x105;" 
d="M818 191q22 0 43 19.5t31 39.5l10 19q-1 -4 -4 -11.5t-13 -26.5t-22 -34t-33 -28.5t-44 -16.5q-118 -116 -284 -116q-168 0 -286.5 118.5t-118.5 285.5q0 34 7 76q-31 -22 -62 -53q9 16 23 37.5t49.5 64t74.5 74.5t97 57.5t117 25.5q55 0 55 -32q0 -22 -25 -61.5t-60 -86
t-70.5 -95.5t-60.5 -101t-25 -92q0 -29 17.5 -48t44.5 -19q24 0 43.5 18t19.5 39q0 5 -5 5q-3 -1 -11 -1q-29 0 -29 36q0 44 51 126.5t102 161.5t51 114q0 27 -20.5 46.5t-59.5 19.5q-159 0 -289 -146q49 108 148.5 173.5t221.5 65.5q167 0 285.5 -118.5t118.5 -286.5
q0 -107 -54 -202q-13 -5 -21 -5q-54 0 -76 76q62 68 105 144q3 6 3 9t-2 3q-4 0 -8 -8q-39 -72 -103 -130q-3 13 -9 41t-9.5 42.5t-11 32.5t-19 26t-26.5 8q-42 0 -61 -51q0 -4 3 -4q45 0 68 -29.5t42 -84.5q-89 -69 -164 -69q-66 0 -66 97q0 79 42 196q31 2 156 15t169 13
q11 0 11 5q0 4 -10 4q-49 0 -139.5 0.5t-171.5 0.5q44 107 66 107q7 0 7 -19q0 -6 6 -6q13 0 13 13q0 9 -8 16t-22 7q-18 0 -45 -33t-55 -85h-32q-20 0 -20 -11q0 -8 8.5 -15.5t24.5 -10.5q-60 -129 -60 -225q0 -122 108 -122q88 0 189 101q10 -31 18.5 -48.5t25.5 -32.5
t40 -15z" />
    <glyph glyph-name="Cacute" unicode="&#x106;" 
d="M818 191q22 0 43 19.5t31 39.5l10 19q-1 -4 -4 -11.5t-13 -26.5t-22 -34t-33 -28.5t-44 -16.5q-118 -116 -284 -116q-168 0 -286.5 118.5t-118.5 285.5q0 34 7 76q-31 -22 -62 -53q9 16 23 37.5t49.5 64t74.5 74.5t97 57.5t117 25.5q55 0 55 -32q0 -22 -25 -61.5t-60 -86
t-70.5 -95.5t-60.5 -101t-25 -92q0 -29 17.5 -48t44.5 -19q24 0 43.5 18t19.5 39q0 5 -5 5q-3 -1 -11 -1q-29 0 -29 36q0 44 51 126.5t102 161.5t51 114q0 27 -20.5 46.5t-59.5 19.5q-159 0 -289 -146q49 108 148.5 173.5t221.5 65.5q167 0 285.5 -118.5t118.5 -286.5
q0 -107 -54 -202q-13 -5 -21 -5q-54 0 -76 76q62 68 105 144q3 6 3 9t-2 3q-4 0 -8 -8q-39 -72 -103 -130q-3 13 -9 41t-9.5 42.5t-11 32.5t-19 26t-26.5 8q-42 0 -61 -51q0 -4 3 -4q45 0 68 -29.5t42 -84.5q-89 -69 -164 -69q-66 0 -66 97q0 79 42 196q31 2 156 15t169 13
q11 0 11 5q0 4 -10 4q-49 0 -139.5 0.5t-171.5 0.5q44 107 66 107q7 0 7 -19q0 -6 6 -6q13 0 13 13q0 9 -8 16t-22 7q-18 0 -45 -33t-55 -85h-32q-20 0 -20 -11q0 -8 8.5 -15.5t24.5 -10.5q-60 -129 -60 -225q0 -122 108 -122q88 0 189 101q10 -31 18.5 -48.5t25.5 -32.5
t40 -15z" />
    <glyph glyph-name="cacute" unicode="&#x107;" 
d="M818 191q22 0 43 19.5t31 39.5l10 19q-1 -4 -4 -11.5t-13 -26.5t-22 -34t-33 -28.5t-44 -16.5q-118 -116 -284 -116q-168 0 -286.5 118.5t-118.5 285.5q0 34 7 76q-31 -22 -62 -53q9 16 23 37.5t49.5 64t74.5 74.5t97 57.5t117 25.5q55 0 55 -32q0 -22 -25 -61.5t-60 -86
t-70.5 -95.5t-60.5 -101t-25 -92q0 -29 17.5 -48t44.5 -19q24 0 43.5 18t19.5 39q0 5 -5 5q-3 -1 -11 -1q-29 0 -29 36q0 44 51 126.5t102 161.5t51 114q0 27 -20.5 46.5t-59.5 19.5q-159 0 -289 -146q49 108 148.5 173.5t221.5 65.5q167 0 285.5 -118.5t118.5 -286.5
q0 -107 -54 -202q-13 -5 -21 -5q-54 0 -76 76q62 68 105 144q3 6 3 9t-2 3q-4 0 -8 -8q-39 -72 -103 -130q-3 13 -9 41t-9.5 42.5t-11 32.5t-19 26t-26.5 8q-42 0 -61 -51q0 -4 3 -4q45 0 68 -29.5t42 -84.5q-89 -69 -164 -69q-66 0 -66 97q0 79 42 196q31 2 156 15t169 13
q11 0 11 5q0 4 -10 4q-49 0 -139.5 0.5t-171.5 0.5q44 107 66 107q7 0 7 -19q0 -6 6 -6q13 0 13 13q0 9 -8 16t-22 7q-18 0 -45 -33t-55 -85h-32q-20 0 -20 -11q0 -8 8.5 -15.5t24.5 -10.5q-60 -129 -60 -225q0 -122 108 -122q88 0 189 101q10 -31 18.5 -48.5t25.5 -32.5
t40 -15z" />
    <glyph glyph-name="Ccircumflex" unicode="&#x108;" 
d="M818 191q22 0 43 19.5t31 39.5l10 19q-1 -4 -4 -11.5t-13 -26.5t-22 -34t-33 -28.5t-44 -16.5q-118 -116 -284 -116q-168 0 -286.5 118.5t-118.5 285.5q0 34 7 76q-31 -22 -62 -53q9 16 23 37.5t49.5 64t74.5 74.5t97 57.5t117 25.5q55 0 55 -32q0 -22 -25 -61.5t-60 -86
t-70.5 -95.5t-60.5 -101t-25 -92q0 -29 17.5 -48t44.5 -19q24 0 43.5 18t19.5 39q0 5 -5 5q-3 -1 -11 -1q-29 0 -29 36q0 44 51 126.5t102 161.5t51 114q0 27 -20.5 46.5t-59.5 19.5q-159 0 -289 -146q49 108 148.5 173.5t221.5 65.5q167 0 285.5 -118.5t118.5 -286.5
q0 -107 -54 -202q-13 -5 -21 -5q-54 0 -76 76q62 68 105 144q3 6 3 9t-2 3q-4 0 -8 -8q-39 -72 -103 -130q-3 13 -9 41t-9.5 42.5t-11 32.5t-19 26t-26.5 8q-42 0 -61 -51q0 -4 3 -4q45 0 68 -29.5t42 -84.5q-89 -69 -164 -69q-66 0 -66 97q0 79 42 196q31 2 156 15t169 13
q11 0 11 5q0 4 -10 4q-49 0 -139.5 0.5t-171.5 0.5q44 107 66 107q7 0 7 -19q0 -6 6 -6q13 0 13 13q0 9 -8 16t-22 7q-18 0 -45 -33t-55 -85h-32q-20 0 -20 -11q0 -8 8.5 -15.5t24.5 -10.5q-60 -129 -60 -225q0 -122 108 -122q88 0 189 101q10 -31 18.5 -48.5t25.5 -32.5
t40 -15z" />
    <glyph glyph-name="ccircumflex" unicode="&#x109;" 
d="M818 191q22 0 43 19.5t31 39.5l10 19q-1 -4 -4 -11.5t-13 -26.5t-22 -34t-33 -28.5t-44 -16.5q-118 -116 -284 -116q-168 0 -286.5 118.5t-118.5 285.5q0 34 7 76q-31 -22 -62 -53q9 16 23 37.5t49.5 64t74.5 74.5t97 57.5t117 25.5q55 0 55 -32q0 -22 -25 -61.5t-60 -86
t-70.5 -95.5t-60.5 -101t-25 -92q0 -29 17.5 -48t44.5 -19q24 0 43.5 18t19.5 39q0 5 -5 5q-3 -1 -11 -1q-29 0 -29 36q0 44 51 126.5t102 161.5t51 114q0 27 -20.5 46.5t-59.5 19.5q-159 0 -289 -146q49 108 148.5 173.5t221.5 65.5q167 0 285.5 -118.5t118.5 -286.5
q0 -107 -54 -202q-13 -5 -21 -5q-54 0 -76 76q62 68 105 144q3 6 3 9t-2 3q-4 0 -8 -8q-39 -72 -103 -130q-3 13 -9 41t-9.5 42.5t-11 32.5t-19 26t-26.5 8q-42 0 -61 -51q0 -4 3 -4q45 0 68 -29.5t42 -84.5q-89 -69 -164 -69q-66 0 -66 97q0 79 42 196q31 2 156 15t169 13
q11 0 11 5q0 4 -10 4q-49 0 -139.5 0.5t-171.5 0.5q44 107 66 107q7 0 7 -19q0 -6 6 -6q13 0 13 13q0 9 -8 16t-22 7q-18 0 -45 -33t-55 -85h-32q-20 0 -20 -11q0 -8 8.5 -15.5t24.5 -10.5q-60 -129 -60 -225q0 -122 108 -122q88 0 189 101q10 -31 18.5 -48.5t25.5 -32.5
t40 -15z" />
    <glyph glyph-name="Cdotaccent" unicode="&#x10a;" 
d="M818 191q22 0 43 19.5t31 39.5l10 19q-1 -4 -4 -11.5t-13 -26.5t-22 -34t-33 -28.5t-44 -16.5q-118 -116 -284 -116q-168 0 -286.5 118.5t-118.5 285.5q0 34 7 76q-31 -22 -62 -53q9 16 23 37.5t49.5 64t74.5 74.5t97 57.5t117 25.5q55 0 55 -32q0 -22 -25 -61.5t-60 -86
t-70.5 -95.5t-60.5 -101t-25 -92q0 -29 17.5 -48t44.5 -19q24 0 43.5 18t19.5 39q0 5 -5 5q-3 -1 -11 -1q-29 0 -29 36q0 44 51 126.5t102 161.5t51 114q0 27 -20.5 46.5t-59.5 19.5q-159 0 -289 -146q49 108 148.5 173.5t221.5 65.5q167 0 285.5 -118.5t118.5 -286.5
q0 -107 -54 -202q-13 -5 -21 -5q-54 0 -76 76q62 68 105 144q3 6 3 9t-2 3q-4 0 -8 -8q-39 -72 -103 -130q-3 13 -9 41t-9.5 42.5t-11 32.5t-19 26t-26.5 8q-42 0 -61 -51q0 -4 3 -4q45 0 68 -29.5t42 -84.5q-89 -69 -164 -69q-66 0 -66 97q0 79 42 196q31 2 156 15t169 13
q11 0 11 5q0 4 -10 4q-49 0 -139.5 0.5t-171.5 0.5q44 107 66 107q7 0 7 -19q0 -6 6 -6q13 0 13 13q0 9 -8 16t-22 7q-18 0 -45 -33t-55 -85h-32q-20 0 -20 -11q0 -8 8.5 -15.5t24.5 -10.5q-60 -129 -60 -225q0 -122 108 -122q88 0 189 101q10 -31 18.5 -48.5t25.5 -32.5
t40 -15z" />
    <glyph glyph-name="cdotaccent" unicode="&#x10b;" 
d="M818 191q22 0 43 19.5t31 39.5l10 19q-1 -4 -4 -11.5t-13 -26.5t-22 -34t-33 -28.5t-44 -16.5q-118 -116 -284 -116q-168 0 -286.5 118.5t-118.5 285.5q0 34 7 76q-31 -22 -62 -53q9 16 23 37.5t49.5 64t74.5 74.5t97 57.5t117 25.5q55 0 55 -32q0 -22 -25 -61.5t-60 -86
t-70.5 -95.5t-60.5 -101t-25 -92q0 -29 17.5 -48t44.5 -19q24 0 43.5 18t19.5 39q0 5 -5 5q-3 -1 -11 -1q-29 0 -29 36q0 44 51 126.5t102 161.5t51 114q0 27 -20.5 46.5t-59.5 19.5q-159 0 -289 -146q49 108 148.5 173.5t221.5 65.5q167 0 285.5 -118.5t118.5 -286.5
q0 -107 -54 -202q-13 -5 -21 -5q-54 0 -76 76q62 68 105 144q3 6 3 9t-2 3q-4 0 -8 -8q-39 -72 -103 -130q-3 13 -9 41t-9.5 42.5t-11 32.5t-19 26t-26.5 8q-42 0 -61 -51q0 -4 3 -4q45 0 68 -29.5t42 -84.5q-89 -69 -164 -69q-66 0 -66 97q0 79 42 196q31 2 156 15t169 13
q11 0 11 5q0 4 -10 4q-49 0 -139.5 0.5t-171.5 0.5q44 107 66 107q7 0 7 -19q0 -6 6 -6q13 0 13 13q0 9 -8 16t-22 7q-18 0 -45 -33t-55 -85h-32q-20 0 -20 -11q0 -8 8.5 -15.5t24.5 -10.5q-60 -129 -60 -225q0 -122 108 -122q88 0 189 101q10 -31 18.5 -48.5t25.5 -32.5
t40 -15z" />
    <glyph glyph-name="Ccaron" unicode="&#x10c;" 
d="M818 191q22 0 43 19.5t31 39.5l10 19q-1 -4 -4 -11.5t-13 -26.5t-22 -34t-33 -28.5t-44 -16.5q-118 -116 -284 -116q-168 0 -286.5 118.5t-118.5 285.5q0 34 7 76q-31 -22 -62 -53q9 16 23 37.5t49.5 64t74.5 74.5t97 57.5t117 25.5q55 0 55 -32q0 -22 -25 -61.5t-60 -86
t-70.5 -95.5t-60.5 -101t-25 -92q0 -29 17.5 -48t44.5 -19q24 0 43.5 18t19.5 39q0 5 -5 5q-3 -1 -11 -1q-29 0 -29 36q0 44 51 126.5t102 161.5t51 114q0 27 -20.5 46.5t-59.5 19.5q-159 0 -289 -146q49 108 148.5 173.5t221.5 65.5q167 0 285.5 -118.5t118.5 -286.5
q0 -107 -54 -202q-13 -5 -21 -5q-54 0 -76 76q62 68 105 144q3 6 3 9t-2 3q-4 0 -8 -8q-39 -72 -103 -130q-3 13 -9 41t-9.5 42.5t-11 32.5t-19 26t-26.5 8q-42 0 -61 -51q0 -4 3 -4q45 0 68 -29.5t42 -84.5q-89 -69 -164 -69q-66 0 -66 97q0 79 42 196q31 2 156 15t169 13
q11 0 11 5q0 4 -10 4q-49 0 -139.5 0.5t-171.5 0.5q44 107 66 107q7 0 7 -19q0 -6 6 -6q13 0 13 13q0 9 -8 16t-22 7q-18 0 -45 -33t-55 -85h-32q-20 0 -20 -11q0 -8 8.5 -15.5t24.5 -10.5q-60 -129 -60 -225q0 -122 108 -122q88 0 189 101q10 -31 18.5 -48.5t25.5 -32.5
t40 -15z" />
    <glyph glyph-name="ccaron" unicode="&#x10d;" 
d="M818 191q22 0 43 19.5t31 39.5l10 19q-1 -4 -4 -11.5t-13 -26.5t-22 -34t-33 -28.5t-44 -16.5q-118 -116 -284 -116q-168 0 -286.5 118.5t-118.5 285.5q0 34 7 76q-31 -22 -62 -53q9 16 23 37.5t49.5 64t74.5 74.5t97 57.5t117 25.5q55 0 55 -32q0 -22 -25 -61.5t-60 -86
t-70.5 -95.5t-60.5 -101t-25 -92q0 -29 17.5 -48t44.5 -19q24 0 43.5 18t19.5 39q0 5 -5 5q-3 -1 -11 -1q-29 0 -29 36q0 44 51 126.5t102 161.5t51 114q0 27 -20.5 46.5t-59.5 19.5q-159 0 -289 -146q49 108 148.5 173.5t221.5 65.5q167 0 285.5 -118.5t118.5 -286.5
q0 -107 -54 -202q-13 -5 -21 -5q-54 0 -76 76q62 68 105 144q3 6 3 9t-2 3q-4 0 -8 -8q-39 -72 -103 -130q-3 13 -9 41t-9.5 42.5t-11 32.5t-19 26t-26.5 8q-42 0 -61 -51q0 -4 3 -4q45 0 68 -29.5t42 -84.5q-89 -69 -164 -69q-66 0 -66 97q0 79 42 196q31 2 156 15t169 13
q11 0 11 5q0 4 -10 4q-49 0 -139.5 0.5t-171.5 0.5q44 107 66 107q7 0 7 -19q0 -6 6 -6q13 0 13 13q0 9 -8 16t-22 7q-18 0 -45 -33t-55 -85h-32q-20 0 -20 -11q0 -8 8.5 -15.5t24.5 -10.5q-60 -129 -60 -225q0 -122 108 -122q88 0 189 101q10 -31 18.5 -48.5t25.5 -32.5
t40 -15z" />
    <glyph glyph-name="Dcaron" unicode="&#x10e;" 
d="M818 191q22 0 43 19.5t31 39.5l10 19q-1 -4 -4 -11.5t-13 -26.5t-22 -34t-33 -28.5t-44 -16.5q-118 -116 -284 -116q-168 0 -286.5 118.5t-118.5 285.5q0 34 7 76q-31 -22 -62 -53q9 16 23 37.5t49.5 64t74.5 74.5t97 57.5t117 25.5q55 0 55 -32q0 -22 -25 -61.5t-60 -86
t-70.5 -95.5t-60.5 -101t-25 -92q0 -29 17.5 -48t44.5 -19q24 0 43.5 18t19.5 39q0 5 -5 5q-3 -1 -11 -1q-29 0 -29 36q0 44 51 126.5t102 161.5t51 114q0 27 -20.5 46.5t-59.5 19.5q-159 0 -289 -146q49 108 148.5 173.5t221.5 65.5q167 0 285.5 -118.5t118.5 -286.5
q0 -107 -54 -202q-13 -5 -21 -5q-54 0 -76 76q62 68 105 144q3 6 3 9t-2 3q-4 0 -8 -8q-39 -72 -103 -130q-3 13 -9 41t-9.5 42.5t-11 32.5t-19 26t-26.5 8q-42 0 -61 -51q0 -4 3 -4q45 0 68 -29.5t42 -84.5q-89 -69 -164 -69q-66 0 -66 97q0 79 42 196q31 2 156 15t169 13
q11 0 11 5q0 4 -10 4q-49 0 -139.5 0.5t-171.5 0.5q44 107 66 107q7 0 7 -19q0 -6 6 -6q13 0 13 13q0 9 -8 16t-22 7q-18 0 -45 -33t-55 -85h-32q-20 0 -20 -11q0 -8 8.5 -15.5t24.5 -10.5q-60 -129 -60 -225q0 -122 108 -122q88 0 189 101q10 -31 18.5 -48.5t25.5 -32.5
t40 -15z" />
    <glyph glyph-name="dcaron" unicode="&#x10f;" 
d="M818 191q22 0 43 19.5t31 39.5l10 19q-1 -4 -4 -11.5t-13 -26.5t-22 -34t-33 -28.5t-44 -16.5q-118 -116 -284 -116q-168 0 -286.5 118.5t-118.5 285.5q0 34 7 76q-31 -22 -62 -53q9 16 23 37.5t49.5 64t74.5 74.5t97 57.5t117 25.5q55 0 55 -32q0 -22 -25 -61.5t-60 -86
t-70.5 -95.5t-60.5 -101t-25 -92q0 -29 17.5 -48t44.5 -19q24 0 43.5 18t19.5 39q0 5 -5 5q-3 -1 -11 -1q-29 0 -29 36q0 44 51 126.5t102 161.5t51 114q0 27 -20.5 46.5t-59.5 19.5q-159 0 -289 -146q49 108 148.5 173.5t221.5 65.5q167 0 285.5 -118.5t118.5 -286.5
q0 -107 -54 -202q-13 -5 -21 -5q-54 0 -76 76q62 68 105 144q3 6 3 9t-2 3q-4 0 -8 -8q-39 -72 -103 -130q-3 13 -9 41t-9.5 42.5t-11 32.5t-19 26t-26.5 8q-42 0 -61 -51q0 -4 3 -4q45 0 68 -29.5t42 -84.5q-89 -69 -164 -69q-66 0 -66 97q0 79 42 196q31 2 156 15t169 13
q11 0 11 5q0 4 -10 4q-49 0 -139.5 0.5t-171.5 0.5q44 107 66 107q7 0 7 -19q0 -6 6 -6q13 0 13 13q0 9 -8 16t-22 7q-18 0 -45 -33t-55 -85h-32q-20 0 -20 -11q0 -8 8.5 -15.5t24.5 -10.5q-60 -129 -60 -225q0 -122 108 -122q88 0 189 101q10 -31 18.5 -48.5t25.5 -32.5
t40 -15z" />
    <glyph glyph-name="Dcroat" unicode="&#x110;" 
d="M818 191q22 0 43 19.5t31 39.5l10 19q-1 -4 -4 -11.5t-13 -26.5t-22 -34t-33 -28.5t-44 -16.5q-118 -116 -284 -116q-168 0 -286.5 118.5t-118.5 285.5q0 34 7 76q-31 -22 -62 -53q9 16 23 37.5t49.5 64t74.5 74.5t97 57.5t117 25.5q55 0 55 -32q0 -22 -25 -61.5t-60 -86
t-70.5 -95.5t-60.5 -101t-25 -92q0 -29 17.5 -48t44.5 -19q24 0 43.5 18t19.5 39q0 5 -5 5q-3 -1 -11 -1q-29 0 -29 36q0 44 51 126.5t102 161.5t51 114q0 27 -20.5 46.5t-59.5 19.5q-159 0 -289 -146q49 108 148.5 173.5t221.5 65.5q167 0 285.5 -118.5t118.5 -286.5
q0 -107 -54 -202q-13 -5 -21 -5q-54 0 -76 76q62 68 105 144q3 6 3 9t-2 3q-4 0 -8 -8q-39 -72 -103 -130q-3 13 -9 41t-9.5 42.5t-11 32.5t-19 26t-26.5 8q-42 0 -61 -51q0 -4 3 -4q45 0 68 -29.5t42 -84.5q-89 -69 -164 -69q-66 0 -66 97q0 79 42 196q31 2 156 15t169 13
q11 0 11 5q0 4 -10 4q-49 0 -139.5 0.5t-171.5 0.5q44 107 66 107q7 0 7 -19q0 -6 6 -6q13 0 13 13q0 9 -8 16t-22 7q-18 0 -45 -33t-55 -85h-32q-20 0 -20 -11q0 -8 8.5 -15.5t24.5 -10.5q-60 -129 -60 -225q0 -122 108 -122q88 0 189 101q10 -31 18.5 -48.5t25.5 -32.5
t40 -15z" />
    <glyph glyph-name="dcroat" unicode="&#x111;" 
d="M818 191q22 0 43 19.5t31 39.5l10 19q-1 -4 -4 -11.5t-13 -26.5t-22 -34t-33 -28.5t-44 -16.5q-118 -116 -284 -116q-168 0 -286.5 118.5t-118.5 285.5q0 34 7 76q-31 -22 -62 -53q9 16 23 37.5t49.5 64t74.5 74.5t97 57.5t117 25.5q55 0 55 -32q0 -22 -25 -61.5t-60 -86
t-70.5 -95.5t-60.5 -101t-25 -92q0 -29 17.5 -48t44.5 -19q24 0 43.5 18t19.5 39q0 5 -5 5q-3 -1 -11 -1q-29 0 -29 36q0 44 51 126.5t102 161.5t51 114q0 27 -20.5 46.5t-59.5 19.5q-159 0 -289 -146q49 108 148.5 173.5t221.5 65.5q167 0 285.5 -118.5t118.5 -286.5
q0 -107 -54 -202q-13 -5 -21 -5q-54 0 -76 76q62 68 105 144q3 6 3 9t-2 3q-4 0 -8 -8q-39 -72 -103 -130q-3 13 -9 41t-9.5 42.5t-11 32.5t-19 26t-26.5 8q-42 0 -61 -51q0 -4 3 -4q45 0 68 -29.5t42 -84.5q-89 -69 -164 -69q-66 0 -66 97q0 79 42 196q31 2 156 15t169 13
q11 0 11 5q0 4 -10 4q-49 0 -139.5 0.5t-171.5 0.5q44 107 66 107q7 0 7 -19q0 -6 6 -6q13 0 13 13q0 9 -8 16t-22 7q-18 0 -45 -33t-55 -85h-32q-20 0 -20 -11q0 -8 8.5 -15.5t24.5 -10.5q-60 -129 -60 -225q0 -122 108 -122q88 0 189 101q10 -31 18.5 -48.5t25.5 -32.5
t40 -15z" />
    <glyph glyph-name="Emacron" unicode="&#x112;" 
d="M818 191q22 0 43 19.5t31 39.5l10 19q-1 -4 -4 -11.5t-13 -26.5t-22 -34t-33 -28.5t-44 -16.5q-118 -116 -284 -116q-168 0 -286.5 118.5t-118.5 285.5q0 34 7 76q-31 -22 -62 -53q9 16 23 37.5t49.5 64t74.5 74.5t97 57.5t117 25.5q55 0 55 -32q0 -22 -25 -61.5t-60 -86
t-70.5 -95.5t-60.5 -101t-25 -92q0 -29 17.5 -48t44.5 -19q24 0 43.5 18t19.5 39q0 5 -5 5q-3 -1 -11 -1q-29 0 -29 36q0 44 51 126.5t102 161.5t51 114q0 27 -20.5 46.5t-59.5 19.5q-159 0 -289 -146q49 108 148.5 173.5t221.5 65.5q167 0 285.5 -118.5t118.5 -286.5
q0 -107 -54 -202q-13 -5 -21 -5q-54 0 -76 76q62 68 105 144q3 6 3 9t-2 3q-4 0 -8 -8q-39 -72 -103 -130q-3 13 -9 41t-9.5 42.5t-11 32.5t-19 26t-26.5 8q-42 0 -61 -51q0 -4 3 -4q45 0 68 -29.5t42 -84.5q-89 -69 -164 -69q-66 0 -66 97q0 79 42 196q31 2 156 15t169 13
q11 0 11 5q0 4 -10 4q-49 0 -139.5 0.5t-171.5 0.5q44 107 66 107q7 0 7 -19q0 -6 6 -6q13 0 13 13q0 9 -8 16t-22 7q-18 0 -45 -33t-55 -85h-32q-20 0 -20 -11q0 -8 8.5 -15.5t24.5 -10.5q-60 -129 -60 -225q0 -122 108 -122q88 0 189 101q10 -31 18.5 -48.5t25.5 -32.5
t40 -15z" />
    <glyph glyph-name="emacron" unicode="&#x113;" 
d="M818 191q22 0 43 19.5t31 39.5l10 19q-1 -4 -4 -11.5t-13 -26.5t-22 -34t-33 -28.5t-44 -16.5q-118 -116 -284 -116q-168 0 -286.5 118.5t-118.5 285.5q0 34 7 76q-31 -22 -62 -53q9 16 23 37.5t49.5 64t74.5 74.5t97 57.5t117 25.5q55 0 55 -32q0 -22 -25 -61.5t-60 -86
t-70.5 -95.5t-60.5 -101t-25 -92q0 -29 17.5 -48t44.5 -19q24 0 43.5 18t19.5 39q0 5 -5 5q-3 -1 -11 -1q-29 0 -29 36q0 44 51 126.5t102 161.5t51 114q0 27 -20.5 46.5t-59.5 19.5q-159 0 -289 -146q49 108 148.5 173.5t221.5 65.5q167 0 285.5 -118.5t118.5 -286.5
q0 -107 -54 -202q-13 -5 -21 -5q-54 0 -76 76q62 68 105 144q3 6 3 9t-2 3q-4 0 -8 -8q-39 -72 -103 -130q-3 13 -9 41t-9.5 42.5t-11 32.5t-19 26t-26.5 8q-42 0 -61 -51q0 -4 3 -4q45 0 68 -29.5t42 -84.5q-89 -69 -164 -69q-66 0 -66 97q0 79 42 196q31 2 156 15t169 13
q11 0 11 5q0 4 -10 4q-49 0 -139.5 0.5t-171.5 0.5q44 107 66 107q7 0 7 -19q0 -6 6 -6q13 0 13 13q0 9 -8 16t-22 7q-18 0 -45 -33t-55 -85h-32q-20 0 -20 -11q0 -8 8.5 -15.5t24.5 -10.5q-60 -129 -60 -225q0 -122 108 -122q88 0 189 101q10 -31 18.5 -48.5t25.5 -32.5
t40 -15z" />
    <glyph glyph-name="Ebreve" unicode="&#x114;" 
d="M818 191q22 0 43 19.5t31 39.5l10 19q-1 -4 -4 -11.5t-13 -26.5t-22 -34t-33 -28.5t-44 -16.5q-118 -116 -284 -116q-168 0 -286.5 118.5t-118.5 285.5q0 34 7 76q-31 -22 -62 -53q9 16 23 37.5t49.5 64t74.5 74.5t97 57.5t117 25.5q55 0 55 -32q0 -22 -25 -61.5t-60 -86
t-70.5 -95.5t-60.5 -101t-25 -92q0 -29 17.5 -48t44.5 -19q24 0 43.5 18t19.5 39q0 5 -5 5q-3 -1 -11 -1q-29 0 -29 36q0 44 51 126.5t102 161.5t51 114q0 27 -20.5 46.5t-59.5 19.5q-159 0 -289 -146q49 108 148.5 173.5t221.5 65.5q167 0 285.5 -118.5t118.5 -286.5
q0 -107 -54 -202q-13 -5 -21 -5q-54 0 -76 76q62 68 105 144q3 6 3 9t-2 3q-4 0 -8 -8q-39 -72 -103 -130q-3 13 -9 41t-9.5 42.5t-11 32.5t-19 26t-26.5 8q-42 0 -61 -51q0 -4 3 -4q45 0 68 -29.5t42 -84.5q-89 -69 -164 -69q-66 0 -66 97q0 79 42 196q31 2 156 15t169 13
q11 0 11 5q0 4 -10 4q-49 0 -139.5 0.5t-171.5 0.5q44 107 66 107q7 0 7 -19q0 -6 6 -6q13 0 13 13q0 9 -8 16t-22 7q-18 0 -45 -33t-55 -85h-32q-20 0 -20 -11q0 -8 8.5 -15.5t24.5 -10.5q-60 -129 -60 -225q0 -122 108 -122q88 0 189 101q10 -31 18.5 -48.5t25.5 -32.5
t40 -15z" />
    <glyph glyph-name="ebreve" unicode="&#x115;" 
d="M818 191q22 0 43 19.5t31 39.5l10 19q-1 -4 -4 -11.5t-13 -26.5t-22 -34t-33 -28.5t-44 -16.5q-118 -116 -284 -116q-168 0 -286.5 118.5t-118.5 285.5q0 34 7 76q-31 -22 -62 -53q9 16 23 37.5t49.5 64t74.5 74.5t97 57.5t117 25.5q55 0 55 -32q0 -22 -25 -61.5t-60 -86
t-70.5 -95.5t-60.5 -101t-25 -92q0 -29 17.5 -48t44.5 -19q24 0 43.5 18t19.5 39q0 5 -5 5q-3 -1 -11 -1q-29 0 -29 36q0 44 51 126.5t102 161.5t51 114q0 27 -20.5 46.5t-59.5 19.5q-159 0 -289 -146q49 108 148.5 173.5t221.5 65.5q167 0 285.5 -118.5t118.5 -286.5
q0 -107 -54 -202q-13 -5 -21 -5q-54 0 -76 76q62 68 105 144q3 6 3 9t-2 3q-4 0 -8 -8q-39 -72 -103 -130q-3 13 -9 41t-9.5 42.5t-11 32.5t-19 26t-26.5 8q-42 0 -61 -51q0 -4 3 -4q45 0 68 -29.5t42 -84.5q-89 -69 -164 -69q-66 0 -66 97q0 79 42 196q31 2 156 15t169 13
q11 0 11 5q0 4 -10 4q-49 0 -139.5 0.5t-171.5 0.5q44 107 66 107q7 0 7 -19q0 -6 6 -6q13 0 13 13q0 9 -8 16t-22 7q-18 0 -45 -33t-55 -85h-32q-20 0 -20 -11q0 -8 8.5 -15.5t24.5 -10.5q-60 -129 -60 -225q0 -122 108 -122q88 0 189 101q10 -31 18.5 -48.5t25.5 -32.5
t40 -15z" />
    <glyph glyph-name="Edotaccent" unicode="&#x116;" 
d="M818 191q22 0 43 19.5t31 39.5l10 19q-1 -4 -4 -11.5t-13 -26.5t-22 -34t-33 -28.5t-44 -16.5q-118 -116 -284 -116q-168 0 -286.5 118.5t-118.5 285.5q0 34 7 76q-31 -22 -62 -53q9 16 23 37.5t49.5 64t74.5 74.5t97 57.5t117 25.5q55 0 55 -32q0 -22 -25 -61.5t-60 -86
t-70.5 -95.5t-60.5 -101t-25 -92q0 -29 17.5 -48t44.5 -19q24 0 43.5 18t19.5 39q0 5 -5 5q-3 -1 -11 -1q-29 0 -29 36q0 44 51 126.5t102 161.5t51 114q0 27 -20.5 46.5t-59.5 19.5q-159 0 -289 -146q49 108 148.5 173.5t221.5 65.5q167 0 285.5 -118.5t118.5 -286.5
q0 -107 -54 -202q-13 -5 -21 -5q-54 0 -76 76q62 68 105 144q3 6 3 9t-2 3q-4 0 -8 -8q-39 -72 -103 -130q-3 13 -9 41t-9.5 42.5t-11 32.5t-19 26t-26.5 8q-42 0 -61 -51q0 -4 3 -4q45 0 68 -29.5t42 -84.5q-89 -69 -164 -69q-66 0 -66 97q0 79 42 196q31 2 156 15t169 13
q11 0 11 5q0 4 -10 4q-49 0 -139.5 0.5t-171.5 0.5q44 107 66 107q7 0 7 -19q0 -6 6 -6q13 0 13 13q0 9 -8 16t-22 7q-18 0 -45 -33t-55 -85h-32q-20 0 -20 -11q0 -8 8.5 -15.5t24.5 -10.5q-60 -129 -60 -225q0 -122 108 -122q88 0 189 101q10 -31 18.5 -48.5t25.5 -32.5
t40 -15z" />
    <glyph glyph-name="edotaccent" unicode="&#x117;" 
d="M818 191q22 0 43 19.5t31 39.5l10 19q-1 -4 -4 -11.5t-13 -26.5t-22 -34t-33 -28.5t-44 -16.5q-118 -116 -284 -116q-168 0 -286.5 118.5t-118.5 285.5q0 34 7 76q-31 -22 -62 -53q9 16 23 37.5t49.5 64t74.5 74.5t97 57.5t117 25.5q55 0 55 -32q0 -22 -25 -61.5t-60 -86
t-70.5 -95.5t-60.5 -101t-25 -92q0 -29 17.5 -48t44.5 -19q24 0 43.5 18t19.5 39q0 5 -5 5q-3 -1 -11 -1q-29 0 -29 36q0 44 51 126.5t102 161.5t51 114q0 27 -20.5 46.5t-59.5 19.5q-159 0 -289 -146q49 108 148.5 173.5t221.5 65.5q167 0 285.5 -118.5t118.5 -286.5
q0 -107 -54 -202q-13 -5 -21 -5q-54 0 -76 76q62 68 105 144q3 6 3 9t-2 3q-4 0 -8 -8q-39 -72 -103 -130q-3 13 -9 41t-9.5 42.5t-11 32.5t-19 26t-26.5 8q-42 0 -61 -51q0 -4 3 -4q45 0 68 -29.5t42 -84.5q-89 -69 -164 -69q-66 0 -66 97q0 79 42 196q31 2 156 15t169 13
q11 0 11 5q0 4 -10 4q-49 0 -139.5 0.5t-171.5 0.5q44 107 66 107q7 0 7 -19q0 -6 6 -6q13 0 13 13q0 9 -8 16t-22 7q-18 0 -45 -33t-55 -85h-32q-20 0 -20 -11q0 -8 8.5 -15.5t24.5 -10.5q-60 -129 -60 -225q0 -122 108 -122q88 0 189 101q10 -31 18.5 -48.5t25.5 -32.5
t40 -15z" />
    <glyph glyph-name="Eogonek" unicode="&#x118;" 
d="M818 191q22 0 43 19.5t31 39.5l10 19q-1 -4 -4 -11.5t-13 -26.5t-22 -34t-33 -28.5t-44 -16.5q-118 -116 -284 -116q-168 0 -286.5 118.5t-118.5 285.5q0 34 7 76q-31 -22 -62 -53q9 16 23 37.5t49.5 64t74.5 74.5t97 57.5t117 25.5q55 0 55 -32q0 -22 -25 -61.5t-60 -86
t-70.5 -95.5t-60.5 -101t-25 -92q0 -29 17.5 -48t44.5 -19q24 0 43.5 18t19.5 39q0 5 -5 5q-3 -1 -11 -1q-29 0 -29 36q0 44 51 126.5t102 161.5t51 114q0 27 -20.5 46.5t-59.5 19.5q-159 0 -289 -146q49 108 148.5 173.5t221.5 65.5q167 0 285.5 -118.5t118.5 -286.5
q0 -107 -54 -202q-13 -5 -21 -5q-54 0 -76 76q62 68 105 144q3 6 3 9t-2 3q-4 0 -8 -8q-39 -72 -103 -130q-3 13 -9 41t-9.5 42.5t-11 32.5t-19 26t-26.5 8q-42 0 -61 -51q0 -4 3 -4q45 0 68 -29.5t42 -84.5q-89 -69 -164 -69q-66 0 -66 97q0 79 42 196q31 2 156 15t169 13
q11 0 11 5q0 4 -10 4q-49 0 -139.5 0.5t-171.5 0.5q44 107 66 107q7 0 7 -19q0 -6 6 -6q13 0 13 13q0 9 -8 16t-22 7q-18 0 -45 -33t-55 -85h-32q-20 0 -20 -11q0 -8 8.5 -15.5t24.5 -10.5q-60 -129 -60 -225q0 -122 108 -122q88 0 189 101q10 -31 18.5 -48.5t25.5 -32.5
t40 -15z" />
    <glyph glyph-name="eogonek" unicode="&#x119;" 
d="M818 191q22 0 43 19.5t31 39.5l10 19q-1 -4 -4 -11.5t-13 -26.5t-22 -34t-33 -28.5t-44 -16.5q-118 -116 -284 -116q-168 0 -286.5 118.5t-118.5 285.5q0 34 7 76q-31 -22 -62 -53q9 16 23 37.5t49.5 64t74.5 74.5t97 57.5t117 25.5q55 0 55 -32q0 -22 -25 -61.5t-60 -86
t-70.5 -95.5t-60.5 -101t-25 -92q0 -29 17.5 -48t44.5 -19q24 0 43.5 18t19.5 39q0 5 -5 5q-3 -1 -11 -1q-29 0 -29 36q0 44 51 126.5t102 161.5t51 114q0 27 -20.5 46.5t-59.5 19.5q-159 0 -289 -146q49 108 148.5 173.5t221.5 65.5q167 0 285.5 -118.5t118.5 -286.5
q0 -107 -54 -202q-13 -5 -21 -5q-54 0 -76 76q62 68 105 144q3 6 3 9t-2 3q-4 0 -8 -8q-39 -72 -103 -130q-3 13 -9 41t-9.5 42.5t-11 32.5t-19 26t-26.5 8q-42 0 -61 -51q0 -4 3 -4q45 0 68 -29.5t42 -84.5q-89 -69 -164 -69q-66 0 -66 97q0 79 42 196q31 2 156 15t169 13
q11 0 11 5q0 4 -10 4q-49 0 -139.5 0.5t-171.5 0.5q44 107 66 107q7 0 7 -19q0 -6 6 -6q13 0 13 13q0 9 -8 16t-22 7q-18 0 -45 -33t-55 -85h-32q-20 0 -20 -11q0 -8 8.5 -15.5t24.5 -10.5q-60 -129 -60 -225q0 -122 108 -122q88 0 189 101q10 -31 18.5 -48.5t25.5 -32.5
t40 -15z" />
    <glyph glyph-name="Ecaron" unicode="&#x11a;" 
d="M818 191q22 0 43 19.5t31 39.5l10 19q-1 -4 -4 -11.5t-13 -26.5t-22 -34t-33 -28.5t-44 -16.5q-118 -116 -284 -116q-168 0 -286.5 118.5t-118.5 285.5q0 34 7 76q-31 -22 -62 -53q9 16 23 37.5t49.5 64t74.5 74.5t97 57.5t117 25.5q55 0 55 -32q0 -22 -25 -61.5t-60 -86
t-70.5 -95.5t-60.5 -101t-25 -92q0 -29 17.5 -48t44.5 -19q24 0 43.5 18t19.5 39q0 5 -5 5q-3 -1 -11 -1q-29 0 -29 36q0 44 51 126.5t102 161.5t51 114q0 27 -20.5 46.5t-59.5 19.5q-159 0 -289 -146q49 108 148.5 173.5t221.5 65.5q167 0 285.5 -118.5t118.5 -286.5
q0 -107 -54 -202q-13 -5 -21 -5q-54 0 -76 76q62 68 105 144q3 6 3 9t-2 3q-4 0 -8 -8q-39 -72 -103 -130q-3 13 -9 41t-9.5 42.5t-11 32.5t-19 26t-26.5 8q-42 0 -61 -51q0 -4 3 -4q45 0 68 -29.5t42 -84.5q-89 -69 -164 -69q-66 0 -66 97q0 79 42 196q31 2 156 15t169 13
q11 0 11 5q0 4 -10 4q-49 0 -139.5 0.5t-171.5 0.5q44 107 66 107q7 0 7 -19q0 -6 6 -6q13 0 13 13q0 9 -8 16t-22 7q-18 0 -45 -33t-55 -85h-32q-20 0 -20 -11q0 -8 8.5 -15.5t24.5 -10.5q-60 -129 -60 -225q0 -122 108 -122q88 0 189 101q10 -31 18.5 -48.5t25.5 -32.5
t40 -15z" />
    <glyph glyph-name="ecaron" unicode="&#x11b;" 
d="M818 191q22 0 43 19.5t31 39.5l10 19q-1 -4 -4 -11.5t-13 -26.5t-22 -34t-33 -28.5t-44 -16.5q-118 -116 -284 -116q-168 0 -286.5 118.5t-118.5 285.5q0 34 7 76q-31 -22 -62 -53q9 16 23 37.5t49.5 64t74.5 74.5t97 57.5t117 25.5q55 0 55 -32q0 -22 -25 -61.5t-60 -86
t-70.5 -95.5t-60.5 -101t-25 -92q0 -29 17.5 -48t44.5 -19q24 0 43.5 18t19.5 39q0 5 -5 5q-3 -1 -11 -1q-29 0 -29 36q0 44 51 126.5t102 161.5t51 114q0 27 -20.5 46.5t-59.5 19.5q-159 0 -289 -146q49 108 148.5 173.5t221.5 65.5q167 0 285.5 -118.5t118.5 -286.5
q0 -107 -54 -202q-13 -5 -21 -5q-54 0 -76 76q62 68 105 144q3 6 3 9t-2 3q-4 0 -8 -8q-39 -72 -103 -130q-3 13 -9 41t-9.5 42.5t-11 32.5t-19 26t-26.5 8q-42 0 -61 -51q0 -4 3 -4q45 0 68 -29.5t42 -84.5q-89 -69 -164 -69q-66 0 -66 97q0 79 42 196q31 2 156 15t169 13
q11 0 11 5q0 4 -10 4q-49 0 -139.5 0.5t-171.5 0.5q44 107 66 107q7 0 7 -19q0 -6 6 -6q13 0 13 13q0 9 -8 16t-22 7q-18 0 -45 -33t-55 -85h-32q-20 0 -20 -11q0 -8 8.5 -15.5t24.5 -10.5q-60 -129 -60 -225q0 -122 108 -122q88 0 189 101q10 -31 18.5 -48.5t25.5 -32.5
t40 -15z" />
    <glyph glyph-name="Gcircumflex" unicode="&#x11c;" 
d="M818 191q22 0 43 19.5t31 39.5l10 19q-1 -4 -4 -11.5t-13 -26.5t-22 -34t-33 -28.5t-44 -16.5q-118 -116 -284 -116q-168 0 -286.5 118.5t-118.5 285.5q0 34 7 76q-31 -22 -62 -53q9 16 23 37.5t49.5 64t74.5 74.5t97 57.5t117 25.5q55 0 55 -32q0 -22 -25 -61.5t-60 -86
t-70.5 -95.5t-60.5 -101t-25 -92q0 -29 17.5 -48t44.5 -19q24 0 43.5 18t19.5 39q0 5 -5 5q-3 -1 -11 -1q-29 0 -29 36q0 44 51 126.5t102 161.5t51 114q0 27 -20.5 46.5t-59.5 19.5q-159 0 -289 -146q49 108 148.5 173.5t221.5 65.5q167 0 285.5 -118.5t118.5 -286.5
q0 -107 -54 -202q-13 -5 -21 -5q-54 0 -76 76q62 68 105 144q3 6 3 9t-2 3q-4 0 -8 -8q-39 -72 -103 -130q-3 13 -9 41t-9.5 42.5t-11 32.5t-19 26t-26.5 8q-42 0 -61 -51q0 -4 3 -4q45 0 68 -29.5t42 -84.5q-89 -69 -164 -69q-66 0 -66 97q0 79 42 196q31 2 156 15t169 13
q11 0 11 5q0 4 -10 4q-49 0 -139.5 0.5t-171.5 0.5q44 107 66 107q7 0 7 -19q0 -6 6 -6q13 0 13 13q0 9 -8 16t-22 7q-18 0 -45 -33t-55 -85h-32q-20 0 -20 -11q0 -8 8.5 -15.5t24.5 -10.5q-60 -129 -60 -225q0 -122 108 -122q88 0 189 101q10 -31 18.5 -48.5t25.5 -32.5
t40 -15z" />
    <glyph glyph-name="gcircumflex" unicode="&#x11d;" 
d="M818 191q22 0 43 19.5t31 39.5l10 19q-1 -4 -4 -11.5t-13 -26.5t-22 -34t-33 -28.5t-44 -16.5q-118 -116 -284 -116q-168 0 -286.5 118.5t-118.5 285.5q0 34 7 76q-31 -22 -62 -53q9 16 23 37.5t49.5 64t74.5 74.5t97 57.5t117 25.5q55 0 55 -32q0 -22 -25 -61.5t-60 -86
t-70.5 -95.5t-60.5 -101t-25 -92q0 -29 17.5 -48t44.5 -19q24 0 43.5 18t19.5 39q0 5 -5 5q-3 -1 -11 -1q-29 0 -29 36q0 44 51 126.5t102 161.5t51 114q0 27 -20.5 46.5t-59.5 19.5q-159 0 -289 -146q49 108 148.5 173.5t221.5 65.5q167 0 285.5 -118.5t118.5 -286.5
q0 -107 -54 -202q-13 -5 -21 -5q-54 0 -76 76q62 68 105 144q3 6 3 9t-2 3q-4 0 -8 -8q-39 -72 -103 -130q-3 13 -9 41t-9.5 42.5t-11 32.5t-19 26t-26.5 8q-42 0 -61 -51q0 -4 3 -4q45 0 68 -29.5t42 -84.5q-89 -69 -164 -69q-66 0 -66 97q0 79 42 196q31 2 156 15t169 13
q11 0 11 5q0 4 -10 4q-49 0 -139.5 0.5t-171.5 0.5q44 107 66 107q7 0 7 -19q0 -6 6 -6q13 0 13 13q0 9 -8 16t-22 7q-18 0 -45 -33t-55 -85h-32q-20 0 -20 -11q0 -8 8.5 -15.5t24.5 -10.5q-60 -129 -60 -225q0 -122 108 -122q88 0 189 101q10 -31 18.5 -48.5t25.5 -32.5
t40 -15z" />
    <glyph glyph-name="Gbreve" unicode="&#x11e;" 
d="M818 191q22 0 43 19.5t31 39.5l10 19q-1 -4 -4 -11.5t-13 -26.5t-22 -34t-33 -28.5t-44 -16.5q-118 -116 -284 -116q-168 0 -286.5 118.5t-118.5 285.5q0 34 7 76q-31 -22 -62 -53q9 16 23 37.5t49.5 64t74.5 74.5t97 57.5t117 25.5q55 0 55 -32q0 -22 -25 -61.5t-60 -86
t-70.5 -95.5t-60.5 -101t-25 -92q0 -29 17.5 -48t44.5 -19q24 0 43.5 18t19.5 39q0 5 -5 5q-3 -1 -11 -1q-29 0 -29 36q0 44 51 126.5t102 161.5t51 114q0 27 -20.5 46.5t-59.5 19.5q-159 0 -289 -146q49 108 148.5 173.5t221.5 65.5q167 0 285.5 -118.5t118.5 -286.5
q0 -107 -54 -202q-13 -5 -21 -5q-54 0 -76 76q62 68 105 144q3 6 3 9t-2 3q-4 0 -8 -8q-39 -72 -103 -130q-3 13 -9 41t-9.5 42.5t-11 32.5t-19 26t-26.5 8q-42 0 -61 -51q0 -4 3 -4q45 0 68 -29.5t42 -84.5q-89 -69 -164 -69q-66 0 -66 97q0 79 42 196q31 2 156 15t169 13
q11 0 11 5q0 4 -10 4q-49 0 -139.5 0.5t-171.5 0.5q44 107 66 107q7 0 7 -19q0 -6 6 -6q13 0 13 13q0 9 -8 16t-22 7q-18 0 -45 -33t-55 -85h-32q-20 0 -20 -11q0 -8 8.5 -15.5t24.5 -10.5q-60 -129 -60 -225q0 -122 108 -122q88 0 189 101q10 -31 18.5 -48.5t25.5 -32.5
t40 -15z" />
    <glyph glyph-name="gbreve" unicode="&#x11f;" 
d="M818 191q22 0 43 19.5t31 39.5l10 19q-1 -4 -4 -11.5t-13 -26.5t-22 -34t-33 -28.5t-44 -16.5q-118 -116 -284 -116q-168 0 -286.5 118.5t-118.5 285.5q0 34 7 76q-31 -22 -62 -53q9 16 23 37.5t49.5 64t74.5 74.5t97 57.5t117 25.5q55 0 55 -32q0 -22 -25 -61.5t-60 -86
t-70.5 -95.5t-60.5 -101t-25 -92q0 -29 17.5 -48t44.5 -19q24 0 43.5 18t19.5 39q0 5 -5 5q-3 -1 -11 -1q-29 0 -29 36q0 44 51 126.5t102 161.5t51 114q0 27 -20.5 46.5t-59.5 19.5q-159 0 -289 -146q49 108 148.5 173.5t221.5 65.5q167 0 285.5 -118.5t118.5 -286.5
q0 -107 -54 -202q-13 -5 -21 -5q-54 0 -76 76q62 68 105 144q3 6 3 9t-2 3q-4 0 -8 -8q-39 -72 -103 -130q-3 13 -9 41t-9.5 42.5t-11 32.5t-19 26t-26.5 8q-42 0 -61 -51q0 -4 3 -4q45 0 68 -29.5t42 -84.5q-89 -69 -164 -69q-66 0 -66 97q0 79 42 196q31 2 156 15t169 13
q11 0 11 5q0 4 -10 4q-49 0 -139.5 0.5t-171.5 0.5q44 107 66 107q7 0 7 -19q0 -6 6 -6q13 0 13 13q0 9 -8 16t-22 7q-18 0 -45 -33t-55 -85h-32q-20 0 -20 -11q0 -8 8.5 -15.5t24.5 -10.5q-60 -129 -60 -225q0 -122 108 -122q88 0 189 101q10 -31 18.5 -48.5t25.5 -32.5
t40 -15z" />
    <glyph glyph-name="Gdotaccent" unicode="&#x120;" 
d="M818 191q22 0 43 19.5t31 39.5l10 19q-1 -4 -4 -11.5t-13 -26.5t-22 -34t-33 -28.5t-44 -16.5q-118 -116 -284 -116q-168 0 -286.5 118.5t-118.5 285.5q0 34 7 76q-31 -22 -62 -53q9 16 23 37.5t49.5 64t74.5 74.5t97 57.5t117 25.5q55 0 55 -32q0 -22 -25 -61.5t-60 -86
t-70.5 -95.5t-60.5 -101t-25 -92q0 -29 17.5 -48t44.5 -19q24 0 43.5 18t19.5 39q0 5 -5 5q-3 -1 -11 -1q-29 0 -29 36q0 44 51 126.5t102 161.5t51 114q0 27 -20.5 46.5t-59.5 19.5q-159 0 -289 -146q49 108 148.5 173.5t221.5 65.5q167 0 285.5 -118.5t118.5 -286.5
q0 -107 -54 -202q-13 -5 -21 -5q-54 0 -76 76q62 68 105 144q3 6 3 9t-2 3q-4 0 -8 -8q-39 -72 -103 -130q-3 13 -9 41t-9.5 42.5t-11 32.5t-19 26t-26.5 8q-42 0 -61 -51q0 -4 3 -4q45 0 68 -29.5t42 -84.5q-89 -69 -164 -69q-66 0 -66 97q0 79 42 196q31 2 156 15t169 13
q11 0 11 5q0 4 -10 4q-49 0 -139.5 0.5t-171.5 0.5q44 107 66 107q7 0 7 -19q0 -6 6 -6q13 0 13 13q0 9 -8 16t-22 7q-18 0 -45 -33t-55 -85h-32q-20 0 -20 -11q0 -8 8.5 -15.5t24.5 -10.5q-60 -129 -60 -225q0 -122 108 -122q88 0 189 101q10 -31 18.5 -48.5t25.5 -32.5
t40 -15z" />
    <glyph glyph-name="gdotaccent" unicode="&#x121;" 
d="M818 191q22 0 43 19.5t31 39.5l10 19q-1 -4 -4 -11.5t-13 -26.5t-22 -34t-33 -28.5t-44 -16.5q-118 -116 -284 -116q-168 0 -286.5 118.5t-118.5 285.5q0 34 7 76q-31 -22 -62 -53q9 16 23 37.5t49.5 64t74.5 74.5t97 57.5t117 25.5q55 0 55 -32q0 -22 -25 -61.5t-60 -86
t-70.5 -95.5t-60.5 -101t-25 -92q0 -29 17.5 -48t44.5 -19q24 0 43.5 18t19.5 39q0 5 -5 5q-3 -1 -11 -1q-29 0 -29 36q0 44 51 126.5t102 161.5t51 114q0 27 -20.5 46.5t-59.5 19.5q-159 0 -289 -146q49 108 148.5 173.5t221.5 65.5q167 0 285.5 -118.5t118.5 -286.5
q0 -107 -54 -202q-13 -5 -21 -5q-54 0 -76 76q62 68 105 144q3 6 3 9t-2 3q-4 0 -8 -8q-39 -72 -103 -130q-3 13 -9 41t-9.5 42.5t-11 32.5t-19 26t-26.5 8q-42 0 -61 -51q0 -4 3 -4q45 0 68 -29.5t42 -84.5q-89 -69 -164 -69q-66 0 -66 97q0 79 42 196q31 2 156 15t169 13
q11 0 11 5q0 4 -10 4q-49 0 -139.5 0.5t-171.5 0.5q44 107 66 107q7 0 7 -19q0 -6 6 -6q13 0 13 13q0 9 -8 16t-22 7q-18 0 -45 -33t-55 -85h-32q-20 0 -20 -11q0 -8 8.5 -15.5t24.5 -10.5q-60 -129 -60 -225q0 -122 108 -122q88 0 189 101q10 -31 18.5 -48.5t25.5 -32.5
t40 -15z" />
    <glyph glyph-name="Gcommaaccent" unicode="&#x122;" 
d="M818 191q22 0 43 19.5t31 39.5l10 19q-1 -4 -4 -11.5t-13 -26.5t-22 -34t-33 -28.5t-44 -16.5q-118 -116 -284 -116q-168 0 -286.5 118.5t-118.5 285.5q0 34 7 76q-31 -22 -62 -53q9 16 23 37.5t49.5 64t74.5 74.5t97 57.5t117 25.5q55 0 55 -32q0 -22 -25 -61.5t-60 -86
t-70.5 -95.5t-60.5 -101t-25 -92q0 -29 17.5 -48t44.5 -19q24 0 43.5 18t19.5 39q0 5 -5 5q-3 -1 -11 -1q-29 0 -29 36q0 44 51 126.5t102 161.5t51 114q0 27 -20.5 46.5t-59.5 19.5q-159 0 -289 -146q49 108 148.5 173.5t221.5 65.5q167 0 285.5 -118.5t118.5 -286.5
q0 -107 -54 -202q-13 -5 -21 -5q-54 0 -76 76q62 68 105 144q3 6 3 9t-2 3q-4 0 -8 -8q-39 -72 -103 -130q-3 13 -9 41t-9.5 42.5t-11 32.5t-19 26t-26.5 8q-42 0 -61 -51q0 -4 3 -4q45 0 68 -29.5t42 -84.5q-89 -69 -164 -69q-66 0 -66 97q0 79 42 196q31 2 156 15t169 13
q11 0 11 5q0 4 -10 4q-49 0 -139.5 0.5t-171.5 0.5q44 107 66 107q7 0 7 -19q0 -6 6 -6q13 0 13 13q0 9 -8 16t-22 7q-18 0 -45 -33t-55 -85h-32q-20 0 -20 -11q0 -8 8.5 -15.5t24.5 -10.5q-60 -129 -60 -225q0 -122 108 -122q88 0 189 101q10 -31 18.5 -48.5t25.5 -32.5
t40 -15z" />
    <glyph glyph-name="gcommaaccent" unicode="&#x123;" 
d="M818 191q22 0 43 19.5t31 39.5l10 19q-1 -4 -4 -11.5t-13 -26.5t-22 -34t-33 -28.5t-44 -16.5q-118 -116 -284 -116q-168 0 -286.5 118.5t-118.5 285.5q0 34 7 76q-31 -22 -62 -53q9 16 23 37.5t49.5 64t74.5 74.5t97 57.5t117 25.5q55 0 55 -32q0 -22 -25 -61.5t-60 -86
t-70.5 -95.5t-60.5 -101t-25 -92q0 -29 17.5 -48t44.5 -19q24 0 43.5 18t19.5 39q0 5 -5 5q-3 -1 -11 -1q-29 0 -29 36q0 44 51 126.5t102 161.5t51 114q0 27 -20.5 46.5t-59.5 19.5q-159 0 -289 -146q49 108 148.5 173.5t221.5 65.5q167 0 285.5 -118.5t118.5 -286.5
q0 -107 -54 -202q-13 -5 -21 -5q-54 0 -76 76q62 68 105 144q3 6 3 9t-2 3q-4 0 -8 -8q-39 -72 -103 -130q-3 13 -9 41t-9.5 42.5t-11 32.5t-19 26t-26.5 8q-42 0 -61 -51q0 -4 3 -4q45 0 68 -29.5t42 -84.5q-89 -69 -164 -69q-66 0 -66 97q0 79 42 196q31 2 156 15t169 13
q11 0 11 5q0 4 -10 4q-49 0 -139.5 0.5t-171.5 0.5q44 107 66 107q7 0 7 -19q0 -6 6 -6q13 0 13 13q0 9 -8 16t-22 7q-18 0 -45 -33t-55 -85h-32q-20 0 -20 -11q0 -8 8.5 -15.5t24.5 -10.5q-60 -129 -60 -225q0 -122 108 -122q88 0 189 101q10 -31 18.5 -48.5t25.5 -32.5
t40 -15z" />
    </font>
</defs>
</svg>
